G04 (created by PCBNEW-RS274X (2010-12-23 BZR 2684)-stable) date 12/2/2011 7:38:03 AM*
G01*
G70*
G90*
%MOIN*%
G04 Gerber Fmt 3.4, Leading zero omitted, Abs format*
%FSLAX34Y34*%
G04 APERTURE LIST*
%ADD10C,0.006000*%
%ADD11C,0.060000*%
%ADD12R,0.060000X0.060000*%
%ADD13C,0.063000*%
%ADD14C,0.160000*%
%ADD15C,0.035000*%
%ADD16C,0.016000*%
G04 APERTURE END LIST*
G54D10*
G54D11*
X66350Y-39050D03*
X65350Y-39050D03*
X65350Y-40050D03*
X66350Y-40050D03*
G54D12*
X66350Y-47050D03*
G54D11*
X65350Y-47050D03*
X66350Y-46050D03*
X65350Y-46050D03*
X66350Y-45050D03*
X65350Y-45050D03*
X66350Y-44050D03*
X65350Y-44050D03*
X66350Y-43050D03*
X65350Y-43050D03*
X66350Y-42050D03*
X65350Y-42050D03*
X66350Y-41050D03*
X65350Y-41050D03*
G54D13*
X68744Y-46606D03*
X67957Y-46212D03*
X68744Y-45819D03*
X67957Y-45425D03*
X68744Y-45031D03*
X67957Y-44638D03*
X68744Y-44244D03*
X67957Y-43850D03*
X68744Y-43457D03*
X67957Y-43063D03*
X68744Y-42669D03*
X67957Y-42275D03*
X68744Y-41882D03*
X67957Y-41488D03*
X68744Y-41094D03*
X67957Y-40701D03*
G54D14*
X68600Y-38200D03*
X68600Y-49500D03*
G54D15*
X68350Y-39400D03*
X69250Y-40050D03*
X69650Y-45050D03*
X67100Y-47600D03*
G54D16*
X65350Y-43050D02*
X65600Y-43050D01*
X67682Y-42550D02*
X67957Y-42275D01*
X65600Y-43050D02*
X66100Y-42550D01*
X66100Y-42550D02*
X67682Y-42550D01*
X68744Y-41094D02*
X68744Y-39794D01*
X68744Y-39794D02*
X68350Y-39400D01*
X69250Y-40050D02*
X69350Y-40150D01*
X69350Y-41276D02*
X68744Y-41882D01*
X69350Y-40150D02*
X69350Y-41276D01*
X66350Y-45050D02*
X66500Y-45050D01*
X69650Y-47050D02*
X69650Y-45050D01*
X69100Y-47600D02*
X69650Y-47050D01*
X67800Y-47600D02*
X69100Y-47600D01*
X67162Y-46962D02*
X67800Y-47600D01*
X67162Y-45712D02*
X67162Y-46962D01*
X66500Y-45050D02*
X67162Y-45712D01*
X66900Y-46600D02*
X66350Y-46050D01*
X66900Y-47400D02*
X66900Y-46600D01*
X67100Y-47600D02*
X66900Y-47400D01*
X65350Y-41050D02*
X65150Y-41050D01*
X65150Y-41050D02*
X64700Y-41500D01*
X64700Y-41500D02*
X64700Y-47400D01*
X64700Y-47400D02*
X65000Y-47700D01*
X65000Y-47700D02*
X65700Y-47700D01*
X65700Y-47700D02*
X66350Y-47050D01*
X67806Y-40550D02*
X67957Y-40701D01*
X65550Y-41050D02*
X66050Y-40550D01*
X66050Y-40550D02*
X67806Y-40550D01*
X65350Y-41050D02*
X65550Y-41050D01*
X65550Y-42050D02*
X66050Y-41550D01*
X66050Y-41550D02*
X67895Y-41550D01*
X65350Y-42050D02*
X65550Y-42050D01*
X67895Y-41550D02*
X67957Y-41488D01*
X67950Y-47250D02*
X69000Y-47250D01*
X66350Y-44050D02*
X66550Y-44050D01*
X67450Y-44950D02*
X67450Y-46750D01*
X69000Y-47250D02*
X69250Y-47000D01*
X69250Y-43963D02*
X68744Y-43457D01*
X66550Y-44050D02*
X67450Y-44950D01*
X67450Y-46750D02*
X67950Y-47250D01*
X69250Y-47000D02*
X69250Y-43963D01*
M02*
