M48
INCH,TZ
T1C0.025
T2C0.032
T3C0.040
T4C0.134
%
G90
G05
T1
X67100Y-47600
X68350Y-39400
X69250Y-40050
X69650Y-45050
T2
X67957Y-40701
X67957Y-41488
X67957Y-42275
X67957Y-43063
X67957Y-43850
X67957Y-44638
X67957Y-45425
X67957Y-46212
X68744Y-41094
X68744Y-41882
X68744Y-42669
X68744Y-43457
X68744Y-44244
X68744Y-45031
X68744Y-45819
X68744Y-46606
T3
X65350Y-39050
X65350Y-40050
X65350Y-41050
X65350Y-42050
X65350Y-43050
X65350Y-44050
X65350Y-45050
X65350Y-46050
X65350Y-47050
X66350Y-39050
X66350Y-40050
X66350Y-41050
X66350Y-42050
X66350Y-43050
X66350Y-44050
X66350Y-45050
X66350Y-46050
X66350Y-47050
T4
X68600Y-38200
X68600Y-49500
T0
M30
