G04 (created by PCBNEW-RS274X (2010-12-23 BZR 2684)-stable) date 10/9/2011 1:25:49 PM*
G01*
G70*
G90*
%MOIN*%
G04 Gerber Fmt 3.4, Leading zero omitted, Abs format*
%FSLAX34Y34*%
G04 APERTURE LIST*
%ADD10C,0.006000*%
%ADD11C,0.015000*%
%ADD12C,0.086000*%
%ADD13C,0.075000*%
%ADD14C,0.080000*%
%ADD15R,0.080000X0.080000*%
%ADD16O,0.080000X0.120000*%
%ADD17R,0.082000X0.110000*%
%ADD18O,0.082000X0.110000*%
%ADD19C,0.090000*%
%ADD20R,0.090000X0.090000*%
%ADD21R,0.083000X0.083000*%
%ADD22C,0.083000*%
%ADD23C,0.085000*%
G04 APERTURE END LIST*
G54D10*
G54D11*
X34850Y-53450D02*
X34850Y-53350D01*
X73350Y-53450D02*
X34850Y-53450D01*
X73850Y-52950D02*
X73850Y-32950D01*
X73350Y-53450D02*
X73850Y-52950D01*
X34850Y-32450D02*
X34950Y-32550D01*
X73350Y-32450D02*
X34850Y-32450D01*
X73850Y-32950D02*
X73350Y-32450D01*
X34850Y-32450D02*
X34850Y-53450D01*
G54D12*
X70000Y-37250D03*
X70000Y-38250D03*
X36250Y-47500D03*
X36250Y-48500D03*
G54D13*
X42850Y-46100D03*
X42850Y-47100D03*
G54D14*
X54250Y-51050D03*
X50250Y-51050D03*
X50250Y-49550D03*
X54250Y-49550D03*
G54D15*
X57850Y-51250D03*
G54D14*
X57850Y-50250D03*
X57850Y-49250D03*
G54D15*
X56850Y-51250D03*
G54D14*
X56850Y-50250D03*
X56850Y-49250D03*
G54D15*
X55850Y-51250D03*
G54D14*
X55850Y-50250D03*
X55850Y-49250D03*
G54D15*
X58850Y-51250D03*
G54D14*
X58850Y-50250D03*
X58850Y-49250D03*
G54D16*
X61850Y-33450D03*
X62850Y-33450D03*
X63850Y-33450D03*
X64850Y-33450D03*
X65850Y-33450D03*
X66850Y-33450D03*
X67850Y-33450D03*
X68850Y-33450D03*
X70850Y-52450D03*
X69850Y-52450D03*
X68850Y-52450D03*
X67850Y-52450D03*
X63850Y-52450D03*
X61850Y-52450D03*
X60850Y-52450D03*
X64850Y-52450D03*
X65850Y-52450D03*
X66850Y-52450D03*
X59850Y-52450D03*
X58850Y-52450D03*
X57850Y-52450D03*
X54850Y-52450D03*
X55850Y-52450D03*
X56850Y-52450D03*
X52850Y-52450D03*
X51850Y-52450D03*
X50850Y-52450D03*
X48850Y-52450D03*
X47850Y-52450D03*
X59850Y-33450D03*
X58850Y-33450D03*
X57850Y-33450D03*
X56850Y-33450D03*
X55850Y-33450D03*
X54850Y-33450D03*
X53850Y-33450D03*
X52850Y-33450D03*
X51250Y-33450D03*
X50250Y-33450D03*
X49250Y-33450D03*
X48250Y-33450D03*
X47250Y-33450D03*
X46250Y-33450D03*
X45250Y-33450D03*
X44250Y-33450D03*
X49850Y-52450D03*
G54D14*
X71850Y-34450D03*
X72850Y-34450D03*
X71850Y-35450D03*
X72850Y-35450D03*
X71850Y-36450D03*
X72850Y-36450D03*
X71850Y-37450D03*
X72850Y-37450D03*
X71850Y-33450D03*
X72850Y-33450D03*
X72850Y-38450D03*
X71850Y-38450D03*
X71850Y-39450D03*
X72850Y-39450D03*
X71850Y-40450D03*
X72850Y-40450D03*
X71850Y-41450D03*
X72850Y-41450D03*
X71850Y-42450D03*
X72850Y-42450D03*
X71850Y-43450D03*
X72850Y-43450D03*
X71850Y-44450D03*
X72850Y-44450D03*
X71850Y-45450D03*
X72850Y-45450D03*
X71850Y-46450D03*
X72850Y-46450D03*
X71850Y-47450D03*
X72850Y-47450D03*
X71850Y-48450D03*
X72850Y-48450D03*
X71850Y-49450D03*
X72850Y-49450D03*
X71850Y-50450D03*
X72850Y-50450D03*
G54D13*
X67350Y-37950D03*
X64350Y-37950D03*
X36250Y-49500D03*
X39250Y-49500D03*
G54D17*
X62250Y-38050D03*
G54D18*
X61250Y-38050D03*
X60250Y-38050D03*
X59250Y-38050D03*
X58250Y-38050D03*
X57250Y-38050D03*
X56250Y-38050D03*
X55250Y-38050D03*
X54250Y-38050D03*
X54250Y-41050D03*
X55250Y-41050D03*
X56250Y-41050D03*
X57250Y-41050D03*
X58250Y-41050D03*
X59250Y-41050D03*
X60250Y-41050D03*
X61250Y-41050D03*
X62250Y-41050D03*
G54D17*
X54250Y-45650D03*
G54D18*
X55250Y-45650D03*
X56250Y-45650D03*
X57250Y-45650D03*
X58250Y-45650D03*
X59250Y-45650D03*
X60250Y-45650D03*
X61250Y-45650D03*
X62250Y-45650D03*
X62250Y-42650D03*
X61250Y-42650D03*
X60250Y-42650D03*
X59250Y-42650D03*
X58250Y-42650D03*
X57250Y-42650D03*
X56250Y-42650D03*
X55250Y-42650D03*
X54250Y-42650D03*
G54D17*
X41150Y-44050D03*
G54D18*
X42150Y-44050D03*
X43150Y-44050D03*
X44150Y-44050D03*
X45150Y-44050D03*
X46150Y-44050D03*
X47150Y-44050D03*
X48150Y-44050D03*
X49150Y-44050D03*
X50150Y-44050D03*
X51150Y-44050D03*
X52150Y-44050D03*
X52150Y-38050D03*
X51150Y-38050D03*
X50150Y-38050D03*
X49150Y-38050D03*
X48150Y-38050D03*
X47150Y-38050D03*
X46150Y-38050D03*
X45150Y-38050D03*
X44150Y-38050D03*
X43150Y-38050D03*
X42150Y-38050D03*
X41150Y-38050D03*
G54D19*
X50250Y-48400D03*
G54D20*
X54250Y-48400D03*
G54D17*
X48800Y-46900D03*
G54D18*
X47800Y-46900D03*
X46800Y-46900D03*
X45800Y-46900D03*
X45800Y-49900D03*
X46800Y-49900D03*
X47800Y-49900D03*
X48800Y-49900D03*
G54D14*
X44350Y-46450D03*
X44350Y-50450D03*
X45000Y-51050D03*
X49500Y-51050D03*
G54D15*
X64650Y-50050D03*
G54D14*
X62650Y-50000D03*
G54D15*
X40350Y-46550D03*
G54D14*
X41350Y-46550D03*
G54D21*
X37300Y-51706D03*
G54D22*
X37300Y-52494D03*
G54D15*
X65850Y-35850D03*
G54D14*
X65850Y-34850D03*
X66850Y-35850D03*
X66850Y-34850D03*
X67850Y-35850D03*
X67850Y-34850D03*
X68850Y-35850D03*
X68850Y-34850D03*
G54D15*
X64850Y-34850D03*
G54D14*
X64850Y-35850D03*
X63850Y-34850D03*
X63850Y-35850D03*
X62850Y-34850D03*
X62850Y-35850D03*
X61850Y-34850D03*
X61850Y-35850D03*
G54D15*
X51250Y-34550D03*
G54D14*
X51250Y-35550D03*
X50250Y-34550D03*
X50250Y-35550D03*
X49250Y-34550D03*
X49250Y-35550D03*
X48250Y-34550D03*
X48250Y-35550D03*
X47250Y-34550D03*
X47250Y-35550D03*
G54D15*
X57850Y-34550D03*
G54D14*
X57850Y-35550D03*
X56850Y-34550D03*
X56850Y-35550D03*
X55850Y-34550D03*
X55850Y-35550D03*
X54850Y-34550D03*
X54850Y-35550D03*
X53850Y-34550D03*
X53850Y-35550D03*
X52850Y-34550D03*
X52850Y-35550D03*
G54D23*
X38230Y-33364D03*
X38230Y-35136D03*
X35670Y-33364D03*
X35670Y-35136D03*
G54D15*
X36300Y-51600D03*
G54D14*
X36300Y-52600D03*
G54D15*
X37950Y-44900D03*
G54D14*
X36950Y-44900D03*
X37950Y-43900D03*
X36950Y-43900D03*
X37950Y-42900D03*
X36950Y-42900D03*
X37950Y-41900D03*
X36950Y-41900D03*
X66350Y-39050D03*
X65350Y-39050D03*
X65350Y-40050D03*
X66350Y-40050D03*
G54D15*
X66350Y-47050D03*
G54D14*
X65350Y-47050D03*
X66350Y-46050D03*
X65350Y-46050D03*
X66350Y-45050D03*
X65350Y-45050D03*
X66350Y-44050D03*
X65350Y-44050D03*
X66350Y-43050D03*
X65350Y-43050D03*
X66350Y-42050D03*
X65350Y-42050D03*
X66350Y-41050D03*
X65350Y-41050D03*
G54D22*
X68744Y-46606D03*
X67957Y-46212D03*
X68744Y-45819D03*
X67957Y-45425D03*
X68744Y-45031D03*
X67957Y-44638D03*
X68744Y-44244D03*
X67957Y-43850D03*
X68744Y-43457D03*
X67957Y-43063D03*
X68744Y-42669D03*
X67957Y-42275D03*
X68744Y-41882D03*
X67957Y-41488D03*
X68744Y-41094D03*
X67957Y-40701D03*
G54D15*
X42450Y-35550D03*
G54D14*
X42450Y-36550D03*
X41450Y-35550D03*
X41450Y-36550D03*
X40450Y-35550D03*
X40450Y-36550D03*
G54D22*
X42884Y-48300D03*
X40916Y-48300D03*
G54D15*
X46000Y-52450D03*
G54D14*
X45000Y-52450D03*
M02*
