M48
INCH,TZ
T1C0.025
T2C0.032
T3C0.032
T4C0.040
T5C0.134
%
G90
G05
T1
X49050Y-42850
X50150Y-42450
X50950Y-45250
X51150Y-40150
X64650Y-45150
X68350Y-39400
X69250Y-40050
X69650Y-44950
X69650Y-47550
X70950Y-35050
T2
X37300Y-51706
X37300Y-52494
X40916Y-48300
X42884Y-48300
X67957Y-40701
X67957Y-41488
X67957Y-42275
X67957Y-43063
X67957Y-43850
X67957Y-44638
X67957Y-45425
X67957Y-46212
X68744Y-41094
X68744Y-41882
X68744Y-42669
X68744Y-43457
X68744Y-44244
X68744Y-45031
X68744Y-45819
X68744Y-46606
T3
X36250Y-47500
X36250Y-48500
X36250Y-49500
X39250Y-49500
X40350Y-46550
X41150Y-38050
X41150Y-44050
X41350Y-46550
X42150Y-38050
X42150Y-44050
X42850Y-46100
X42850Y-47100
X43150Y-38050
X43150Y-44050
X44150Y-38050
X44150Y-44050
X44350Y-46450
X44350Y-50450
X45150Y-38050
X45150Y-44050
X45800Y-46900
X45800Y-49900
X46150Y-38050
X46150Y-44050
X46800Y-46900
X46800Y-49900
X47150Y-38050
X47150Y-44050
X47800Y-46900
X47800Y-49900
X48150Y-38050
X48150Y-44050
X48800Y-46900
X48800Y-49900
X49150Y-38050
X49150Y-44050
X50150Y-38050
X50150Y-44050
X50250Y-49550
X50250Y-51050
X51150Y-38050
X51150Y-44050
X52150Y-38050
X52150Y-44050
X54250Y-38050
X54250Y-41050
X54250Y-42650
X54250Y-45650
X54250Y-49550
X54250Y-51050
X55250Y-38050
X55250Y-41050
X55250Y-42650
X55250Y-45650
X56250Y-38050
X56250Y-41050
X56250Y-42650
X56250Y-45650
X57250Y-38050
X57250Y-41050
X57250Y-42650
X57250Y-45650
X58250Y-38050
X58250Y-41050
X58250Y-42650
X58250Y-45650
X59250Y-38050
X59250Y-41050
X59250Y-42650
X59250Y-45650
X60250Y-38050
X60250Y-41050
X60250Y-42650
X60250Y-45650
X61250Y-38050
X61250Y-41050
X61250Y-42650
X61250Y-45650
X62250Y-38050
X62250Y-41050
X62250Y-42650
X62250Y-45650
X62650Y-50000
X64350Y-37950
X64650Y-50050
X67350Y-37950
X70000Y-37250
X70000Y-38250
T4
X35670Y-33364
X35670Y-35136
X36300Y-51600
X36300Y-52600
X36950Y-41900
X36950Y-42900
X36950Y-43900
X36950Y-44900
X37950Y-41900
X37950Y-42900
X37950Y-43900
X37950Y-44900
X38230Y-33364
X38230Y-35136
X40450Y-35550
X40450Y-36550
X41450Y-35550
X41450Y-36550
X42450Y-35550
X42450Y-36550
X44250Y-33450
X45000Y-51050
X45000Y-52450
X45250Y-33450
X46000Y-52450
X46250Y-33450
X47250Y-33450
X47250Y-34550
X47250Y-35550
X47850Y-52450
X48250Y-33450
X48250Y-34550
X48250Y-35550
X48850Y-52450
X49250Y-33450
X49250Y-34550
X49250Y-35550
X49500Y-51050
X49850Y-52450
X50250Y-33450
X50250Y-34550
X50250Y-35550
X50250Y-48400
X50850Y-52450
X51250Y-33450
X51250Y-34550
X51250Y-35550
X51850Y-52450
X52850Y-33450
X52850Y-34550
X52850Y-35550
X52850Y-52450
X53850Y-33450
X53850Y-34550
X53850Y-35550
X54250Y-48400
X54850Y-33450
X54850Y-34550
X54850Y-35550
X54850Y-52450
X55850Y-33450
X55850Y-34550
X55850Y-35550
X55850Y-49250
X55850Y-50250
X55850Y-51250
X55850Y-52450
X56850Y-33450
X56850Y-34550
X56850Y-35550
X56850Y-49250
X56850Y-50250
X56850Y-51250
X56850Y-52450
X57850Y-33450
X57850Y-34550
X57850Y-35550
X57850Y-49250
X57850Y-50250
X57850Y-51250
X57850Y-52450
X58850Y-33450
X58850Y-49250
X58850Y-50250
X58850Y-51250
X58850Y-52450
X59850Y-33450
X59850Y-52450
X60850Y-52450
X61850Y-33450
X61850Y-34850
X61850Y-35850
X61850Y-52450
X62850Y-33450
X62850Y-34850
X62850Y-35850
X63850Y-33450
X63850Y-34850
X63850Y-35850
X63850Y-52450
X64850Y-33450
X64850Y-34850
X64850Y-35850
X64850Y-52450
X65350Y-39050
X65350Y-40050
X65350Y-41050
X65350Y-42050
X65350Y-43050
X65350Y-44050
X65350Y-45050
X65350Y-46050
X65350Y-47050
X65850Y-33450
X65850Y-34850
X65850Y-35850
X65850Y-52450
X66350Y-39050
X66350Y-40050
X66350Y-41050
X66350Y-42050
X66350Y-43050
X66350Y-44050
X66350Y-45050
X66350Y-46050
X66350Y-47050
X66850Y-33450
X66850Y-34850
X66850Y-35850
X66850Y-52450
X67850Y-33450
X67850Y-34850
X67850Y-35850
X67850Y-52450
X68850Y-33450
X68850Y-34850
X68850Y-35850
X68850Y-52450
X69850Y-52450
X70850Y-52450
X71850Y-33450
X71850Y-34450
X71850Y-35450
X71850Y-36450
X71850Y-37450
X71850Y-38450
X71850Y-39450
X71850Y-40450
X71850Y-41450
X71850Y-42450
X71850Y-43450
X71850Y-44450
X71850Y-45450
X71850Y-46450
X71850Y-47450
X71850Y-48450
X71850Y-49450
X71850Y-50450
X72850Y-33450
X72850Y-34450
X72850Y-35450
X72850Y-36450
X72850Y-37450
X72850Y-38450
X72850Y-39450
X72850Y-40450
X72850Y-41450
X72850Y-42450
X72850Y-43450
X72850Y-44450
X72850Y-45450
X72850Y-46450
X72850Y-47450
X72850Y-48450
X72850Y-49450
X72850Y-50450
T5
X40850Y-33450
X60850Y-50450
X70350Y-33450
X72850Y-52450
T0
M30
