G04 (created by PCBNEW-RS274X (2010-12-23 BZR 2684)-stable) date 10/9/2011 1:25:49 PM*
G01*
G70*
G90*
%MOIN*%
G04 Gerber Fmt 3.4, Leading zero omitted, Abs format*
%FSLAX34Y34*%
G04 APERTURE LIST*
%ADD10C,0.006000*%
%ADD11C,0.007500*%
%ADD12C,0.010000*%
%ADD13C,0.008000*%
%ADD14C,0.015000*%
%ADD15C,0.012000*%
%ADD16C,0.005000*%
%ADD17C,0.008800*%
%ADD18C,0.086000*%
%ADD19C,0.075000*%
%ADD20C,0.080000*%
%ADD21R,0.080000X0.080000*%
%ADD22O,0.080000X0.120000*%
%ADD23R,0.082000X0.110000*%
%ADD24O,0.082000X0.110000*%
%ADD25C,0.090000*%
%ADD26R,0.090000X0.090000*%
%ADD27R,0.083000X0.083000*%
%ADD28C,0.083000*%
%ADD29C,0.085000*%
G04 APERTURE END LIST*
G54D10*
G54D11*
X64443Y-39271D02*
X64271Y-39271D01*
X64357Y-39271D02*
X64357Y-38971D01*
X64328Y-39014D01*
X64300Y-39043D01*
X64271Y-39057D01*
X64700Y-38971D02*
X64643Y-38971D01*
X64614Y-38986D01*
X64600Y-39000D01*
X64571Y-39043D01*
X64557Y-39100D01*
X64557Y-39214D01*
X64571Y-39243D01*
X64586Y-39257D01*
X64614Y-39271D01*
X64671Y-39271D01*
X64700Y-39257D01*
X64714Y-39243D01*
X64729Y-39214D01*
X64729Y-39143D01*
X64714Y-39114D01*
X64700Y-39100D01*
X64671Y-39086D01*
X64614Y-39086D01*
X64586Y-39100D01*
X64571Y-39114D01*
X64557Y-39143D01*
X64443Y-40261D02*
X64271Y-40261D01*
X64357Y-40261D02*
X64357Y-39961D01*
X64328Y-40004D01*
X64300Y-40033D01*
X64271Y-40047D01*
X64700Y-40061D02*
X64700Y-40261D01*
X64629Y-39947D02*
X64557Y-40161D01*
X64743Y-40161D01*
X64593Y-41223D02*
X64579Y-41237D01*
X64536Y-41251D01*
X64507Y-41251D01*
X64464Y-41237D01*
X64436Y-41209D01*
X64421Y-41180D01*
X64407Y-41123D01*
X64407Y-41080D01*
X64421Y-41023D01*
X64436Y-40994D01*
X64464Y-40966D01*
X64507Y-40951D01*
X64536Y-40951D01*
X64579Y-40966D01*
X64593Y-40980D01*
X64400Y-41941D02*
X64600Y-41941D01*
X64471Y-42241D01*
X64443Y-43231D02*
X64500Y-43231D01*
X64528Y-43217D01*
X64543Y-43203D01*
X64571Y-43160D01*
X64586Y-43103D01*
X64586Y-42989D01*
X64571Y-42960D01*
X64557Y-42946D01*
X64528Y-42931D01*
X64471Y-42931D01*
X64443Y-42946D01*
X64428Y-42960D01*
X64414Y-42989D01*
X64414Y-43060D01*
X64428Y-43089D01*
X64443Y-43103D01*
X64471Y-43117D01*
X64528Y-43117D01*
X64557Y-43103D01*
X64571Y-43089D01*
X64586Y-43060D01*
X64443Y-44221D02*
X64271Y-44221D01*
X64357Y-44221D02*
X64357Y-43921D01*
X64328Y-43964D01*
X64300Y-43993D01*
X64271Y-44007D01*
X64729Y-44221D02*
X64557Y-44221D01*
X64643Y-44221D02*
X64643Y-43921D01*
X64614Y-43964D01*
X64586Y-43993D01*
X64557Y-44007D01*
X64586Y-45211D02*
X64414Y-45211D01*
X64500Y-45211D02*
X64500Y-44911D01*
X64471Y-44954D01*
X64443Y-44983D01*
X64414Y-44997D01*
X64571Y-45901D02*
X64428Y-45901D01*
X64414Y-46044D01*
X64428Y-46030D01*
X64457Y-46016D01*
X64528Y-46016D01*
X64557Y-46030D01*
X64571Y-46044D01*
X64586Y-46073D01*
X64586Y-46144D01*
X64571Y-46173D01*
X64557Y-46187D01*
X64528Y-46201D01*
X64457Y-46201D01*
X64428Y-46187D01*
X64414Y-46173D01*
X64400Y-46891D02*
X64586Y-46891D01*
X64486Y-47006D01*
X64528Y-47006D01*
X64557Y-47020D01*
X64571Y-47034D01*
X64586Y-47063D01*
X64586Y-47134D01*
X64571Y-47163D01*
X64557Y-47177D01*
X64528Y-47191D01*
X64443Y-47191D01*
X64414Y-47177D01*
X64400Y-47163D01*
X67143Y-39271D02*
X66971Y-39271D01*
X67057Y-39271D02*
X67057Y-38971D01*
X67028Y-39014D01*
X67000Y-39043D01*
X66971Y-39057D01*
X67414Y-38971D02*
X67271Y-38971D01*
X67257Y-39114D01*
X67271Y-39100D01*
X67300Y-39086D01*
X67371Y-39086D01*
X67400Y-39100D01*
X67414Y-39114D01*
X67429Y-39143D01*
X67429Y-39214D01*
X67414Y-39243D01*
X67400Y-39257D01*
X67371Y-39271D01*
X67300Y-39271D01*
X67271Y-39257D01*
X67257Y-39243D01*
X67143Y-40261D02*
X66971Y-40261D01*
X67057Y-40261D02*
X67057Y-39961D01*
X67028Y-40004D01*
X67000Y-40033D01*
X66971Y-40047D01*
X67243Y-39961D02*
X67429Y-39961D01*
X67329Y-40076D01*
X67371Y-40076D01*
X67400Y-40090D01*
X67414Y-40104D01*
X67429Y-40133D01*
X67429Y-40204D01*
X67414Y-40233D01*
X67400Y-40247D01*
X67371Y-40261D01*
X67286Y-40261D01*
X67257Y-40247D01*
X67243Y-40233D01*
X67171Y-41080D02*
X67143Y-41066D01*
X67128Y-41051D01*
X67114Y-41023D01*
X67114Y-41009D01*
X67128Y-40980D01*
X67143Y-40966D01*
X67171Y-40951D01*
X67228Y-40951D01*
X67257Y-40966D01*
X67271Y-40980D01*
X67286Y-41009D01*
X67286Y-41023D01*
X67271Y-41051D01*
X67257Y-41066D01*
X67228Y-41080D01*
X67171Y-41080D01*
X67143Y-41094D01*
X67128Y-41109D01*
X67114Y-41137D01*
X67114Y-41194D01*
X67128Y-41223D01*
X67143Y-41237D01*
X67171Y-41251D01*
X67228Y-41251D01*
X67257Y-41237D01*
X67271Y-41223D01*
X67286Y-41194D01*
X67286Y-41137D01*
X67271Y-41109D01*
X67257Y-41094D01*
X67228Y-41080D01*
X67257Y-41941D02*
X67200Y-41941D01*
X67171Y-41956D01*
X67157Y-41970D01*
X67128Y-42013D01*
X67114Y-42070D01*
X67114Y-42184D01*
X67128Y-42213D01*
X67143Y-42227D01*
X67171Y-42241D01*
X67228Y-42241D01*
X67257Y-42227D01*
X67271Y-42213D01*
X67286Y-42184D01*
X67286Y-42113D01*
X67271Y-42084D01*
X67257Y-42070D01*
X67228Y-42056D01*
X67171Y-42056D01*
X67143Y-42070D01*
X67128Y-42084D01*
X67114Y-42113D01*
X67143Y-43231D02*
X66971Y-43231D01*
X67057Y-43231D02*
X67057Y-42931D01*
X67028Y-42974D01*
X67000Y-43003D01*
X66971Y-43017D01*
X67329Y-42931D02*
X67357Y-42931D01*
X67386Y-42946D01*
X67400Y-42960D01*
X67414Y-42989D01*
X67429Y-43046D01*
X67429Y-43117D01*
X67414Y-43174D01*
X67400Y-43203D01*
X67386Y-43217D01*
X67357Y-43231D01*
X67329Y-43231D01*
X67300Y-43217D01*
X67286Y-43203D01*
X67271Y-43174D01*
X67257Y-43117D01*
X67257Y-43046D01*
X67271Y-42989D01*
X67286Y-42960D01*
X67300Y-42946D01*
X67329Y-42931D01*
X67143Y-44221D02*
X66971Y-44221D01*
X67057Y-44221D02*
X67057Y-43921D01*
X67028Y-43964D01*
X67000Y-43993D01*
X66971Y-44007D01*
X67257Y-43950D02*
X67271Y-43936D01*
X67300Y-43921D01*
X67371Y-43921D01*
X67400Y-43936D01*
X67414Y-43950D01*
X67429Y-43979D01*
X67429Y-44007D01*
X67414Y-44050D01*
X67243Y-44221D01*
X67429Y-44221D01*
X67114Y-44940D02*
X67128Y-44926D01*
X67157Y-44911D01*
X67228Y-44911D01*
X67257Y-44926D01*
X67271Y-44940D01*
X67286Y-44969D01*
X67286Y-44997D01*
X67271Y-45040D01*
X67100Y-45211D01*
X67286Y-45211D01*
X67257Y-46001D02*
X67257Y-46201D01*
X67186Y-45887D02*
X67114Y-46101D01*
X67300Y-46101D01*
X67293Y-47163D02*
X67279Y-47177D01*
X67236Y-47191D01*
X67207Y-47191D01*
X67164Y-47177D01*
X67136Y-47149D01*
X67121Y-47120D01*
X67107Y-47063D01*
X67107Y-47020D01*
X67121Y-46963D01*
X67136Y-46934D01*
X67164Y-46906D01*
X67207Y-46891D01*
X67236Y-46891D01*
X67279Y-46906D01*
X67293Y-46920D01*
G54D12*
X42300Y-34850D02*
X42300Y-35050D01*
X40600Y-34850D02*
X42300Y-34850D01*
X40600Y-35050D02*
X40600Y-34850D01*
G54D13*
X38048Y-51760D02*
X38353Y-51760D01*
X38201Y-51912D02*
X38201Y-51607D01*
X38048Y-52400D02*
X38353Y-52400D01*
X35822Y-50814D02*
X35802Y-50795D01*
X35764Y-50738D01*
X35745Y-50700D01*
X35726Y-50643D01*
X35707Y-50548D01*
X35707Y-50471D01*
X35726Y-50376D01*
X35745Y-50319D01*
X35764Y-50281D01*
X35802Y-50224D01*
X35822Y-50205D01*
X35993Y-50662D02*
X36069Y-50662D01*
X36108Y-50643D01*
X36127Y-50624D01*
X36165Y-50567D01*
X36184Y-50490D01*
X36184Y-50338D01*
X36165Y-50300D01*
X36146Y-50281D01*
X36108Y-50262D01*
X36031Y-50262D01*
X35993Y-50281D01*
X35974Y-50300D01*
X35955Y-50338D01*
X35955Y-50433D01*
X35974Y-50471D01*
X35993Y-50490D01*
X36031Y-50510D01*
X36108Y-50510D01*
X36146Y-50490D01*
X36165Y-50471D01*
X36184Y-50433D01*
X36355Y-50510D02*
X36660Y-50510D01*
X37060Y-50662D02*
X36831Y-50662D01*
X36945Y-50662D02*
X36945Y-50262D01*
X36907Y-50319D01*
X36869Y-50357D01*
X36831Y-50376D01*
X37212Y-50300D02*
X37231Y-50281D01*
X37269Y-50262D01*
X37365Y-50262D01*
X37403Y-50281D01*
X37422Y-50300D01*
X37441Y-50338D01*
X37441Y-50376D01*
X37422Y-50433D01*
X37193Y-50662D01*
X37441Y-50662D01*
X37574Y-50395D02*
X37669Y-50662D01*
X37765Y-50395D01*
X37879Y-50814D02*
X37898Y-50795D01*
X37936Y-50738D01*
X37955Y-50700D01*
X37974Y-50643D01*
X37993Y-50548D01*
X37993Y-50471D01*
X37974Y-50376D01*
X37955Y-50319D01*
X37936Y-50281D01*
X37898Y-50224D01*
X37879Y-50205D01*
G54D12*
X60850Y-36500D02*
X60850Y-37450D01*
X60850Y-35600D02*
X60850Y-32950D01*
X67050Y-47750D02*
X67050Y-47550D01*
X67050Y-47750D02*
X66850Y-47750D01*
X38650Y-45550D02*
X38450Y-45550D01*
X38650Y-45550D02*
X38650Y-45350D01*
X43150Y-34850D02*
X43150Y-35050D01*
X42950Y-34850D02*
X43150Y-34850D01*
G54D11*
X38871Y-42071D02*
X38871Y-41771D01*
X38943Y-41771D01*
X38986Y-41786D01*
X39014Y-41814D01*
X39029Y-41843D01*
X39043Y-41900D01*
X39043Y-41943D01*
X39029Y-42000D01*
X39014Y-42029D01*
X38986Y-42057D01*
X38943Y-42071D01*
X38871Y-42071D01*
X39043Y-43033D02*
X39029Y-43047D01*
X38986Y-43061D01*
X38957Y-43061D01*
X38914Y-43047D01*
X38886Y-43019D01*
X38871Y-42990D01*
X38857Y-42933D01*
X38857Y-42890D01*
X38871Y-42833D01*
X38886Y-42804D01*
X38914Y-42776D01*
X38957Y-42761D01*
X38986Y-42761D01*
X39029Y-42776D01*
X39043Y-42790D01*
X38971Y-43894D02*
X39014Y-43909D01*
X39029Y-43923D01*
X39043Y-43951D01*
X39043Y-43994D01*
X39029Y-44023D01*
X39014Y-44037D01*
X38986Y-44051D01*
X38871Y-44051D01*
X38871Y-43751D01*
X38971Y-43751D01*
X39000Y-43766D01*
X39014Y-43780D01*
X39029Y-43809D01*
X39029Y-43837D01*
X39014Y-43866D01*
X39000Y-43880D01*
X38971Y-43894D01*
X38871Y-43894D01*
X38879Y-44956D02*
X39022Y-44956D01*
X38851Y-45041D02*
X38951Y-44741D01*
X39051Y-45041D01*
X35593Y-41957D02*
X35822Y-41957D01*
X35708Y-42071D02*
X35708Y-41843D01*
X36107Y-41771D02*
X35964Y-41771D01*
X35950Y-41914D01*
X35964Y-41900D01*
X35993Y-41886D01*
X36064Y-41886D01*
X36093Y-41900D01*
X36107Y-41914D01*
X36122Y-41943D01*
X36122Y-42014D01*
X36107Y-42043D01*
X36093Y-42057D01*
X36064Y-42071D01*
X35993Y-42071D01*
X35964Y-42057D01*
X35950Y-42043D01*
X35450Y-42947D02*
X35679Y-42947D01*
X35565Y-43061D02*
X35565Y-42833D01*
X35979Y-43061D02*
X35807Y-43061D01*
X35893Y-43061D02*
X35893Y-42761D01*
X35864Y-42804D01*
X35836Y-42833D01*
X35807Y-42847D01*
X36093Y-42790D02*
X36107Y-42776D01*
X36136Y-42761D01*
X36207Y-42761D01*
X36236Y-42776D01*
X36250Y-42790D01*
X36265Y-42819D01*
X36265Y-42847D01*
X36250Y-42890D01*
X36079Y-43061D01*
X36265Y-43061D01*
X35622Y-43766D02*
X35593Y-43751D01*
X35550Y-43751D01*
X35507Y-43766D01*
X35479Y-43794D01*
X35464Y-43823D01*
X35450Y-43880D01*
X35450Y-43923D01*
X35464Y-43980D01*
X35479Y-44009D01*
X35507Y-44037D01*
X35550Y-44051D01*
X35579Y-44051D01*
X35622Y-44037D01*
X35636Y-44023D01*
X35636Y-43923D01*
X35579Y-43923D01*
X35764Y-44051D02*
X35764Y-43751D01*
X35936Y-44051D01*
X35936Y-43751D01*
X36078Y-44051D02*
X36078Y-43751D01*
X36150Y-43751D01*
X36193Y-43766D01*
X36221Y-43794D01*
X36236Y-43823D01*
X36250Y-43880D01*
X36250Y-43923D01*
X36236Y-43980D01*
X36221Y-44009D01*
X36193Y-44037D01*
X36150Y-44051D01*
X36078Y-44051D01*
X35350Y-45041D02*
X35350Y-44741D01*
X35465Y-44741D01*
X35493Y-44756D01*
X35508Y-44770D01*
X35522Y-44799D01*
X35522Y-44841D01*
X35508Y-44870D01*
X35493Y-44884D01*
X35465Y-44899D01*
X35350Y-44899D01*
X35650Y-44741D02*
X35650Y-44984D01*
X35665Y-45013D01*
X35679Y-45027D01*
X35708Y-45041D01*
X35765Y-45041D01*
X35793Y-45027D01*
X35808Y-45013D01*
X35822Y-44984D01*
X35822Y-44741D01*
X36107Y-45041D02*
X35964Y-45041D01*
X35964Y-44741D01*
X36193Y-45027D02*
X36236Y-45041D01*
X36307Y-45041D01*
X36336Y-45027D01*
X36350Y-45013D01*
X36365Y-44984D01*
X36365Y-44956D01*
X36350Y-44927D01*
X36336Y-44913D01*
X36307Y-44899D01*
X36250Y-44884D01*
X36222Y-44870D01*
X36207Y-44856D01*
X36193Y-44827D01*
X36193Y-44799D01*
X36207Y-44770D01*
X36222Y-44756D01*
X36250Y-44741D01*
X36322Y-44741D01*
X36365Y-44756D01*
G54D12*
X69350Y-37250D02*
X68450Y-37250D01*
X69350Y-36550D02*
X69350Y-37250D01*
X65350Y-37250D02*
X66350Y-37250D01*
X65350Y-37250D02*
X65350Y-36550D01*
X64050Y-37250D02*
X65350Y-37250D01*
X61350Y-37250D02*
X62250Y-37250D01*
X61350Y-36550D02*
X61350Y-37250D01*
X46750Y-37050D02*
X46750Y-36250D01*
X51050Y-37050D02*
X46750Y-37050D01*
X58350Y-37050D02*
X53050Y-37050D01*
X58350Y-36250D02*
X58350Y-37050D01*
X61850Y-51450D02*
X61850Y-48550D01*
X59098Y-47821D02*
X59098Y-48012D01*
X58965Y-47612D02*
X59098Y-47821D01*
X59232Y-47612D01*
X59441Y-47612D02*
X59518Y-47612D01*
X59556Y-47631D01*
X59594Y-47669D01*
X59613Y-47745D01*
X59613Y-47879D01*
X59594Y-47955D01*
X59556Y-47993D01*
X59518Y-48012D01*
X59441Y-48012D01*
X59403Y-47993D01*
X59365Y-47955D01*
X59346Y-47879D01*
X59346Y-47745D01*
X59365Y-47669D01*
X59403Y-47631D01*
X59441Y-47612D01*
X59784Y-47612D02*
X59784Y-47936D01*
X59803Y-47974D01*
X59822Y-47993D01*
X59860Y-48012D01*
X59937Y-48012D01*
X59975Y-47993D01*
X59994Y-47974D01*
X60013Y-47936D01*
X60013Y-47612D01*
X60432Y-48012D02*
X60298Y-47821D01*
X60203Y-48012D02*
X60203Y-47612D01*
X60356Y-47612D01*
X60394Y-47631D01*
X60413Y-47650D01*
X60432Y-47688D01*
X60432Y-47745D01*
X60413Y-47783D01*
X60394Y-47802D01*
X60356Y-47821D01*
X60203Y-47821D01*
X60889Y-47898D02*
X61080Y-47898D01*
X60851Y-48012D02*
X60984Y-47612D01*
X61118Y-48012D01*
X61480Y-48012D02*
X61346Y-47821D01*
X61251Y-48012D02*
X61251Y-47612D01*
X61404Y-47612D01*
X61442Y-47631D01*
X61461Y-47650D01*
X61480Y-47688D01*
X61480Y-47745D01*
X61461Y-47783D01*
X61442Y-47802D01*
X61404Y-47821D01*
X61251Y-47821D01*
X61651Y-48012D02*
X61651Y-47612D01*
X61746Y-47612D01*
X61804Y-47631D01*
X61842Y-47669D01*
X61861Y-47707D01*
X61880Y-47783D01*
X61880Y-47840D01*
X61861Y-47917D01*
X61842Y-47955D01*
X61804Y-47993D01*
X61746Y-48012D01*
X61651Y-48012D01*
X62051Y-47612D02*
X62051Y-47936D01*
X62070Y-47974D01*
X62089Y-47993D01*
X62127Y-48012D01*
X62204Y-48012D01*
X62242Y-47993D01*
X62261Y-47974D01*
X62280Y-47936D01*
X62280Y-47612D01*
X62470Y-48012D02*
X62470Y-47612D01*
X62660Y-48012D02*
X62660Y-47612D01*
X62889Y-48012D01*
X62889Y-47612D01*
X63155Y-47612D02*
X63232Y-47612D01*
X63270Y-47631D01*
X63308Y-47669D01*
X63327Y-47745D01*
X63327Y-47879D01*
X63308Y-47955D01*
X63270Y-47993D01*
X63232Y-48012D01*
X63155Y-48012D01*
X63117Y-47993D01*
X63079Y-47955D01*
X63060Y-47879D01*
X63060Y-47745D01*
X63079Y-47669D01*
X63117Y-47631D01*
X63155Y-47612D01*
X63498Y-47974D02*
X63517Y-47993D01*
X63498Y-48012D01*
X63479Y-47993D01*
X63498Y-47974D01*
X63498Y-48012D01*
X63498Y-47860D02*
X63479Y-47631D01*
X63498Y-47612D01*
X63517Y-47631D01*
X63498Y-47860D01*
X63498Y-47612D01*
X63688Y-47974D02*
X63707Y-47993D01*
X63688Y-48012D01*
X63669Y-47993D01*
X63688Y-47974D01*
X63688Y-48012D01*
X63688Y-47860D02*
X63669Y-47631D01*
X63688Y-47612D01*
X63707Y-47631D01*
X63688Y-47860D01*
X63688Y-47612D01*
X63878Y-47974D02*
X63897Y-47993D01*
X63878Y-48012D01*
X63859Y-47993D01*
X63878Y-47974D01*
X63878Y-48012D01*
X63878Y-47860D02*
X63859Y-47631D01*
X63878Y-47612D01*
X63897Y-47631D01*
X63878Y-47860D01*
X63878Y-47612D01*
X53607Y-47412D02*
X53607Y-47012D01*
X53760Y-47012D01*
X53798Y-47031D01*
X53817Y-47050D01*
X53836Y-47088D01*
X53836Y-47145D01*
X53817Y-47183D01*
X53798Y-47202D01*
X53760Y-47221D01*
X53607Y-47221D01*
X54007Y-47412D02*
X54007Y-47012D01*
X54197Y-47412D02*
X54197Y-47012D01*
X54426Y-47412D01*
X54426Y-47012D01*
X54597Y-47393D02*
X54654Y-47412D01*
X54750Y-47412D01*
X54788Y-47393D01*
X54807Y-47374D01*
X54826Y-47336D01*
X54826Y-47298D01*
X54807Y-47260D01*
X54788Y-47240D01*
X54750Y-47221D01*
X54673Y-47202D01*
X54635Y-47183D01*
X54616Y-47164D01*
X54597Y-47126D01*
X54597Y-47088D01*
X54616Y-47050D01*
X54635Y-47031D01*
X54673Y-47012D01*
X54769Y-47012D01*
X54826Y-47031D01*
X55378Y-47012D02*
X55455Y-47012D01*
X55493Y-47031D01*
X55531Y-47069D01*
X55550Y-47145D01*
X55550Y-47279D01*
X55531Y-47355D01*
X55493Y-47393D01*
X55455Y-47412D01*
X55378Y-47412D01*
X55340Y-47393D01*
X55302Y-47355D01*
X55283Y-47279D01*
X55283Y-47145D01*
X55302Y-47069D01*
X55340Y-47031D01*
X55378Y-47012D01*
X55721Y-47412D02*
X55721Y-47012D01*
X55950Y-47412D01*
X55950Y-47012D01*
X56521Y-47012D02*
X56598Y-47012D01*
X56636Y-47031D01*
X56674Y-47069D01*
X56693Y-47145D01*
X56693Y-47279D01*
X56674Y-47355D01*
X56636Y-47393D01*
X56598Y-47412D01*
X56521Y-47412D01*
X56483Y-47393D01*
X56445Y-47355D01*
X56426Y-47279D01*
X56426Y-47145D01*
X56445Y-47069D01*
X56483Y-47031D01*
X56521Y-47012D01*
X56864Y-47412D02*
X56864Y-47012D01*
X57093Y-47412D01*
X57093Y-47012D01*
X57283Y-47202D02*
X57417Y-47202D01*
X57474Y-47412D02*
X57283Y-47412D01*
X57283Y-47012D01*
X57474Y-47012D01*
X57931Y-47393D02*
X57988Y-47412D01*
X58084Y-47412D01*
X58122Y-47393D01*
X58141Y-47374D01*
X58160Y-47336D01*
X58160Y-47298D01*
X58141Y-47260D01*
X58122Y-47240D01*
X58084Y-47221D01*
X58007Y-47202D01*
X57969Y-47183D01*
X57950Y-47164D01*
X57931Y-47126D01*
X57931Y-47088D01*
X57950Y-47050D01*
X57969Y-47031D01*
X58007Y-47012D01*
X58103Y-47012D01*
X58160Y-47031D01*
X58331Y-47412D02*
X58331Y-47012D01*
X58331Y-47202D02*
X58560Y-47202D01*
X58560Y-47412D02*
X58560Y-47012D01*
X58750Y-47412D02*
X58750Y-47012D01*
X58940Y-47202D02*
X59074Y-47202D01*
X59131Y-47412D02*
X58940Y-47412D01*
X58940Y-47012D01*
X59131Y-47012D01*
X59493Y-47412D02*
X59302Y-47412D01*
X59302Y-47012D01*
X59626Y-47412D02*
X59626Y-47012D01*
X59721Y-47012D01*
X59779Y-47031D01*
X59817Y-47069D01*
X59836Y-47107D01*
X59855Y-47183D01*
X59855Y-47240D01*
X59836Y-47317D01*
X59817Y-47355D01*
X59779Y-47393D01*
X59721Y-47412D01*
X59626Y-47412D01*
X60331Y-47412D02*
X60331Y-47012D01*
X60465Y-47298D01*
X60598Y-47012D01*
X60598Y-47412D01*
X60769Y-47298D02*
X60960Y-47298D01*
X60731Y-47412D02*
X60864Y-47012D01*
X60998Y-47412D01*
X61207Y-47221D02*
X61207Y-47412D01*
X61074Y-47012D02*
X61207Y-47221D01*
X61341Y-47012D01*
X61779Y-47412D02*
X61779Y-47012D01*
X61874Y-47012D01*
X61932Y-47031D01*
X61970Y-47069D01*
X61989Y-47107D01*
X62008Y-47183D01*
X62008Y-47240D01*
X61989Y-47317D01*
X61970Y-47355D01*
X61932Y-47393D01*
X61874Y-47412D01*
X61779Y-47412D01*
X62160Y-47298D02*
X62351Y-47298D01*
X62122Y-47412D02*
X62255Y-47012D01*
X62389Y-47412D01*
X62522Y-47412D02*
X62522Y-47012D01*
X62656Y-47298D01*
X62789Y-47012D01*
X62789Y-47412D01*
X62960Y-47298D02*
X63151Y-47298D01*
X62922Y-47412D02*
X63055Y-47012D01*
X63189Y-47412D01*
X63532Y-47031D02*
X63494Y-47012D01*
X63437Y-47012D01*
X63379Y-47031D01*
X63341Y-47069D01*
X63322Y-47107D01*
X63303Y-47183D01*
X63303Y-47240D01*
X63322Y-47317D01*
X63341Y-47355D01*
X63379Y-47393D01*
X63437Y-47412D01*
X63475Y-47412D01*
X63532Y-47393D01*
X63551Y-47374D01*
X63551Y-47240D01*
X63475Y-47240D01*
X63722Y-47202D02*
X63856Y-47202D01*
X63913Y-47412D02*
X63722Y-47412D01*
X63722Y-47012D01*
X63913Y-47012D01*
X50393Y-46724D02*
X50374Y-46743D01*
X50317Y-46762D01*
X50279Y-46762D01*
X50221Y-46743D01*
X50183Y-46705D01*
X50164Y-46667D01*
X50145Y-46590D01*
X50145Y-46533D01*
X50164Y-46457D01*
X50183Y-46419D01*
X50221Y-46381D01*
X50279Y-46362D01*
X50317Y-46362D01*
X50374Y-46381D01*
X50393Y-46400D01*
X50545Y-46648D02*
X50736Y-46648D01*
X50507Y-46762D02*
X50640Y-46362D01*
X50774Y-46762D01*
X50907Y-46362D02*
X50907Y-46686D01*
X50926Y-46724D01*
X50945Y-46743D01*
X50983Y-46762D01*
X51060Y-46762D01*
X51098Y-46743D01*
X51117Y-46724D01*
X51136Y-46686D01*
X51136Y-46362D01*
X51269Y-46362D02*
X51498Y-46362D01*
X51383Y-46762D02*
X51383Y-46362D01*
X51631Y-46762D02*
X51631Y-46362D01*
X51897Y-46362D02*
X51974Y-46362D01*
X52012Y-46381D01*
X52050Y-46419D01*
X52069Y-46495D01*
X52069Y-46629D01*
X52050Y-46705D01*
X52012Y-46743D01*
X51974Y-46762D01*
X51897Y-46762D01*
X51859Y-46743D01*
X51821Y-46705D01*
X51802Y-46629D01*
X51802Y-46495D01*
X51821Y-46419D01*
X51859Y-46381D01*
X51897Y-46362D01*
X52240Y-46762D02*
X52240Y-46362D01*
X52469Y-46762D01*
X52469Y-46362D01*
X52659Y-46724D02*
X52678Y-46743D01*
X52659Y-46762D01*
X52640Y-46743D01*
X52659Y-46724D01*
X52659Y-46762D01*
X52659Y-46514D02*
X52678Y-46533D01*
X52659Y-46552D01*
X52640Y-46533D01*
X52659Y-46514D01*
X52659Y-46552D01*
X53383Y-46724D02*
X53364Y-46743D01*
X53307Y-46762D01*
X53269Y-46762D01*
X53211Y-46743D01*
X53173Y-46705D01*
X53154Y-46667D01*
X53135Y-46590D01*
X53135Y-46533D01*
X53154Y-46457D01*
X53173Y-46419D01*
X53211Y-46381D01*
X53269Y-46362D01*
X53307Y-46362D01*
X53364Y-46381D01*
X53383Y-46400D01*
X53630Y-46362D02*
X53707Y-46362D01*
X53745Y-46381D01*
X53783Y-46419D01*
X53802Y-46495D01*
X53802Y-46629D01*
X53783Y-46705D01*
X53745Y-46743D01*
X53707Y-46762D01*
X53630Y-46762D01*
X53592Y-46743D01*
X53554Y-46705D01*
X53535Y-46629D01*
X53535Y-46495D01*
X53554Y-46419D01*
X53592Y-46381D01*
X53630Y-46362D01*
X53973Y-46762D02*
X53973Y-46362D01*
X54202Y-46762D01*
X54202Y-46362D01*
X54392Y-46762D02*
X54392Y-46362D01*
X54621Y-46762D01*
X54621Y-46362D01*
X54811Y-46552D02*
X54945Y-46552D01*
X55002Y-46762D02*
X54811Y-46762D01*
X54811Y-46362D01*
X55002Y-46362D01*
X55402Y-46724D02*
X55383Y-46743D01*
X55326Y-46762D01*
X55288Y-46762D01*
X55230Y-46743D01*
X55192Y-46705D01*
X55173Y-46667D01*
X55154Y-46590D01*
X55154Y-46533D01*
X55173Y-46457D01*
X55192Y-46419D01*
X55230Y-46381D01*
X55288Y-46362D01*
X55326Y-46362D01*
X55383Y-46381D01*
X55402Y-46400D01*
X55516Y-46362D02*
X55745Y-46362D01*
X55630Y-46762D02*
X55630Y-46362D01*
X55878Y-46762D02*
X55878Y-46362D01*
X56068Y-46762D02*
X56068Y-46362D01*
X56297Y-46762D01*
X56297Y-46362D01*
X56697Y-46381D02*
X56659Y-46362D01*
X56602Y-46362D01*
X56544Y-46381D01*
X56506Y-46419D01*
X56487Y-46457D01*
X56468Y-46533D01*
X56468Y-46590D01*
X56487Y-46667D01*
X56506Y-46705D01*
X56544Y-46743D01*
X56602Y-46762D01*
X56640Y-46762D01*
X56697Y-46743D01*
X56716Y-46724D01*
X56716Y-46590D01*
X56640Y-46590D01*
X57192Y-46762D02*
X57192Y-46362D01*
X57326Y-46648D01*
X57459Y-46362D01*
X57459Y-46762D01*
X57649Y-46362D02*
X57649Y-46686D01*
X57668Y-46724D01*
X57687Y-46743D01*
X57725Y-46762D01*
X57802Y-46762D01*
X57840Y-46743D01*
X57859Y-46724D01*
X57878Y-46686D01*
X57878Y-46362D01*
X58259Y-46762D02*
X58068Y-46762D01*
X58068Y-46362D01*
X58335Y-46362D02*
X58564Y-46362D01*
X58449Y-46762D02*
X58449Y-46362D01*
X58697Y-46762D02*
X58697Y-46362D01*
X58887Y-46762D02*
X58887Y-46362D01*
X59040Y-46362D01*
X59078Y-46381D01*
X59097Y-46400D01*
X59116Y-46438D01*
X59116Y-46495D01*
X59097Y-46533D01*
X59078Y-46552D01*
X59040Y-46571D01*
X58887Y-46571D01*
X59478Y-46762D02*
X59287Y-46762D01*
X59287Y-46362D01*
X59611Y-46552D02*
X59745Y-46552D01*
X59802Y-46762D02*
X59611Y-46762D01*
X59611Y-46362D01*
X59802Y-46362D01*
X60278Y-46762D02*
X60278Y-46362D01*
X60431Y-46362D01*
X60469Y-46381D01*
X60488Y-46400D01*
X60507Y-46438D01*
X60507Y-46495D01*
X60488Y-46533D01*
X60469Y-46552D01*
X60431Y-46571D01*
X60278Y-46571D01*
X60678Y-46362D02*
X60678Y-46686D01*
X60697Y-46724D01*
X60716Y-46743D01*
X60754Y-46762D01*
X60831Y-46762D01*
X60869Y-46743D01*
X60888Y-46724D01*
X60907Y-46686D01*
X60907Y-46362D01*
X61288Y-46762D02*
X61097Y-46762D01*
X61097Y-46362D01*
X61402Y-46743D02*
X61459Y-46762D01*
X61555Y-46762D01*
X61593Y-46743D01*
X61612Y-46724D01*
X61631Y-46686D01*
X61631Y-46648D01*
X61612Y-46610D01*
X61593Y-46590D01*
X61555Y-46571D01*
X61478Y-46552D01*
X61440Y-46533D01*
X61421Y-46514D01*
X61402Y-46476D01*
X61402Y-46438D01*
X61421Y-46400D01*
X61440Y-46381D01*
X61478Y-46362D01*
X61574Y-46362D01*
X61631Y-46381D01*
X61802Y-46552D02*
X61936Y-46552D01*
X61993Y-46762D02*
X61802Y-46762D01*
X61802Y-46362D01*
X61993Y-46362D01*
X62450Y-46343D02*
X62107Y-46857D01*
X62564Y-46648D02*
X62755Y-46648D01*
X62526Y-46762D02*
X62659Y-46362D01*
X62793Y-46762D01*
X63060Y-46552D02*
X63117Y-46571D01*
X63136Y-46590D01*
X63155Y-46629D01*
X63155Y-46686D01*
X63136Y-46724D01*
X63117Y-46743D01*
X63079Y-46762D01*
X62926Y-46762D01*
X62926Y-46362D01*
X63060Y-46362D01*
X63098Y-46381D01*
X63117Y-46400D01*
X63136Y-46438D01*
X63136Y-46476D01*
X63117Y-46514D01*
X63098Y-46533D01*
X63060Y-46552D01*
X62926Y-46552D01*
X63555Y-46724D02*
X63536Y-46743D01*
X63479Y-46762D01*
X63441Y-46762D01*
X63383Y-46743D01*
X63345Y-46705D01*
X63326Y-46667D01*
X63307Y-46590D01*
X63307Y-46533D01*
X63326Y-46457D01*
X63345Y-46419D01*
X63383Y-46381D01*
X63441Y-46362D01*
X63479Y-46362D01*
X63536Y-46381D01*
X63555Y-46400D01*
X63726Y-46762D02*
X63726Y-46362D01*
X63821Y-46362D01*
X63879Y-46381D01*
X63917Y-46419D01*
X63936Y-46457D01*
X63955Y-46533D01*
X63955Y-46590D01*
X63936Y-46667D01*
X63917Y-46705D01*
X63879Y-46743D01*
X63821Y-46762D01*
X63726Y-46762D01*
X59350Y-48550D02*
X59350Y-48350D01*
X55350Y-48350D02*
X55350Y-48550D01*
X55350Y-48350D02*
X56450Y-48350D01*
X59350Y-48350D02*
X58250Y-48350D01*
X60850Y-52450D02*
X60850Y-53450D01*
X61850Y-51450D02*
X60850Y-52450D01*
X60350Y-32450D02*
X60850Y-32950D01*
G54D11*
X59798Y-50021D02*
X59798Y-49878D01*
X59912Y-50049D02*
X59512Y-49949D01*
X59912Y-49849D01*
X59550Y-49764D02*
X59531Y-49750D01*
X59512Y-49721D01*
X59512Y-49650D01*
X59531Y-49621D01*
X59550Y-49607D01*
X59588Y-49592D01*
X59626Y-49592D01*
X59683Y-49607D01*
X59912Y-49778D01*
X59912Y-49592D01*
X59760Y-49464D02*
X59760Y-49235D01*
X59798Y-49107D02*
X59798Y-48964D01*
X59912Y-49135D02*
X59512Y-49035D01*
X59912Y-48935D01*
X59512Y-48693D02*
X59512Y-48836D01*
X59702Y-48850D01*
X59683Y-48836D01*
X59664Y-48807D01*
X59664Y-48736D01*
X59683Y-48707D01*
X59702Y-48693D01*
X59740Y-48678D01*
X59836Y-48678D01*
X59874Y-48693D01*
X59893Y-48707D01*
X59912Y-48736D01*
X59912Y-48807D01*
X59893Y-48836D01*
X59874Y-48850D01*
X59798Y-51721D02*
X59798Y-51578D01*
X59912Y-51749D02*
X59512Y-51649D01*
X59912Y-51549D01*
X59512Y-51392D02*
X59512Y-51364D01*
X59531Y-51335D01*
X59550Y-51321D01*
X59588Y-51307D01*
X59664Y-51292D01*
X59760Y-51292D01*
X59836Y-51307D01*
X59874Y-51321D01*
X59893Y-51335D01*
X59912Y-51364D01*
X59912Y-51392D01*
X59893Y-51421D01*
X59874Y-51435D01*
X59836Y-51450D01*
X59760Y-51464D01*
X59664Y-51464D01*
X59588Y-51450D01*
X59550Y-51435D01*
X59531Y-51421D01*
X59512Y-51392D01*
X59760Y-51164D02*
X59760Y-50935D01*
X59798Y-50807D02*
X59798Y-50664D01*
X59912Y-50835D02*
X59512Y-50735D01*
X59912Y-50635D01*
X59512Y-50564D02*
X59512Y-50378D01*
X59664Y-50478D01*
X59664Y-50436D01*
X59683Y-50407D01*
X59702Y-50393D01*
X59740Y-50378D01*
X59836Y-50378D01*
X59874Y-50393D01*
X59893Y-50407D01*
X59912Y-50436D01*
X59912Y-50521D01*
X59893Y-50550D01*
X59874Y-50564D01*
G54D12*
X59350Y-50250D02*
X60050Y-50250D01*
G54D13*
X56655Y-48398D02*
X56846Y-48398D01*
X56617Y-48512D02*
X56750Y-48112D01*
X56884Y-48512D01*
X57151Y-48302D02*
X57208Y-48321D01*
X57227Y-48340D01*
X57246Y-48379D01*
X57246Y-48436D01*
X57227Y-48474D01*
X57208Y-48493D01*
X57170Y-48512D01*
X57017Y-48512D01*
X57017Y-48112D01*
X57151Y-48112D01*
X57189Y-48131D01*
X57208Y-48150D01*
X57227Y-48188D01*
X57227Y-48226D01*
X57208Y-48264D01*
X57189Y-48283D01*
X57151Y-48302D01*
X57017Y-48302D01*
X57646Y-48474D02*
X57627Y-48493D01*
X57570Y-48512D01*
X57532Y-48512D01*
X57474Y-48493D01*
X57436Y-48455D01*
X57417Y-48417D01*
X57398Y-48340D01*
X57398Y-48283D01*
X57417Y-48207D01*
X57436Y-48169D01*
X57474Y-48131D01*
X57532Y-48112D01*
X57570Y-48112D01*
X57627Y-48131D01*
X57646Y-48150D01*
X57817Y-48512D02*
X57817Y-48112D01*
X57912Y-48112D01*
X57970Y-48131D01*
X58008Y-48169D01*
X58027Y-48207D01*
X58046Y-48283D01*
X58046Y-48340D01*
X58027Y-48417D01*
X58008Y-48455D01*
X57970Y-48493D01*
X57912Y-48512D01*
X57817Y-48512D01*
X62455Y-37298D02*
X62646Y-37298D01*
X62417Y-37412D02*
X62550Y-37012D01*
X62684Y-37412D01*
X62951Y-37202D02*
X63008Y-37221D01*
X63027Y-37240D01*
X63046Y-37279D01*
X63046Y-37336D01*
X63027Y-37374D01*
X63008Y-37393D01*
X62970Y-37412D01*
X62817Y-37412D01*
X62817Y-37012D01*
X62951Y-37012D01*
X62989Y-37031D01*
X63008Y-37050D01*
X63027Y-37088D01*
X63027Y-37126D01*
X63008Y-37164D01*
X62989Y-37183D01*
X62951Y-37202D01*
X62817Y-37202D01*
X63446Y-37374D02*
X63427Y-37393D01*
X63370Y-37412D01*
X63332Y-37412D01*
X63274Y-37393D01*
X63236Y-37355D01*
X63217Y-37317D01*
X63198Y-37240D01*
X63198Y-37183D01*
X63217Y-37107D01*
X63236Y-37069D01*
X63274Y-37031D01*
X63332Y-37012D01*
X63370Y-37012D01*
X63427Y-37031D01*
X63446Y-37050D01*
X63617Y-37412D02*
X63617Y-37012D01*
X63712Y-37012D01*
X63770Y-37031D01*
X63808Y-37069D01*
X63827Y-37107D01*
X63846Y-37183D01*
X63846Y-37240D01*
X63827Y-37317D01*
X63808Y-37355D01*
X63770Y-37393D01*
X63712Y-37412D01*
X63617Y-37412D01*
X62317Y-36550D02*
X62336Y-36531D01*
X62374Y-36512D01*
X62470Y-36512D01*
X62508Y-36531D01*
X62527Y-36550D01*
X62546Y-36588D01*
X62546Y-36626D01*
X62527Y-36683D01*
X62298Y-36912D01*
X62546Y-36912D01*
X62698Y-36550D02*
X62717Y-36531D01*
X62755Y-36512D01*
X62851Y-36512D01*
X62889Y-36531D01*
X62908Y-36550D01*
X62927Y-36588D01*
X62927Y-36626D01*
X62908Y-36683D01*
X62679Y-36912D01*
X62927Y-36912D01*
X63098Y-36760D02*
X63403Y-36760D01*
X63574Y-36550D02*
X63593Y-36531D01*
X63631Y-36512D01*
X63727Y-36512D01*
X63765Y-36531D01*
X63784Y-36550D01*
X63803Y-36588D01*
X63803Y-36626D01*
X63784Y-36683D01*
X63555Y-36912D01*
X63803Y-36912D01*
X64165Y-36512D02*
X63974Y-36512D01*
X63955Y-36702D01*
X63974Y-36683D01*
X64012Y-36664D01*
X64108Y-36664D01*
X64146Y-36683D01*
X64165Y-36702D01*
X64184Y-36740D01*
X64184Y-36836D01*
X64165Y-36874D01*
X64146Y-36893D01*
X64108Y-36912D01*
X64012Y-36912D01*
X63974Y-36893D01*
X63955Y-36874D01*
X66502Y-37412D02*
X66502Y-37012D01*
X66655Y-37012D01*
X66693Y-37031D01*
X66712Y-37050D01*
X66731Y-37088D01*
X66731Y-37145D01*
X66712Y-37183D01*
X66693Y-37202D01*
X66655Y-37221D01*
X66502Y-37221D01*
X66902Y-37012D02*
X66902Y-37336D01*
X66921Y-37374D01*
X66940Y-37393D01*
X66978Y-37412D01*
X67055Y-37412D01*
X67093Y-37393D01*
X67112Y-37374D01*
X67131Y-37336D01*
X67131Y-37012D01*
X67512Y-37412D02*
X67321Y-37412D01*
X67321Y-37012D01*
X67626Y-37393D02*
X67683Y-37412D01*
X67779Y-37412D01*
X67817Y-37393D01*
X67836Y-37374D01*
X67855Y-37336D01*
X67855Y-37298D01*
X67836Y-37260D01*
X67817Y-37240D01*
X67779Y-37221D01*
X67702Y-37202D01*
X67664Y-37183D01*
X67645Y-37164D01*
X67626Y-37126D01*
X67626Y-37088D01*
X67645Y-37050D01*
X67664Y-37031D01*
X67702Y-37012D01*
X67798Y-37012D01*
X67855Y-37031D01*
X68026Y-37202D02*
X68160Y-37202D01*
X68217Y-37412D02*
X68026Y-37412D01*
X68026Y-37012D01*
X68217Y-37012D01*
X52739Y-36212D02*
X53006Y-36212D01*
X52834Y-36612D01*
X53940Y-36212D02*
X53863Y-36212D01*
X53825Y-36231D01*
X53806Y-36250D01*
X53768Y-36307D01*
X53749Y-36383D01*
X53749Y-36536D01*
X53768Y-36574D01*
X53787Y-36593D01*
X53825Y-36612D01*
X53902Y-36612D01*
X53940Y-36593D01*
X53959Y-36574D01*
X53978Y-36536D01*
X53978Y-36440D01*
X53959Y-36402D01*
X53940Y-36383D01*
X53902Y-36364D01*
X53825Y-36364D01*
X53787Y-36383D01*
X53768Y-36402D01*
X53749Y-36440D01*
X54950Y-36212D02*
X54759Y-36212D01*
X54740Y-36402D01*
X54759Y-36383D01*
X54797Y-36364D01*
X54893Y-36364D01*
X54931Y-36383D01*
X54950Y-36402D01*
X54969Y-36440D01*
X54969Y-36536D01*
X54950Y-36574D01*
X54931Y-36593D01*
X54893Y-36612D01*
X54797Y-36612D01*
X54759Y-36593D01*
X54740Y-36574D01*
X55922Y-36345D02*
X55922Y-36612D01*
X55826Y-36193D02*
X55731Y-36479D01*
X55979Y-36479D01*
X56703Y-36212D02*
X56951Y-36212D01*
X56817Y-36364D01*
X56875Y-36364D01*
X56913Y-36383D01*
X56932Y-36402D01*
X56951Y-36440D01*
X56951Y-36536D01*
X56932Y-36574D01*
X56913Y-36593D01*
X56875Y-36612D01*
X56760Y-36612D01*
X56722Y-36593D01*
X56703Y-36574D01*
X57713Y-36250D02*
X57732Y-36231D01*
X57770Y-36212D01*
X57866Y-36212D01*
X57904Y-36231D01*
X57923Y-36250D01*
X57942Y-36288D01*
X57942Y-36326D01*
X57923Y-36383D01*
X57694Y-36612D01*
X57942Y-36612D01*
X47169Y-36612D02*
X46940Y-36612D01*
X47054Y-36612D02*
X47054Y-36212D01*
X47016Y-36269D01*
X46978Y-36307D01*
X46940Y-36326D01*
X47321Y-36250D02*
X47340Y-36231D01*
X47378Y-36212D01*
X47474Y-36212D01*
X47512Y-36231D01*
X47531Y-36250D01*
X47550Y-36288D01*
X47550Y-36326D01*
X47531Y-36383D01*
X47302Y-36612D01*
X47550Y-36612D01*
X48236Y-36612D02*
X48007Y-36612D01*
X48121Y-36612D02*
X48121Y-36212D01*
X48083Y-36269D01*
X48045Y-36307D01*
X48007Y-36326D01*
X48617Y-36612D02*
X48388Y-36612D01*
X48502Y-36612D02*
X48502Y-36212D01*
X48464Y-36269D01*
X48426Y-36307D01*
X48388Y-36326D01*
X49303Y-36612D02*
X49074Y-36612D01*
X49188Y-36612D02*
X49188Y-36212D01*
X49150Y-36269D01*
X49112Y-36307D01*
X49074Y-36326D01*
X49550Y-36212D02*
X49589Y-36212D01*
X49627Y-36231D01*
X49646Y-36250D01*
X49665Y-36288D01*
X49684Y-36364D01*
X49684Y-36460D01*
X49665Y-36536D01*
X49646Y-36574D01*
X49627Y-36593D01*
X49589Y-36612D01*
X49550Y-36612D01*
X49512Y-36593D01*
X49493Y-36574D01*
X49474Y-36536D01*
X49455Y-36460D01*
X49455Y-36364D01*
X49474Y-36288D01*
X49493Y-36250D01*
X49512Y-36231D01*
X49550Y-36212D01*
X50179Y-36612D02*
X50255Y-36612D01*
X50294Y-36593D01*
X50313Y-36574D01*
X50351Y-36517D01*
X50370Y-36440D01*
X50370Y-36288D01*
X50351Y-36250D01*
X50332Y-36231D01*
X50294Y-36212D01*
X50217Y-36212D01*
X50179Y-36231D01*
X50160Y-36250D01*
X50141Y-36288D01*
X50141Y-36383D01*
X50160Y-36421D01*
X50179Y-36440D01*
X50217Y-36460D01*
X50294Y-36460D01*
X50332Y-36440D01*
X50351Y-36421D01*
X50370Y-36383D01*
X51208Y-36383D02*
X51170Y-36364D01*
X51151Y-36345D01*
X51132Y-36307D01*
X51132Y-36288D01*
X51151Y-36250D01*
X51170Y-36231D01*
X51208Y-36212D01*
X51285Y-36212D01*
X51323Y-36231D01*
X51342Y-36250D01*
X51361Y-36288D01*
X51361Y-36307D01*
X51342Y-36345D01*
X51323Y-36364D01*
X51285Y-36383D01*
X51208Y-36383D01*
X51170Y-36402D01*
X51151Y-36421D01*
X51132Y-36460D01*
X51132Y-36536D01*
X51151Y-36574D01*
X51170Y-36593D01*
X51208Y-36612D01*
X51285Y-36612D01*
X51323Y-36593D01*
X51342Y-36574D01*
X51361Y-36536D01*
X51361Y-36460D01*
X51342Y-36421D01*
X51323Y-36402D01*
X51285Y-36383D01*
X51202Y-37212D02*
X51202Y-36812D01*
X51355Y-36812D01*
X51393Y-36831D01*
X51412Y-36850D01*
X51431Y-36888D01*
X51431Y-36945D01*
X51412Y-36983D01*
X51393Y-37002D01*
X51355Y-37021D01*
X51202Y-37021D01*
X51602Y-36812D02*
X51602Y-37136D01*
X51621Y-37174D01*
X51640Y-37193D01*
X51678Y-37212D01*
X51755Y-37212D01*
X51793Y-37193D01*
X51812Y-37174D01*
X51831Y-37136D01*
X51831Y-36812D01*
X52212Y-37212D02*
X52021Y-37212D01*
X52021Y-36812D01*
X52326Y-37193D02*
X52383Y-37212D01*
X52479Y-37212D01*
X52517Y-37193D01*
X52536Y-37174D01*
X52555Y-37136D01*
X52555Y-37098D01*
X52536Y-37060D01*
X52517Y-37040D01*
X52479Y-37021D01*
X52402Y-37002D01*
X52364Y-36983D01*
X52345Y-36964D01*
X52326Y-36926D01*
X52326Y-36888D01*
X52345Y-36850D01*
X52364Y-36831D01*
X52402Y-36812D01*
X52498Y-36812D01*
X52555Y-36831D01*
X52726Y-37002D02*
X52860Y-37002D01*
X52917Y-37212D02*
X52726Y-37212D01*
X52726Y-36812D01*
X52917Y-36812D01*
X65495Y-36550D02*
X65514Y-36531D01*
X65551Y-36512D01*
X65644Y-36512D01*
X65681Y-36531D01*
X65700Y-36550D01*
X65718Y-36588D01*
X65718Y-36626D01*
X65700Y-36683D01*
X65477Y-36912D01*
X65718Y-36912D01*
X65903Y-36912D02*
X65978Y-36912D01*
X66015Y-36893D01*
X66033Y-36874D01*
X66071Y-36817D01*
X66089Y-36740D01*
X66089Y-36588D01*
X66071Y-36550D01*
X66052Y-36531D01*
X66015Y-36512D01*
X65941Y-36512D01*
X65903Y-36531D01*
X65885Y-36550D01*
X65866Y-36588D01*
X65866Y-36683D01*
X65885Y-36721D01*
X65903Y-36740D01*
X65941Y-36760D01*
X66015Y-36760D01*
X66052Y-36740D01*
X66071Y-36721D01*
X66089Y-36683D01*
X66534Y-36550D02*
X66553Y-36531D01*
X66590Y-36512D01*
X66683Y-36512D01*
X66720Y-36531D01*
X66739Y-36550D01*
X66757Y-36588D01*
X66757Y-36626D01*
X66739Y-36683D01*
X66516Y-36912D01*
X66757Y-36912D01*
X66980Y-36683D02*
X66942Y-36664D01*
X66924Y-36645D01*
X66905Y-36607D01*
X66905Y-36588D01*
X66924Y-36550D01*
X66942Y-36531D01*
X66980Y-36512D01*
X67054Y-36512D01*
X67091Y-36531D01*
X67110Y-36550D01*
X67128Y-36588D01*
X67128Y-36607D01*
X67110Y-36645D01*
X67091Y-36664D01*
X67054Y-36683D01*
X66980Y-36683D01*
X66942Y-36702D01*
X66924Y-36721D01*
X66905Y-36760D01*
X66905Y-36836D01*
X66924Y-36874D01*
X66942Y-36893D01*
X66980Y-36912D01*
X67054Y-36912D01*
X67091Y-36893D01*
X67110Y-36874D01*
X67128Y-36836D01*
X67128Y-36760D01*
X67110Y-36721D01*
X67091Y-36702D01*
X67054Y-36683D01*
X67573Y-36550D02*
X67592Y-36531D01*
X67629Y-36512D01*
X67722Y-36512D01*
X67759Y-36531D01*
X67778Y-36550D01*
X67796Y-36588D01*
X67796Y-36626D01*
X67778Y-36683D01*
X67555Y-36912D01*
X67796Y-36912D01*
X67926Y-36512D02*
X68186Y-36512D01*
X68019Y-36912D01*
X68612Y-36550D02*
X68631Y-36531D01*
X68668Y-36512D01*
X68761Y-36512D01*
X68798Y-36531D01*
X68817Y-36550D01*
X68835Y-36588D01*
X68835Y-36626D01*
X68817Y-36683D01*
X68594Y-36912D01*
X68835Y-36912D01*
X69169Y-36512D02*
X69095Y-36512D01*
X69058Y-36531D01*
X69039Y-36550D01*
X69002Y-36607D01*
X68983Y-36683D01*
X68983Y-36836D01*
X69002Y-36874D01*
X69020Y-36893D01*
X69058Y-36912D01*
X69132Y-36912D01*
X69169Y-36893D01*
X69188Y-36874D01*
X69206Y-36836D01*
X69206Y-36740D01*
X69188Y-36702D01*
X69169Y-36683D01*
X69132Y-36664D01*
X69058Y-36664D01*
X69020Y-36683D01*
X69002Y-36702D01*
X68983Y-36740D01*
G54D14*
X34850Y-53450D02*
X34850Y-53350D01*
X73350Y-53450D02*
X34850Y-53450D01*
X73850Y-52950D02*
X73850Y-32950D01*
X73350Y-53450D02*
X73850Y-52950D01*
X34850Y-32450D02*
X34950Y-32550D01*
X73350Y-32450D02*
X34850Y-32450D01*
X73850Y-32950D02*
X73350Y-32450D01*
X34850Y-32450D02*
X34850Y-53450D01*
G54D12*
X54650Y-50250D02*
X55350Y-50250D01*
G54D11*
X54998Y-51721D02*
X54998Y-51578D01*
X55112Y-51749D02*
X54712Y-51649D01*
X55112Y-51549D01*
X54712Y-51392D02*
X54712Y-51364D01*
X54731Y-51335D01*
X54750Y-51321D01*
X54788Y-51307D01*
X54864Y-51292D01*
X54960Y-51292D01*
X55036Y-51307D01*
X55074Y-51321D01*
X55093Y-51335D01*
X55112Y-51364D01*
X55112Y-51392D01*
X55093Y-51421D01*
X55074Y-51435D01*
X55036Y-51450D01*
X54960Y-51464D01*
X54864Y-51464D01*
X54788Y-51450D01*
X54750Y-51435D01*
X54731Y-51421D01*
X54712Y-51392D01*
X54960Y-51164D02*
X54960Y-50935D01*
X54998Y-50807D02*
X54998Y-50664D01*
X55112Y-50835D02*
X54712Y-50735D01*
X55112Y-50635D01*
X54712Y-50564D02*
X54712Y-50378D01*
X54864Y-50478D01*
X54864Y-50436D01*
X54883Y-50407D01*
X54902Y-50393D01*
X54940Y-50378D01*
X55036Y-50378D01*
X55074Y-50393D01*
X55093Y-50407D01*
X55112Y-50436D01*
X55112Y-50521D01*
X55093Y-50550D01*
X55074Y-50564D01*
X54998Y-50021D02*
X54998Y-49878D01*
X55112Y-50049D02*
X54712Y-49949D01*
X55112Y-49849D01*
X54750Y-49764D02*
X54731Y-49750D01*
X54712Y-49721D01*
X54712Y-49650D01*
X54731Y-49621D01*
X54750Y-49607D01*
X54788Y-49592D01*
X54826Y-49592D01*
X54883Y-49607D01*
X55112Y-49778D01*
X55112Y-49592D01*
X54960Y-49464D02*
X54960Y-49235D01*
X54998Y-49107D02*
X54998Y-48964D01*
X55112Y-49135D02*
X54712Y-49035D01*
X55112Y-48935D01*
X54712Y-48693D02*
X54712Y-48836D01*
X54902Y-48850D01*
X54883Y-48836D01*
X54864Y-48807D01*
X54864Y-48736D01*
X54883Y-48707D01*
X54902Y-48693D01*
X54940Y-48678D01*
X55036Y-48678D01*
X55074Y-48693D01*
X55093Y-48707D01*
X55112Y-48736D01*
X55112Y-48807D01*
X55093Y-48836D01*
X55074Y-48850D01*
G54D13*
X65445Y-51612D02*
X65445Y-51212D01*
X65674Y-51612D01*
X65674Y-51212D01*
X65864Y-51612D02*
X65864Y-51345D01*
X65864Y-51212D02*
X65845Y-51231D01*
X65864Y-51250D01*
X65883Y-51231D01*
X65864Y-51212D01*
X65864Y-51250D01*
X66226Y-51593D02*
X66188Y-51612D01*
X66111Y-51612D01*
X66073Y-51593D01*
X66054Y-51574D01*
X66035Y-51536D01*
X66035Y-51421D01*
X66054Y-51383D01*
X66073Y-51364D01*
X66111Y-51345D01*
X66188Y-51345D01*
X66226Y-51364D01*
X66397Y-51612D02*
X66397Y-51212D01*
X66569Y-51612D02*
X66569Y-51402D01*
X66550Y-51364D01*
X66512Y-51345D01*
X66454Y-51345D01*
X66416Y-51364D01*
X66397Y-51383D01*
X66816Y-51612D02*
X66778Y-51593D01*
X66759Y-51574D01*
X66740Y-51536D01*
X66740Y-51421D01*
X66759Y-51383D01*
X66778Y-51364D01*
X66816Y-51345D01*
X66874Y-51345D01*
X66912Y-51364D01*
X66931Y-51383D01*
X66950Y-51421D01*
X66950Y-51536D01*
X66931Y-51574D01*
X66912Y-51593D01*
X66874Y-51612D01*
X66816Y-51612D01*
X67178Y-51612D02*
X67140Y-51593D01*
X67121Y-51555D01*
X67121Y-51212D01*
X67503Y-51612D02*
X67503Y-51402D01*
X67484Y-51364D01*
X67446Y-51345D01*
X67369Y-51345D01*
X67331Y-51364D01*
X67503Y-51593D02*
X67465Y-51612D01*
X67369Y-51612D01*
X67331Y-51593D01*
X67312Y-51555D01*
X67312Y-51517D01*
X67331Y-51479D01*
X67369Y-51460D01*
X67465Y-51460D01*
X67503Y-51440D01*
X67674Y-51593D02*
X67712Y-51612D01*
X67788Y-51612D01*
X67827Y-51593D01*
X67846Y-51555D01*
X67846Y-51536D01*
X67827Y-51498D01*
X67788Y-51479D01*
X67731Y-51479D01*
X67693Y-51460D01*
X67674Y-51421D01*
X67674Y-51402D01*
X67693Y-51364D01*
X67731Y-51345D01*
X67788Y-51345D01*
X67827Y-51364D01*
X68246Y-51574D02*
X68227Y-51593D01*
X68170Y-51612D01*
X68132Y-51612D01*
X68074Y-51593D01*
X68036Y-51555D01*
X68017Y-51517D01*
X67998Y-51440D01*
X67998Y-51383D01*
X68017Y-51307D01*
X68036Y-51269D01*
X68074Y-51231D01*
X68132Y-51212D01*
X68170Y-51212D01*
X68227Y-51231D01*
X68246Y-51250D01*
X68608Y-51612D02*
X68417Y-51612D01*
X68417Y-51212D01*
X68894Y-51593D02*
X68856Y-51612D01*
X68779Y-51612D01*
X68741Y-51593D01*
X68722Y-51555D01*
X68722Y-51402D01*
X68741Y-51364D01*
X68779Y-51345D01*
X68856Y-51345D01*
X68894Y-51364D01*
X68913Y-51402D01*
X68913Y-51440D01*
X68722Y-51479D01*
X69046Y-51345D02*
X69122Y-51612D01*
X69199Y-51421D01*
X69275Y-51612D01*
X69351Y-51345D01*
X69503Y-51612D02*
X69503Y-51345D01*
X69503Y-51212D02*
X69484Y-51231D01*
X69503Y-51250D01*
X69522Y-51231D01*
X69503Y-51212D01*
X69503Y-51250D01*
X69674Y-51593D02*
X69712Y-51612D01*
X69788Y-51612D01*
X69827Y-51593D01*
X69846Y-51555D01*
X69846Y-51536D01*
X69827Y-51498D01*
X69788Y-51479D01*
X69731Y-51479D01*
X69693Y-51460D01*
X69674Y-51421D01*
X69674Y-51402D01*
X69693Y-51364D01*
X69731Y-51345D01*
X69788Y-51345D01*
X69827Y-51364D01*
X70017Y-51574D02*
X70036Y-51593D01*
X70017Y-51612D01*
X69998Y-51593D01*
X70017Y-51574D01*
X70017Y-51612D01*
X70379Y-51593D02*
X70341Y-51612D01*
X70264Y-51612D01*
X70226Y-51593D01*
X70207Y-51574D01*
X70188Y-51536D01*
X70188Y-51421D01*
X70207Y-51383D01*
X70226Y-51364D01*
X70264Y-51345D01*
X70341Y-51345D01*
X70379Y-51364D01*
X70607Y-51612D02*
X70569Y-51593D01*
X70550Y-51574D01*
X70531Y-51536D01*
X70531Y-51421D01*
X70550Y-51383D01*
X70569Y-51364D01*
X70607Y-51345D01*
X70665Y-51345D01*
X70703Y-51364D01*
X70722Y-51383D01*
X70741Y-51421D01*
X70741Y-51536D01*
X70722Y-51574D01*
X70703Y-51593D01*
X70665Y-51612D01*
X70607Y-51612D01*
X70912Y-51612D02*
X70912Y-51345D01*
X70912Y-51383D02*
X70931Y-51364D01*
X70969Y-51345D01*
X71027Y-51345D01*
X71065Y-51364D01*
X71084Y-51402D01*
X71084Y-51612D01*
X71084Y-51402D02*
X71103Y-51364D01*
X71141Y-51345D01*
X71198Y-51345D01*
X71236Y-51364D01*
X71255Y-51402D01*
X71255Y-51612D01*
X66283Y-49262D02*
X66283Y-48862D01*
X66473Y-48995D02*
X66473Y-49262D01*
X66473Y-49033D02*
X66492Y-49014D01*
X66530Y-48995D01*
X66588Y-48995D01*
X66626Y-49014D01*
X66645Y-49052D01*
X66645Y-49262D01*
X66835Y-49262D02*
X66835Y-48862D01*
X66873Y-49110D02*
X66988Y-49262D01*
X66988Y-48995D02*
X66835Y-49148D01*
X67140Y-49243D02*
X67197Y-49262D01*
X67293Y-49262D01*
X67331Y-49243D01*
X67350Y-49224D01*
X67369Y-49186D01*
X67369Y-49148D01*
X67350Y-49110D01*
X67331Y-49090D01*
X67293Y-49071D01*
X67216Y-49052D01*
X67178Y-49033D01*
X67159Y-49014D01*
X67140Y-48976D01*
X67140Y-48938D01*
X67159Y-48900D01*
X67178Y-48881D01*
X67216Y-48862D01*
X67312Y-48862D01*
X67369Y-48881D01*
X67540Y-49262D02*
X67540Y-48862D01*
X67712Y-49262D02*
X67712Y-49052D01*
X67693Y-49014D01*
X67655Y-48995D01*
X67597Y-48995D01*
X67559Y-49014D01*
X67540Y-49033D01*
X67902Y-49262D02*
X67902Y-48995D01*
X67902Y-48862D02*
X67883Y-48881D01*
X67902Y-48900D01*
X67921Y-48881D01*
X67902Y-48862D01*
X67902Y-48900D01*
X68245Y-49243D02*
X68207Y-49262D01*
X68130Y-49262D01*
X68092Y-49243D01*
X68073Y-49205D01*
X68073Y-49052D01*
X68092Y-49014D01*
X68130Y-48995D01*
X68207Y-48995D01*
X68245Y-49014D01*
X68264Y-49052D01*
X68264Y-49090D01*
X68073Y-49129D01*
X68492Y-49262D02*
X68454Y-49243D01*
X68435Y-49205D01*
X68435Y-48862D01*
X68817Y-49262D02*
X68817Y-48862D01*
X68817Y-49243D02*
X68779Y-49262D01*
X68702Y-49262D01*
X68664Y-49243D01*
X68645Y-49224D01*
X68626Y-49186D01*
X68626Y-49071D01*
X68645Y-49033D01*
X68664Y-49014D01*
X68702Y-48995D01*
X68779Y-48995D01*
X68817Y-49014D01*
X69255Y-48862D02*
X69388Y-49262D01*
X69522Y-48862D01*
X69865Y-49262D02*
X69636Y-49262D01*
X69750Y-49262D02*
X69750Y-48862D01*
X69712Y-48919D01*
X69674Y-48957D01*
X69636Y-48976D01*
X70036Y-49224D02*
X70055Y-49243D01*
X70036Y-49262D01*
X70017Y-49243D01*
X70036Y-49224D01*
X70036Y-49262D01*
X70302Y-48862D02*
X70341Y-48862D01*
X70379Y-48881D01*
X70398Y-48900D01*
X70417Y-48938D01*
X70436Y-49014D01*
X70436Y-49110D01*
X70417Y-49186D01*
X70398Y-49224D01*
X70379Y-49243D01*
X70341Y-49262D01*
X70302Y-49262D01*
X70264Y-49243D01*
X70245Y-49224D01*
X70226Y-49186D01*
X70207Y-49110D01*
X70207Y-49014D01*
X70226Y-48938D01*
X70245Y-48900D01*
X70264Y-48881D01*
X70302Y-48862D01*
G54D12*
X69500Y-38470D02*
X70500Y-38470D01*
G54D10*
X70384Y-37390D02*
X70342Y-37358D01*
X70298Y-37330D01*
X70251Y-37306D01*
X70203Y-37286D01*
X70153Y-37270D01*
X70102Y-37259D01*
X70050Y-37253D01*
X70000Y-37250D01*
X70000Y-37251D02*
X69948Y-37254D01*
X69896Y-37261D01*
X69845Y-37272D01*
X69796Y-37288D01*
X69747Y-37308D01*
X69701Y-37332D01*
X69657Y-37360D01*
X69615Y-37392D01*
X69603Y-37403D01*
X70000Y-38449D02*
X70052Y-38446D01*
X70104Y-38439D01*
X70155Y-38428D01*
X70204Y-38412D01*
X70253Y-38392D01*
X70299Y-38368D01*
X70343Y-38340D01*
X70385Y-38308D01*
X70389Y-38304D01*
X69616Y-38310D02*
X69658Y-38342D01*
X69702Y-38370D01*
X69749Y-38394D01*
X69797Y-38414D01*
X69847Y-38430D01*
X69898Y-38441D01*
X69950Y-38447D01*
X70000Y-38450D01*
X70349Y-38337D02*
X70390Y-38305D01*
X70428Y-38269D01*
X70463Y-38230D01*
X70495Y-38188D01*
X70522Y-38144D01*
X70546Y-38097D01*
X70565Y-38049D01*
X70581Y-37999D01*
X70591Y-37947D01*
X70598Y-37896D01*
X70600Y-37850D01*
X70600Y-37850D02*
X70597Y-37798D01*
X70590Y-37746D01*
X70579Y-37695D01*
X70563Y-37645D01*
X70543Y-37597D01*
X70519Y-37551D01*
X70491Y-37506D01*
X70459Y-37465D01*
X70424Y-37426D01*
X70385Y-37391D01*
X70360Y-37371D01*
X69401Y-37850D02*
X69404Y-37902D01*
X69411Y-37954D01*
X69422Y-38005D01*
X69438Y-38054D01*
X69458Y-38103D01*
X69482Y-38149D01*
X69510Y-38193D01*
X69542Y-38235D01*
X69577Y-38273D01*
X69615Y-38308D01*
X69633Y-38322D01*
X69632Y-37377D02*
X69592Y-37411D01*
X69555Y-37448D01*
X69522Y-37489D01*
X69492Y-37532D01*
X69466Y-37577D01*
X69445Y-37625D01*
X69427Y-37674D01*
X69414Y-37725D01*
X69405Y-37776D01*
X69401Y-37829D01*
X69400Y-37850D01*
X70250Y-37850D02*
X70249Y-37829D01*
X70246Y-37807D01*
X70241Y-37786D01*
X70234Y-37765D01*
X70226Y-37745D01*
X70216Y-37726D01*
X70204Y-37707D01*
X70191Y-37690D01*
X70176Y-37674D01*
X70160Y-37659D01*
X70143Y-37646D01*
X70125Y-37634D01*
X70105Y-37624D01*
X70085Y-37616D01*
X70064Y-37609D01*
X70043Y-37604D01*
X70021Y-37601D01*
X70000Y-37600D01*
X70400Y-37850D02*
X70398Y-37816D01*
X70393Y-37781D01*
X70386Y-37747D01*
X70375Y-37714D01*
X70362Y-37681D01*
X70346Y-37651D01*
X70327Y-37621D01*
X70306Y-37593D01*
X70282Y-37568D01*
X70257Y-37544D01*
X70229Y-37523D01*
X70200Y-37504D01*
X70169Y-37488D01*
X70136Y-37475D01*
X70103Y-37464D01*
X70069Y-37457D01*
X70034Y-37452D01*
X70000Y-37450D01*
X69750Y-37850D02*
X69751Y-37871D01*
X69754Y-37893D01*
X69759Y-37914D01*
X69766Y-37935D01*
X69774Y-37955D01*
X69784Y-37974D01*
X69796Y-37993D01*
X69809Y-38010D01*
X69824Y-38026D01*
X69840Y-38041D01*
X69857Y-38054D01*
X69876Y-38066D01*
X69895Y-38076D01*
X69915Y-38084D01*
X69936Y-38091D01*
X69957Y-38096D01*
X69979Y-38099D01*
X70000Y-38100D01*
X69600Y-37850D02*
X69602Y-37884D01*
X69607Y-37919D01*
X69614Y-37953D01*
X69625Y-37986D01*
X69638Y-38019D01*
X69654Y-38049D01*
X69673Y-38079D01*
X69694Y-38107D01*
X69718Y-38132D01*
X69743Y-38156D01*
X69771Y-38177D01*
X69801Y-38196D01*
X69831Y-38212D01*
X69864Y-38225D01*
X69897Y-38236D01*
X69931Y-38243D01*
X69966Y-38248D01*
X70000Y-38250D01*
G54D12*
X70513Y-38463D02*
X70564Y-38416D01*
X70611Y-38365D01*
X70654Y-38310D01*
X70692Y-38251D01*
X70724Y-38189D01*
X70751Y-38124D01*
X70772Y-38058D01*
X70787Y-37990D01*
X70796Y-37921D01*
X70799Y-37851D01*
X70800Y-37850D01*
X70799Y-37850D02*
X70795Y-37781D01*
X70786Y-37712D01*
X70771Y-37644D01*
X70750Y-37577D01*
X70724Y-37513D01*
X70691Y-37451D01*
X70654Y-37392D01*
X70612Y-37337D01*
X70564Y-37286D01*
X70513Y-37238D01*
X70458Y-37196D01*
X70399Y-37159D01*
X70376Y-37146D01*
X69203Y-37851D02*
X69206Y-37920D01*
X69215Y-37989D01*
X69230Y-38057D01*
X69251Y-38124D01*
X69278Y-38188D01*
X69310Y-38250D01*
X69348Y-38308D01*
X69390Y-38364D01*
X69437Y-38415D01*
X69485Y-38459D01*
X69603Y-37156D02*
X69544Y-37194D01*
X69488Y-37236D01*
X69437Y-37283D01*
X69389Y-37334D01*
X69347Y-37389D01*
X69309Y-37448D01*
X69277Y-37510D01*
X69250Y-37574D01*
X69228Y-37641D01*
X69213Y-37709D01*
X69204Y-37778D01*
X69201Y-37848D01*
X69200Y-37850D01*
X70379Y-37146D02*
X70316Y-37116D01*
X70251Y-37091D01*
X70184Y-37072D01*
X70115Y-37059D01*
X70046Y-37052D01*
X70000Y-37050D01*
X70000Y-37051D02*
X69931Y-37055D01*
X69862Y-37064D01*
X69794Y-37079D01*
X69727Y-37100D01*
X69663Y-37126D01*
X69601Y-37159D01*
X69582Y-37170D01*
X35750Y-48720D02*
X36750Y-48720D01*
G54D10*
X36634Y-47640D02*
X36592Y-47608D01*
X36548Y-47580D01*
X36501Y-47556D01*
X36453Y-47536D01*
X36403Y-47520D01*
X36352Y-47509D01*
X36300Y-47503D01*
X36250Y-47500D01*
X36250Y-47501D02*
X36198Y-47504D01*
X36146Y-47511D01*
X36095Y-47522D01*
X36046Y-47538D01*
X35997Y-47558D01*
X35951Y-47582D01*
X35907Y-47610D01*
X35865Y-47642D01*
X35853Y-47653D01*
X36250Y-48699D02*
X36302Y-48696D01*
X36354Y-48689D01*
X36405Y-48678D01*
X36454Y-48662D01*
X36503Y-48642D01*
X36549Y-48618D01*
X36593Y-48590D01*
X36635Y-48558D01*
X36639Y-48554D01*
X35866Y-48560D02*
X35908Y-48592D01*
X35952Y-48620D01*
X35999Y-48644D01*
X36047Y-48664D01*
X36097Y-48680D01*
X36148Y-48691D01*
X36200Y-48697D01*
X36250Y-48700D01*
X36599Y-48587D02*
X36640Y-48555D01*
X36678Y-48519D01*
X36713Y-48480D01*
X36745Y-48438D01*
X36772Y-48394D01*
X36796Y-48347D01*
X36815Y-48299D01*
X36831Y-48249D01*
X36841Y-48197D01*
X36848Y-48146D01*
X36850Y-48100D01*
X36850Y-48100D02*
X36847Y-48048D01*
X36840Y-47996D01*
X36829Y-47945D01*
X36813Y-47895D01*
X36793Y-47847D01*
X36769Y-47801D01*
X36741Y-47756D01*
X36709Y-47715D01*
X36674Y-47676D01*
X36635Y-47641D01*
X36610Y-47621D01*
X35651Y-48100D02*
X35654Y-48152D01*
X35661Y-48204D01*
X35672Y-48255D01*
X35688Y-48304D01*
X35708Y-48353D01*
X35732Y-48399D01*
X35760Y-48443D01*
X35792Y-48485D01*
X35827Y-48523D01*
X35865Y-48558D01*
X35883Y-48572D01*
X35882Y-47627D02*
X35842Y-47661D01*
X35805Y-47698D01*
X35772Y-47739D01*
X35742Y-47782D01*
X35716Y-47827D01*
X35695Y-47875D01*
X35677Y-47924D01*
X35664Y-47975D01*
X35655Y-48026D01*
X35651Y-48079D01*
X35650Y-48100D01*
X36500Y-48100D02*
X36499Y-48079D01*
X36496Y-48057D01*
X36491Y-48036D01*
X36484Y-48015D01*
X36476Y-47995D01*
X36466Y-47976D01*
X36454Y-47957D01*
X36441Y-47940D01*
X36426Y-47924D01*
X36410Y-47909D01*
X36393Y-47896D01*
X36375Y-47884D01*
X36355Y-47874D01*
X36335Y-47866D01*
X36314Y-47859D01*
X36293Y-47854D01*
X36271Y-47851D01*
X36250Y-47850D01*
X36650Y-48100D02*
X36648Y-48066D01*
X36643Y-48031D01*
X36636Y-47997D01*
X36625Y-47964D01*
X36612Y-47931D01*
X36596Y-47901D01*
X36577Y-47871D01*
X36556Y-47843D01*
X36532Y-47818D01*
X36507Y-47794D01*
X36479Y-47773D01*
X36450Y-47754D01*
X36419Y-47738D01*
X36386Y-47725D01*
X36353Y-47714D01*
X36319Y-47707D01*
X36284Y-47702D01*
X36250Y-47700D01*
X36000Y-48100D02*
X36001Y-48121D01*
X36004Y-48143D01*
X36009Y-48164D01*
X36016Y-48185D01*
X36024Y-48205D01*
X36034Y-48224D01*
X36046Y-48243D01*
X36059Y-48260D01*
X36074Y-48276D01*
X36090Y-48291D01*
X36107Y-48304D01*
X36126Y-48316D01*
X36145Y-48326D01*
X36165Y-48334D01*
X36186Y-48341D01*
X36207Y-48346D01*
X36229Y-48349D01*
X36250Y-48350D01*
X35850Y-48100D02*
X35852Y-48134D01*
X35857Y-48169D01*
X35864Y-48203D01*
X35875Y-48236D01*
X35888Y-48269D01*
X35904Y-48299D01*
X35923Y-48329D01*
X35944Y-48357D01*
X35968Y-48382D01*
X35993Y-48406D01*
X36021Y-48427D01*
X36051Y-48446D01*
X36081Y-48462D01*
X36114Y-48475D01*
X36147Y-48486D01*
X36181Y-48493D01*
X36216Y-48498D01*
X36250Y-48500D01*
G54D12*
X36763Y-48713D02*
X36814Y-48666D01*
X36861Y-48615D01*
X36904Y-48560D01*
X36942Y-48501D01*
X36974Y-48439D01*
X37001Y-48374D01*
X37022Y-48308D01*
X37037Y-48240D01*
X37046Y-48171D01*
X37049Y-48101D01*
X37050Y-48100D01*
X37049Y-48100D02*
X37045Y-48031D01*
X37036Y-47962D01*
X37021Y-47894D01*
X37000Y-47827D01*
X36974Y-47763D01*
X36941Y-47701D01*
X36904Y-47642D01*
X36862Y-47587D01*
X36814Y-47536D01*
X36763Y-47488D01*
X36708Y-47446D01*
X36649Y-47409D01*
X36626Y-47396D01*
X35453Y-48101D02*
X35456Y-48170D01*
X35465Y-48239D01*
X35480Y-48307D01*
X35501Y-48374D01*
X35528Y-48438D01*
X35560Y-48500D01*
X35598Y-48558D01*
X35640Y-48614D01*
X35687Y-48665D01*
X35735Y-48709D01*
X35853Y-47406D02*
X35794Y-47444D01*
X35738Y-47486D01*
X35687Y-47533D01*
X35639Y-47584D01*
X35597Y-47639D01*
X35559Y-47698D01*
X35527Y-47760D01*
X35500Y-47824D01*
X35478Y-47891D01*
X35463Y-47959D01*
X35454Y-48028D01*
X35451Y-48098D01*
X35450Y-48100D01*
X36629Y-47396D02*
X36566Y-47366D01*
X36501Y-47341D01*
X36434Y-47322D01*
X36365Y-47309D01*
X36296Y-47302D01*
X36250Y-47300D01*
X36250Y-47301D02*
X36181Y-47305D01*
X36112Y-47314D01*
X36044Y-47329D01*
X35977Y-47350D01*
X35913Y-47376D01*
X35851Y-47409D01*
X35832Y-47420D01*
G54D15*
X43350Y-45620D02*
X43350Y-47600D01*
X43350Y-47600D02*
X42350Y-47600D01*
X42350Y-47600D02*
X42350Y-45600D01*
X42350Y-45600D02*
X43350Y-45600D01*
X43100Y-45600D02*
X43350Y-45850D01*
X54250Y-51050D02*
X53850Y-51050D01*
X53850Y-51050D02*
X53850Y-51450D01*
X53850Y-51450D02*
X50650Y-51450D01*
X50650Y-51450D02*
X50650Y-50650D01*
X50650Y-50650D02*
X53850Y-50650D01*
X53850Y-50650D02*
X53850Y-51050D01*
X53850Y-51250D02*
X53650Y-51450D01*
X50250Y-51050D02*
X50650Y-51050D01*
X50250Y-49550D02*
X50650Y-49550D01*
X50650Y-49550D02*
X50650Y-49150D01*
X50650Y-49150D02*
X53850Y-49150D01*
X53850Y-49150D02*
X53850Y-49950D01*
X53850Y-49950D02*
X50650Y-49950D01*
X50650Y-49950D02*
X50650Y-49550D01*
X50650Y-49350D02*
X50850Y-49150D01*
X54250Y-49550D02*
X53850Y-49550D01*
X58350Y-51750D02*
X57350Y-51750D01*
X57350Y-51750D02*
X57350Y-48750D01*
X57350Y-48750D02*
X58350Y-48750D01*
X58350Y-48750D02*
X58350Y-51750D01*
X57350Y-50750D02*
X58350Y-50750D01*
X57350Y-51750D02*
X56350Y-51750D01*
X56350Y-51750D02*
X56350Y-48750D01*
X56350Y-48750D02*
X57350Y-48750D01*
X57350Y-48750D02*
X57350Y-51750D01*
X56350Y-50750D02*
X57350Y-50750D01*
X56350Y-51750D02*
X55350Y-51750D01*
X55350Y-51750D02*
X55350Y-48750D01*
X55350Y-48750D02*
X56350Y-48750D01*
X56350Y-48750D02*
X56350Y-51750D01*
X55350Y-50750D02*
X56350Y-50750D01*
X59350Y-51750D02*
X58350Y-51750D01*
X58350Y-51750D02*
X58350Y-48750D01*
X58350Y-48750D02*
X59350Y-48750D01*
X59350Y-48750D02*
X59350Y-51750D01*
X58350Y-50750D02*
X59350Y-50750D01*
X67350Y-37950D02*
X67150Y-37950D01*
X64350Y-37950D02*
X64550Y-37950D01*
X64550Y-37950D02*
X64550Y-38350D01*
X64550Y-38350D02*
X67150Y-38350D01*
X67150Y-38350D02*
X67150Y-37550D01*
X67150Y-37550D02*
X64550Y-37550D01*
X64550Y-37550D02*
X64550Y-37950D01*
X67150Y-38150D02*
X66950Y-38350D01*
X36250Y-49500D02*
X36450Y-49500D01*
X39250Y-49500D02*
X39050Y-49500D01*
X39050Y-49500D02*
X39050Y-49100D01*
X39050Y-49100D02*
X36450Y-49100D01*
X36450Y-49100D02*
X36450Y-49900D01*
X36450Y-49900D02*
X39050Y-49900D01*
X39050Y-49900D02*
X39050Y-49500D01*
X36450Y-49300D02*
X36650Y-49100D01*
G54D14*
X63250Y-40050D02*
X62750Y-40050D01*
X62750Y-40050D02*
X62750Y-39050D01*
X62750Y-39050D02*
X63250Y-39050D01*
X63250Y-40550D02*
X53250Y-40550D01*
X53250Y-40550D02*
X53250Y-38550D01*
X53250Y-38550D02*
X63250Y-38550D01*
X63250Y-38550D02*
X63250Y-40550D01*
X53250Y-43650D02*
X53750Y-43650D01*
X53750Y-43650D02*
X53750Y-44650D01*
X53750Y-44650D02*
X53250Y-44650D01*
X53250Y-43150D02*
X63250Y-43150D01*
X63250Y-43150D02*
X63250Y-45150D01*
X63250Y-45150D02*
X53250Y-45150D01*
X53250Y-45150D02*
X53250Y-43150D01*
X40150Y-40550D02*
X40650Y-40550D01*
X40650Y-40550D02*
X40650Y-41550D01*
X40650Y-41550D02*
X40150Y-41550D01*
X40150Y-38550D02*
X53150Y-38550D01*
X53150Y-38550D02*
X53150Y-43550D01*
X53150Y-43550D02*
X40150Y-43550D01*
X40150Y-43550D02*
X40150Y-38550D01*
G54D15*
X50750Y-47900D02*
X53750Y-47900D01*
X53750Y-47900D02*
X53750Y-48900D01*
X53750Y-48900D02*
X50750Y-48900D01*
X50750Y-48900D02*
X50750Y-47900D01*
X53500Y-47900D02*
X53500Y-48900D01*
X53250Y-48900D02*
X53250Y-47900D01*
X50750Y-48400D02*
X50250Y-48400D01*
X53750Y-48400D02*
X54250Y-48400D01*
G54D14*
X49300Y-48900D02*
X48800Y-48900D01*
X48800Y-48900D02*
X48800Y-47900D01*
X48800Y-47900D02*
X49300Y-47900D01*
X49300Y-49400D02*
X45300Y-49400D01*
X45300Y-49400D02*
X45300Y-47400D01*
X45300Y-47400D02*
X49300Y-47400D01*
X49300Y-47400D02*
X49300Y-49400D01*
G54D15*
X44350Y-46450D02*
X44350Y-46850D01*
X44350Y-46850D02*
X44750Y-46850D01*
X44750Y-46850D02*
X44750Y-50050D01*
X44750Y-50050D02*
X43950Y-50050D01*
X43950Y-50050D02*
X43950Y-46850D01*
X43950Y-46850D02*
X44350Y-46850D01*
X44550Y-46850D02*
X44750Y-47050D01*
X44350Y-50450D02*
X44350Y-50050D01*
X45500Y-50550D02*
X45500Y-51550D01*
X45500Y-51550D02*
X49000Y-51550D01*
X49000Y-51550D02*
X49000Y-50550D01*
X49000Y-50550D02*
X45500Y-50550D01*
X45500Y-50800D02*
X45750Y-50550D01*
X45500Y-51050D02*
X45000Y-51050D01*
X49000Y-51050D02*
X49500Y-51050D01*
G54D12*
X62250Y-51100D02*
X62250Y-49050D01*
X62200Y-51000D02*
X62200Y-49100D01*
X62150Y-49200D02*
X62150Y-50900D01*
X62100Y-50750D02*
X62100Y-49300D01*
X65400Y-50050D02*
X65366Y-50389D01*
X65267Y-50716D01*
X65107Y-51018D01*
X64891Y-51283D01*
X64628Y-51500D01*
X64328Y-51663D01*
X64001Y-51764D01*
X63662Y-51799D01*
X63323Y-51769D01*
X62995Y-51672D01*
X62692Y-51514D01*
X62426Y-51300D01*
X62207Y-51038D01*
X62042Y-50739D01*
X61939Y-50413D01*
X61901Y-50074D01*
X61929Y-49735D01*
X62023Y-49406D01*
X62180Y-49103D01*
X62392Y-48835D01*
X62652Y-48613D01*
X62950Y-48447D01*
X63275Y-48341D01*
X63614Y-48301D01*
X63953Y-48327D01*
X64282Y-48419D01*
X64587Y-48573D01*
X64856Y-48783D01*
X65080Y-49042D01*
X65248Y-49339D01*
X65356Y-49663D01*
X65399Y-50002D01*
X65400Y-50050D01*
X62000Y-50400D02*
X62000Y-49700D01*
X62050Y-49500D02*
X62050Y-50550D01*
X42000Y-46200D02*
X42000Y-46900D01*
X41950Y-47100D02*
X41950Y-46050D01*
X41900Y-45900D02*
X41900Y-47150D01*
X41850Y-45850D02*
X41850Y-47250D01*
X41800Y-45750D02*
X41800Y-47350D01*
X41750Y-45700D02*
X41750Y-47400D01*
X42100Y-46550D02*
X42076Y-46792D01*
X42005Y-47026D01*
X41891Y-47241D01*
X41736Y-47430D01*
X41548Y-47586D01*
X41334Y-47702D01*
X41101Y-47774D01*
X40858Y-47799D01*
X40616Y-47777D01*
X40382Y-47708D01*
X40166Y-47595D01*
X39976Y-47443D01*
X39819Y-47256D01*
X39702Y-47042D01*
X39628Y-46809D01*
X39601Y-46567D01*
X39621Y-46325D01*
X39688Y-46090D01*
X39800Y-45873D01*
X39951Y-45682D01*
X40137Y-45524D01*
X40350Y-45405D01*
X40582Y-45330D01*
X40824Y-45301D01*
X41067Y-45319D01*
X41302Y-45385D01*
X41519Y-45495D01*
X41712Y-45645D01*
X41871Y-45830D01*
X41991Y-46042D01*
X42068Y-46274D01*
X42099Y-46516D01*
X42100Y-46550D01*
X35430Y-51313D02*
X35135Y-51116D01*
X35135Y-51116D02*
X35135Y-51509D01*
X35135Y-51509D02*
X35430Y-51313D01*
X38087Y-53281D02*
X38087Y-52887D01*
X38087Y-52887D02*
X37792Y-52887D01*
X37792Y-52887D02*
X37792Y-51313D01*
X37792Y-51313D02*
X38087Y-51313D01*
X38087Y-51313D02*
X38087Y-50919D01*
X38087Y-50919D02*
X34938Y-50919D01*
X34938Y-50919D02*
X34938Y-53281D01*
X34938Y-53281D02*
X38087Y-53281D01*
G54D14*
X67537Y-50775D02*
X67500Y-50850D01*
X67500Y-50850D02*
X67425Y-50888D01*
X66487Y-50925D02*
X66562Y-50775D01*
X69075Y-50663D02*
X69150Y-50588D01*
X68062Y-50888D02*
X68138Y-50925D01*
X68138Y-50925D02*
X68250Y-50963D01*
X68250Y-50963D02*
X68400Y-50963D01*
X68400Y-50963D02*
X68513Y-50925D01*
X68513Y-50925D02*
X68663Y-50888D01*
X68025Y-50025D02*
X67950Y-50137D01*
X67950Y-50137D02*
X67912Y-50250D01*
X67912Y-50250D02*
X67875Y-50362D01*
X67875Y-50362D02*
X67875Y-50475D01*
X67875Y-50475D02*
X67875Y-50588D01*
X67875Y-50588D02*
X67912Y-50700D01*
X67912Y-50700D02*
X67987Y-50813D01*
X67987Y-50813D02*
X68062Y-50888D01*
X67687Y-49875D02*
X67725Y-49687D01*
X67725Y-49687D02*
X67762Y-49575D01*
X67762Y-49575D02*
X67800Y-49462D01*
X69075Y-49725D02*
X69038Y-49912D01*
X69038Y-49912D02*
X68925Y-50212D01*
X68925Y-50212D02*
X68813Y-50513D01*
X68813Y-50513D02*
X68738Y-50775D01*
X68738Y-50775D02*
X68738Y-50925D01*
X68738Y-50925D02*
X68813Y-51000D01*
X68813Y-51000D02*
X68963Y-50963D01*
X68963Y-50963D02*
X69300Y-50850D01*
X69300Y-50850D02*
X69675Y-50775D01*
X69675Y-50775D02*
X70013Y-50700D01*
X70013Y-50700D02*
X70313Y-50663D01*
X70313Y-50663D02*
X70613Y-50625D01*
X70613Y-50625D02*
X70838Y-50625D01*
X68513Y-49537D02*
X68250Y-49800D01*
X68250Y-49800D02*
X68025Y-50025D01*
X68663Y-50888D02*
X68925Y-50775D01*
X68925Y-50775D02*
X69075Y-50663D01*
X66487Y-50925D02*
X66562Y-49725D01*
X66562Y-49725D02*
X67387Y-50850D01*
X67537Y-50775D02*
X67687Y-49875D01*
G54D13*
X37489Y-37800D02*
X37514Y-37786D01*
X37539Y-37771D01*
X37562Y-37753D01*
X37583Y-37734D01*
X37603Y-37713D01*
X37620Y-37690D01*
X37636Y-37666D01*
X37649Y-37640D01*
X37660Y-37613D01*
X37669Y-37586D01*
X37675Y-37558D01*
X37679Y-37529D01*
X37680Y-37500D01*
X37679Y-37472D01*
X37676Y-37444D01*
X37669Y-37415D01*
X37661Y-37388D01*
X37650Y-37361D01*
X37636Y-37336D01*
X37621Y-37311D01*
X37603Y-37288D01*
X37584Y-37267D01*
X37563Y-37247D01*
X37540Y-37230D01*
X37516Y-37214D01*
X37490Y-37201D01*
X37463Y-37190D01*
X37436Y-37181D01*
X37408Y-37175D01*
X37379Y-37171D01*
X37350Y-37170D01*
X37322Y-37171D01*
X37294Y-37174D01*
X37265Y-37181D01*
X37238Y-37189D01*
X37211Y-37200D01*
X37186Y-37214D01*
X37161Y-37229D01*
X37138Y-37247D01*
X37117Y-37266D01*
X37097Y-37287D01*
X37080Y-37310D01*
X37064Y-37334D01*
X37051Y-37360D01*
X37040Y-37387D01*
X37031Y-37414D01*
X37025Y-37442D01*
X37021Y-37471D01*
X37020Y-37500D01*
X37021Y-37528D01*
X37024Y-37556D01*
X37031Y-37585D01*
X37039Y-37612D01*
X37050Y-37639D01*
X37064Y-37664D01*
X37079Y-37689D01*
X37097Y-37712D01*
X37116Y-37733D01*
X37137Y-37753D01*
X37160Y-37770D01*
X37184Y-37786D01*
X37210Y-37799D01*
X37221Y-37804D01*
X37220Y-37805D02*
X37010Y-38325D01*
X37010Y-38325D02*
X36880Y-38260D01*
X36880Y-38260D02*
X36637Y-38458D01*
X36637Y-38458D02*
X36392Y-38213D01*
X36392Y-38213D02*
X36590Y-37970D01*
X36590Y-37970D02*
X36480Y-37720D01*
X36480Y-37720D02*
X36170Y-37675D01*
X36170Y-37675D02*
X36170Y-37325D01*
X36170Y-37325D02*
X36480Y-37280D01*
X36480Y-37280D02*
X36590Y-37030D01*
X36590Y-37030D02*
X36392Y-36787D01*
X36392Y-36787D02*
X36637Y-36542D01*
X36637Y-36542D02*
X36880Y-36740D01*
X36880Y-36740D02*
X37130Y-36630D01*
X37130Y-36630D02*
X37175Y-36320D01*
X37175Y-36320D02*
X37525Y-36320D01*
X37525Y-36320D02*
X37570Y-36630D01*
X37570Y-36630D02*
X37820Y-36740D01*
X37820Y-36740D02*
X38063Y-36542D01*
X38063Y-36542D02*
X38308Y-36787D01*
X38308Y-36787D02*
X38110Y-37030D01*
X38110Y-37030D02*
X38220Y-37280D01*
X38220Y-37280D02*
X38530Y-37325D01*
X38530Y-37325D02*
X38530Y-37675D01*
X38530Y-37675D02*
X38220Y-37720D01*
X38220Y-37720D02*
X38110Y-37970D01*
X38110Y-37970D02*
X38308Y-38213D01*
X38308Y-38213D02*
X38063Y-38458D01*
X38063Y-38458D02*
X37820Y-38260D01*
X37820Y-38260D02*
X37690Y-38325D01*
X37690Y-38325D02*
X37480Y-37805D01*
G54D11*
X44700Y-45000D02*
X44700Y-45000D01*
X44775Y-45000D02*
X44775Y-45000D01*
X44850Y-45000D02*
X44850Y-45000D01*
X44925Y-45000D02*
X44925Y-45000D01*
X45000Y-45000D02*
X45000Y-45000D01*
X45075Y-45000D02*
X45075Y-45000D01*
X45150Y-45000D02*
X45150Y-45000D01*
X45225Y-45000D02*
X45225Y-45000D01*
X44700Y-45075D02*
X44700Y-45075D01*
X44775Y-45075D02*
X44775Y-45075D01*
X44850Y-45075D02*
X44850Y-45075D01*
X44925Y-45075D02*
X44925Y-45075D01*
X45000Y-45075D02*
X45000Y-45075D01*
X45075Y-45075D02*
X45075Y-45075D01*
X45150Y-45075D02*
X45150Y-45075D01*
X45225Y-45075D02*
X45225Y-45075D01*
X44925Y-45150D02*
X44925Y-45150D01*
X45000Y-45150D02*
X45000Y-45150D01*
X44925Y-45225D02*
X44925Y-45225D01*
X45000Y-45225D02*
X45000Y-45225D01*
X44925Y-45300D02*
X44925Y-45300D01*
X45000Y-45300D02*
X45000Y-45300D01*
X44925Y-45375D02*
X44925Y-45375D01*
X45000Y-45375D02*
X45000Y-45375D01*
X44925Y-45450D02*
X44925Y-45450D01*
X45000Y-45450D02*
X45000Y-45450D01*
X44925Y-45525D02*
X44925Y-45525D01*
X45000Y-45525D02*
X45000Y-45525D01*
X44925Y-45600D02*
X44925Y-45600D01*
X45000Y-45600D02*
X45000Y-45600D01*
X44925Y-45675D02*
X44925Y-45675D01*
X45000Y-45675D02*
X45000Y-45675D01*
X44700Y-45750D02*
X44700Y-45750D01*
X44775Y-45750D02*
X44775Y-45750D01*
X44850Y-45750D02*
X44850Y-45750D01*
X44925Y-45750D02*
X44925Y-45750D01*
X45000Y-45750D02*
X45000Y-45750D01*
X45075Y-45750D02*
X45075Y-45750D01*
X45150Y-45750D02*
X45150Y-45750D01*
X45225Y-45750D02*
X45225Y-45750D01*
X44700Y-45825D02*
X44700Y-45825D01*
X44775Y-45825D02*
X44775Y-45825D01*
X44850Y-45825D02*
X44850Y-45825D01*
X44925Y-45825D02*
X44925Y-45825D01*
X45000Y-45825D02*
X45000Y-45825D01*
X45075Y-45825D02*
X45075Y-45825D01*
X45150Y-45825D02*
X45150Y-45825D01*
X45225Y-45825D02*
X45225Y-45825D01*
X45525Y-45825D02*
X45525Y-45825D01*
X45600Y-45825D02*
X45600Y-45825D01*
X46125Y-45825D02*
X46125Y-45825D01*
X46200Y-45825D02*
X46200Y-45825D01*
X45525Y-45750D02*
X45525Y-45750D01*
X45600Y-45750D02*
X45600Y-45750D01*
X46125Y-45750D02*
X46125Y-45750D01*
X46200Y-45750D02*
X46200Y-45750D01*
X45525Y-45675D02*
X45525Y-45675D01*
X45600Y-45675D02*
X45600Y-45675D01*
X46125Y-45675D02*
X46125Y-45675D01*
X46200Y-45675D02*
X46200Y-45675D01*
X45525Y-45600D02*
X45525Y-45600D01*
X45600Y-45600D02*
X45600Y-45600D01*
X46125Y-45600D02*
X46125Y-45600D01*
X46200Y-45600D02*
X46200Y-45600D01*
X45525Y-45525D02*
X45525Y-45525D01*
X45600Y-45525D02*
X45600Y-45525D01*
X46125Y-45525D02*
X46125Y-45525D01*
X46200Y-45525D02*
X46200Y-45525D01*
X45525Y-45450D02*
X45525Y-45450D01*
X45600Y-45450D02*
X45600Y-45450D01*
X46125Y-45450D02*
X46125Y-45450D01*
X46200Y-45450D02*
X46200Y-45450D01*
X45525Y-45375D02*
X45525Y-45375D01*
X45600Y-45375D02*
X45600Y-45375D01*
X45675Y-45375D02*
X45675Y-45375D01*
X46125Y-45375D02*
X46125Y-45375D01*
X46200Y-45375D02*
X46200Y-45375D01*
X45525Y-45300D02*
X45525Y-45300D01*
X45600Y-45300D02*
X45600Y-45300D01*
X45675Y-45300D02*
X45675Y-45300D01*
X45750Y-45300D02*
X45750Y-45300D01*
X45825Y-45300D02*
X45825Y-45300D01*
X45900Y-45300D02*
X45900Y-45300D01*
X45975Y-45300D02*
X45975Y-45300D01*
X46050Y-45300D02*
X46050Y-45300D01*
X46125Y-45300D02*
X46125Y-45300D01*
X45525Y-45225D02*
X45525Y-45225D01*
X45600Y-45225D02*
X45600Y-45225D01*
X45825Y-45225D02*
X45825Y-45225D01*
X45900Y-45225D02*
X45900Y-45225D01*
X45975Y-45225D02*
X45975Y-45225D01*
X46050Y-45225D02*
X46050Y-45225D01*
X46425Y-45825D02*
X46425Y-45825D01*
X46500Y-45825D02*
X46500Y-45825D01*
X47025Y-45825D02*
X47025Y-45825D01*
X47100Y-45825D02*
X47100Y-45825D01*
X46425Y-45750D02*
X46425Y-45750D01*
X46500Y-45750D02*
X46500Y-45750D01*
X46950Y-45750D02*
X46950Y-45750D01*
X47025Y-45750D02*
X47025Y-45750D01*
X46425Y-45675D02*
X46425Y-45675D01*
X46500Y-45675D02*
X46500Y-45675D01*
X46875Y-45675D02*
X46875Y-45675D01*
X46950Y-45675D02*
X46950Y-45675D01*
X46425Y-45600D02*
X46425Y-45600D01*
X46500Y-45600D02*
X46500Y-45600D01*
X46800Y-45600D02*
X46800Y-45600D01*
X46875Y-45600D02*
X46875Y-45600D01*
X46425Y-45525D02*
X46425Y-45525D01*
X46500Y-45525D02*
X46500Y-45525D01*
X46725Y-45525D02*
X46725Y-45525D01*
X46800Y-45525D02*
X46800Y-45525D01*
X46425Y-45450D02*
X46425Y-45450D01*
X46500Y-45450D02*
X46500Y-45450D01*
X46575Y-45450D02*
X46575Y-45450D01*
X46650Y-45450D02*
X46650Y-45450D01*
X46725Y-45450D02*
X46725Y-45450D01*
X46425Y-45375D02*
X46425Y-45375D01*
X46500Y-45375D02*
X46500Y-45375D01*
X46650Y-45375D02*
X46650Y-45375D01*
X46725Y-45375D02*
X46725Y-45375D01*
X46425Y-45300D02*
X46425Y-45300D01*
X46500Y-45300D02*
X46500Y-45300D01*
X46725Y-45300D02*
X46725Y-45300D01*
X46800Y-45300D02*
X46800Y-45300D01*
X46425Y-45225D02*
X46425Y-45225D01*
X46500Y-45225D02*
X46500Y-45225D01*
X46800Y-45225D02*
X46800Y-45225D01*
X46875Y-45225D02*
X46875Y-45225D01*
X46425Y-45150D02*
X46425Y-45150D01*
X46500Y-45150D02*
X46500Y-45150D01*
X46425Y-45075D02*
X46425Y-45075D01*
X46500Y-45075D02*
X46500Y-45075D01*
X46425Y-45000D02*
X46425Y-45000D01*
X46500Y-45000D02*
X46500Y-45000D01*
X47550Y-45825D02*
X47550Y-45825D01*
X47625Y-45825D02*
X47625Y-45825D01*
X47700Y-45825D02*
X47700Y-45825D01*
X47775Y-45825D02*
X47775Y-45825D01*
X47400Y-45750D02*
X47400Y-45750D01*
X47475Y-45750D02*
X47475Y-45750D01*
X47550Y-45750D02*
X47550Y-45750D01*
X47775Y-45750D02*
X47775Y-45750D01*
X47850Y-45750D02*
X47850Y-45750D01*
X47925Y-45750D02*
X47925Y-45750D01*
X47325Y-45675D02*
X47325Y-45675D01*
X47400Y-45675D02*
X47400Y-45675D01*
X47925Y-45675D02*
X47925Y-45675D01*
X48000Y-45675D02*
X48000Y-45675D01*
X47325Y-45600D02*
X47325Y-45600D01*
X47400Y-45600D02*
X47400Y-45600D01*
X47925Y-45600D02*
X47925Y-45600D01*
X48000Y-45600D02*
X48000Y-45600D01*
X47775Y-45525D02*
X47775Y-45525D01*
X47850Y-45525D02*
X47850Y-45525D01*
X47925Y-45525D02*
X47925Y-45525D01*
X47625Y-45450D02*
X47625Y-45450D01*
X47700Y-45450D02*
X47700Y-45450D01*
X47775Y-45450D02*
X47775Y-45450D01*
X47850Y-45450D02*
X47850Y-45450D01*
X47475Y-45375D02*
X47475Y-45375D01*
X47550Y-45375D02*
X47550Y-45375D01*
X47625Y-45375D02*
X47625Y-45375D01*
X47700Y-45375D02*
X47700Y-45375D01*
X47400Y-45300D02*
X47400Y-45300D01*
X47475Y-45300D02*
X47475Y-45300D01*
X47550Y-45300D02*
X47550Y-45300D01*
X47325Y-45225D02*
X47325Y-45225D01*
X47400Y-45225D02*
X47400Y-45225D01*
X47925Y-45225D02*
X47925Y-45225D01*
X48000Y-45225D02*
X48000Y-45225D01*
X47325Y-45150D02*
X47325Y-45150D01*
X47400Y-45150D02*
X47400Y-45150D01*
X47925Y-45150D02*
X47925Y-45150D01*
X48000Y-45150D02*
X48000Y-45150D01*
X47400Y-45075D02*
X47400Y-45075D01*
X47475Y-45075D02*
X47475Y-45075D01*
X47550Y-45075D02*
X47550Y-45075D01*
X47775Y-45075D02*
X47775Y-45075D01*
X47850Y-45075D02*
X47850Y-45075D01*
X47925Y-45075D02*
X47925Y-45075D01*
X47550Y-45000D02*
X47550Y-45000D01*
X47625Y-45000D02*
X47625Y-45000D01*
X47700Y-45000D02*
X47700Y-45000D01*
X47775Y-45000D02*
X47775Y-45000D01*
X48225Y-45863D02*
X48225Y-45863D01*
X48300Y-45863D02*
X48300Y-45863D01*
X48825Y-45863D02*
X48825Y-45863D01*
X48900Y-45863D02*
X48900Y-45863D01*
X48225Y-45788D02*
X48225Y-45788D01*
X48300Y-45788D02*
X48300Y-45788D01*
X48825Y-45788D02*
X48825Y-45788D01*
X48900Y-45788D02*
X48900Y-45788D01*
X48225Y-45713D02*
X48225Y-45713D01*
X48300Y-45713D02*
X48300Y-45713D01*
X48825Y-45713D02*
X48825Y-45713D01*
X48900Y-45713D02*
X48900Y-45713D01*
X48225Y-45638D02*
X48225Y-45638D01*
X48300Y-45638D02*
X48300Y-45638D01*
X48825Y-45638D02*
X48825Y-45638D01*
X48900Y-45638D02*
X48900Y-45638D01*
X48225Y-45563D02*
X48225Y-45563D01*
X48300Y-45563D02*
X48300Y-45563D01*
X48825Y-45563D02*
X48825Y-45563D01*
X48900Y-45563D02*
X48900Y-45563D01*
X48225Y-45488D02*
X48225Y-45488D01*
X48300Y-45488D02*
X48300Y-45488D01*
X48825Y-45488D02*
X48825Y-45488D01*
X48900Y-45488D02*
X48900Y-45488D01*
X48225Y-45412D02*
X48225Y-45412D01*
X48300Y-45412D02*
X48300Y-45412D01*
X48825Y-45412D02*
X48825Y-45412D01*
X48900Y-45412D02*
X48900Y-45412D01*
X48225Y-45337D02*
X48225Y-45337D01*
X48300Y-45337D02*
X48300Y-45337D01*
X48375Y-45337D02*
X48375Y-45337D01*
X48450Y-45337D02*
X48450Y-45337D01*
X48525Y-45337D02*
X48525Y-45337D01*
X48600Y-45337D02*
X48600Y-45337D01*
X48675Y-45337D02*
X48675Y-45337D01*
X48750Y-45337D02*
X48750Y-45337D01*
X48825Y-45337D02*
X48825Y-45337D01*
X48225Y-45262D02*
X48225Y-45262D01*
X48300Y-45262D02*
X48300Y-45262D01*
X48375Y-45412D02*
X48375Y-45412D01*
X48450Y-45262D02*
X48450Y-45262D01*
X48525Y-45262D02*
X48525Y-45262D01*
X48600Y-45262D02*
X48600Y-45262D01*
X48675Y-45262D02*
X48675Y-45262D01*
X48750Y-45262D02*
X48750Y-45262D01*
X48225Y-45187D02*
X48225Y-45187D01*
X48300Y-45187D02*
X48300Y-45187D01*
X48225Y-45112D02*
X48225Y-45112D01*
X48300Y-45112D02*
X48300Y-45112D01*
X48225Y-45037D02*
X48225Y-45037D01*
X48300Y-45037D02*
X48300Y-45037D01*
X49350Y-45863D02*
X49350Y-45863D01*
X49425Y-45863D02*
X49425Y-45863D01*
X49500Y-45863D02*
X49500Y-45863D01*
X49575Y-45863D02*
X49575Y-45863D01*
X49350Y-45788D02*
X49350Y-45788D01*
X49425Y-45788D02*
X49425Y-45788D01*
X49500Y-45788D02*
X49500Y-45788D01*
X49575Y-45788D02*
X49575Y-45788D01*
X49425Y-45713D02*
X49425Y-45713D01*
X49500Y-45713D02*
X49500Y-45713D01*
X49425Y-45638D02*
X49425Y-45638D01*
X49500Y-45638D02*
X49500Y-45638D01*
X49425Y-45563D02*
X49425Y-45563D01*
X49500Y-45563D02*
X49500Y-45563D01*
X49425Y-45488D02*
X49425Y-45488D01*
X49500Y-45488D02*
X49500Y-45488D01*
X49425Y-45412D02*
X49425Y-45412D01*
X49500Y-45412D02*
X49500Y-45412D01*
X49425Y-45337D02*
X49425Y-45337D01*
X49500Y-45337D02*
X49500Y-45337D01*
X49500Y-45262D02*
X49500Y-45262D01*
X49425Y-45112D02*
X49425Y-45112D01*
X49500Y-45112D02*
X49500Y-45112D01*
X49425Y-45037D02*
X49425Y-45037D01*
X49500Y-45037D02*
X49500Y-45037D01*
X50175Y-45863D02*
X50175Y-45863D01*
X50250Y-45863D02*
X50250Y-45863D01*
X50325Y-45863D02*
X50325Y-45863D01*
X50400Y-45863D02*
X50400Y-45863D01*
X50475Y-45863D02*
X50475Y-45863D01*
X50550Y-45863D02*
X50550Y-45863D01*
X50100Y-45788D02*
X50100Y-45788D01*
X50175Y-45788D02*
X50175Y-45788D01*
X50250Y-45788D02*
X50250Y-45788D01*
X50325Y-45788D02*
X50325Y-45788D01*
X50400Y-45788D02*
X50400Y-45788D01*
X50475Y-45788D02*
X50475Y-45788D01*
X50550Y-45788D02*
X50550Y-45788D01*
X50625Y-45788D02*
X50625Y-45788D01*
X50025Y-45713D02*
X50025Y-45713D01*
X50100Y-45713D02*
X50100Y-45713D01*
X50625Y-45713D02*
X50625Y-45713D01*
X50700Y-45713D02*
X50700Y-45713D01*
X50025Y-45638D02*
X50025Y-45638D01*
X50100Y-45638D02*
X50100Y-45638D01*
X50025Y-45563D02*
X50025Y-45563D01*
X50100Y-45563D02*
X50100Y-45563D01*
X50175Y-45563D02*
X50175Y-45563D01*
X50250Y-45563D02*
X50250Y-45563D01*
X50325Y-45563D02*
X50325Y-45563D01*
X50400Y-45563D02*
X50400Y-45563D01*
X50475Y-45563D02*
X50475Y-45563D01*
X50550Y-45563D02*
X50550Y-45563D01*
X50625Y-45563D02*
X50625Y-45563D01*
X50025Y-45488D02*
X50025Y-45488D01*
X50100Y-45488D02*
X50100Y-45488D01*
X50175Y-45488D02*
X50175Y-45488D01*
X50250Y-45488D02*
X50250Y-45488D01*
X50325Y-45488D02*
X50325Y-45488D01*
X50400Y-45488D02*
X50400Y-45488D01*
X50475Y-45488D02*
X50475Y-45488D01*
X50550Y-45488D02*
X50550Y-45488D01*
X50625Y-45488D02*
X50625Y-45488D01*
X50700Y-45488D02*
X50700Y-45488D01*
X50025Y-45412D02*
X50025Y-45412D01*
X50100Y-45412D02*
X50100Y-45412D01*
X50625Y-45412D02*
X50625Y-45412D01*
X50700Y-45412D02*
X50700Y-45412D01*
X50100Y-45337D02*
X50100Y-45337D01*
X50175Y-45337D02*
X50175Y-45337D01*
X50250Y-45337D02*
X50250Y-45337D01*
X50325Y-45337D02*
X50325Y-45337D01*
X50400Y-45337D02*
X50400Y-45337D01*
X50475Y-45337D02*
X50475Y-45337D01*
X50550Y-45337D02*
X50550Y-45337D01*
X50625Y-45337D02*
X50625Y-45337D01*
X50700Y-45337D02*
X50700Y-45337D01*
X50175Y-45262D02*
X50175Y-45262D01*
X50250Y-45262D02*
X50250Y-45262D01*
X50325Y-45262D02*
X50325Y-45262D01*
X50400Y-45262D02*
X50400Y-45262D01*
X50475Y-45262D02*
X50475Y-45262D01*
X50550Y-45262D02*
X50550Y-45262D01*
X50625Y-45262D02*
X50625Y-45262D01*
X51225Y-45863D02*
X51225Y-45863D01*
X51300Y-45863D02*
X51300Y-45863D01*
X51375Y-45863D02*
X51375Y-45863D01*
X51225Y-45788D02*
X51225Y-45788D01*
X51300Y-45788D02*
X51300Y-45788D01*
X51375Y-45788D02*
X51375Y-45788D01*
X51225Y-45713D02*
X51225Y-45713D01*
X51300Y-45713D02*
X51300Y-45713D01*
X51225Y-45638D02*
X51225Y-45638D01*
X51300Y-45638D02*
X51300Y-45638D01*
X51225Y-45563D02*
X51225Y-45563D01*
X51300Y-45563D02*
X51300Y-45563D01*
X51225Y-45488D02*
X51225Y-45488D01*
X51300Y-45488D02*
X51300Y-45488D01*
X51225Y-45412D02*
X51225Y-45412D01*
X51300Y-45412D02*
X51300Y-45412D01*
X51225Y-45337D02*
X51225Y-45337D01*
X51300Y-45337D02*
X51300Y-45337D01*
X51225Y-45262D02*
X51225Y-45262D01*
X51300Y-45262D02*
X51300Y-45262D01*
X51225Y-45187D02*
X51225Y-45187D01*
X51300Y-45187D02*
X51300Y-45187D01*
X51225Y-45112D02*
X51225Y-45112D01*
X51300Y-45112D02*
X51300Y-45112D01*
X51225Y-45037D02*
X51225Y-45037D01*
X51300Y-45037D02*
X51300Y-45037D01*
X51975Y-45863D02*
X51975Y-45863D01*
X52050Y-45863D02*
X52050Y-45863D01*
X52125Y-45863D02*
X52125Y-45863D01*
X52200Y-45863D02*
X52200Y-45863D01*
X52275Y-45863D02*
X52275Y-45863D01*
X52350Y-45863D02*
X52350Y-45863D01*
X52425Y-45863D02*
X52425Y-45863D01*
X52500Y-45863D02*
X52500Y-45863D01*
X51900Y-45788D02*
X51900Y-45788D01*
X51975Y-45788D02*
X51975Y-45788D01*
X52050Y-45788D02*
X52050Y-45788D01*
X52125Y-45788D02*
X52125Y-45788D01*
X52200Y-45788D02*
X52200Y-45788D01*
X52275Y-45788D02*
X52275Y-45788D01*
X52350Y-45788D02*
X52350Y-45788D01*
X52425Y-45788D02*
X52425Y-45788D01*
X52500Y-45788D02*
X52500Y-45788D01*
X51825Y-45713D02*
X51825Y-45713D01*
X51900Y-45713D02*
X51900Y-45713D01*
X52425Y-45713D02*
X52425Y-45713D01*
X52500Y-45713D02*
X52500Y-45713D01*
X51825Y-45638D02*
X51825Y-45638D01*
X51900Y-45638D02*
X51900Y-45638D01*
X52425Y-45638D02*
X52425Y-45638D01*
X52500Y-45638D02*
X52500Y-45638D01*
X51825Y-45563D02*
X51825Y-45563D01*
X51900Y-45563D02*
X51900Y-45563D01*
X52425Y-45563D02*
X52425Y-45563D01*
X52500Y-45563D02*
X52500Y-45563D01*
X51825Y-45488D02*
X51825Y-45488D01*
X51900Y-45488D02*
X51900Y-45488D01*
X52425Y-45488D02*
X52425Y-45488D01*
X52500Y-45488D02*
X52500Y-45488D01*
X51825Y-45412D02*
X51825Y-45412D01*
X51900Y-45412D02*
X51900Y-45412D01*
X52425Y-45412D02*
X52425Y-45412D01*
X52500Y-45412D02*
X52500Y-45412D01*
X51900Y-45337D02*
X51900Y-45337D01*
X51975Y-45337D02*
X51975Y-45337D01*
X52050Y-45337D02*
X52050Y-45337D01*
X52125Y-45337D02*
X52125Y-45337D01*
X52200Y-45337D02*
X52200Y-45337D01*
X52275Y-45337D02*
X52275Y-45337D01*
X52350Y-45337D02*
X52350Y-45337D01*
X52425Y-45337D02*
X52425Y-45337D01*
X52500Y-45337D02*
X52500Y-45337D01*
X51975Y-45262D02*
X51975Y-45262D01*
X52050Y-45262D02*
X52050Y-45262D01*
X52125Y-45262D02*
X52125Y-45262D01*
X52200Y-45262D02*
X52200Y-45262D01*
X52275Y-45262D02*
X52275Y-45262D01*
X52350Y-45262D02*
X52350Y-45262D01*
X52425Y-45262D02*
X52425Y-45262D01*
X52500Y-45262D02*
X52500Y-45262D01*
X52425Y-45187D02*
X52425Y-45187D01*
X52500Y-45187D02*
X52500Y-45187D01*
X52425Y-45112D02*
X52425Y-45112D01*
X52500Y-45112D02*
X52500Y-45112D01*
X52425Y-45037D02*
X52425Y-45037D01*
X52500Y-45037D02*
X52500Y-45037D01*
G54D15*
X65350Y-34350D02*
X69350Y-34350D01*
X69350Y-34350D02*
X69350Y-36350D01*
X69350Y-36350D02*
X65350Y-36350D01*
X65350Y-36350D02*
X65350Y-34350D01*
X65350Y-36350D02*
X61350Y-36350D01*
X61350Y-36350D02*
X61350Y-34350D01*
X61350Y-34350D02*
X65350Y-34350D01*
X65350Y-34350D02*
X65350Y-36350D01*
X51750Y-36050D02*
X46750Y-36050D01*
X46750Y-36050D02*
X46750Y-34050D01*
X46750Y-34050D02*
X51750Y-34050D01*
X51750Y-34050D02*
X51750Y-36050D01*
X58350Y-36050D02*
X52350Y-36050D01*
X52350Y-36050D02*
X52350Y-34050D01*
X52350Y-34050D02*
X58350Y-34050D01*
X58350Y-34050D02*
X58350Y-36050D01*
G54D16*
X35650Y-32950D02*
X38250Y-32950D01*
X38250Y-32950D02*
X38250Y-35550D01*
X38250Y-35550D02*
X35650Y-35550D01*
X35650Y-35550D02*
X35650Y-32950D01*
X37830Y-34250D02*
X37813Y-34420D01*
X37763Y-34585D01*
X37682Y-34736D01*
X37574Y-34870D01*
X37442Y-34979D01*
X37291Y-35061D01*
X37126Y-35112D01*
X36956Y-35129D01*
X36786Y-35114D01*
X36621Y-35065D01*
X36469Y-34986D01*
X36335Y-34878D01*
X36224Y-34747D01*
X36142Y-34596D01*
X36090Y-34432D01*
X36071Y-34262D01*
X36085Y-34092D01*
X36132Y-33927D01*
X36211Y-33774D01*
X36317Y-33639D01*
X36448Y-33528D01*
X36598Y-33444D01*
X36762Y-33391D01*
X36932Y-33371D01*
X37102Y-33384D01*
X37268Y-33430D01*
X37421Y-33507D01*
X37556Y-33613D01*
X37669Y-33743D01*
X37753Y-33893D01*
X37808Y-34056D01*
X37829Y-34226D01*
X37830Y-34250D01*
G54D15*
X35800Y-51100D02*
X36800Y-51100D01*
X36800Y-51100D02*
X36800Y-53100D01*
X36800Y-53100D02*
X35800Y-53100D01*
X35800Y-53100D02*
X35800Y-51100D01*
G54D12*
X36450Y-45400D02*
X36450Y-41400D01*
X36450Y-41400D02*
X38450Y-41400D01*
X38450Y-41400D02*
X38450Y-45400D01*
X38450Y-45400D02*
X36450Y-45400D01*
X64850Y-47550D02*
X64850Y-38550D01*
X64850Y-38550D02*
X66850Y-38550D01*
X66850Y-38550D02*
X66850Y-47550D01*
X66850Y-47550D02*
X64850Y-47550D01*
G54D14*
X67563Y-48574D02*
X67563Y-39126D01*
X67563Y-39126D02*
X70319Y-39126D01*
X70319Y-39126D02*
X70319Y-48574D01*
X70319Y-48574D02*
X67563Y-48574D01*
G54D12*
X42950Y-37050D02*
X39950Y-37050D01*
X39950Y-37050D02*
X39950Y-35050D01*
X39950Y-35050D02*
X42950Y-35050D01*
X42950Y-35050D02*
X42950Y-37050D01*
X40522Y-52434D02*
X40522Y-49284D01*
X43278Y-49284D02*
X43278Y-52434D01*
X43278Y-48497D02*
X40522Y-48497D01*
X43278Y-53221D02*
X40522Y-53221D01*
X43278Y-49285D02*
X43312Y-49283D01*
X43346Y-49279D01*
X43379Y-49271D01*
X43412Y-49261D01*
X43444Y-49248D01*
X43475Y-49232D01*
X43503Y-49213D01*
X43531Y-49192D01*
X43556Y-49169D01*
X43579Y-49144D01*
X43600Y-49116D01*
X43619Y-49087D01*
X43635Y-49057D01*
X43648Y-49025D01*
X43658Y-48992D01*
X43666Y-48959D01*
X43670Y-48925D01*
X43672Y-48891D01*
X40129Y-48891D02*
X40131Y-48925D01*
X40135Y-48959D01*
X40143Y-48992D01*
X40153Y-49025D01*
X40166Y-49057D01*
X40182Y-49087D01*
X40201Y-49116D01*
X40221Y-49143D01*
X40245Y-49168D01*
X40270Y-49192D01*
X40297Y-49212D01*
X40326Y-49231D01*
X40356Y-49247D01*
X40388Y-49260D01*
X40421Y-49270D01*
X40454Y-49278D01*
X40488Y-49282D01*
X40522Y-49284D01*
X40522Y-52434D02*
X40488Y-52436D01*
X40454Y-52440D01*
X40421Y-52448D01*
X40388Y-52458D01*
X40356Y-52471D01*
X40326Y-52487D01*
X40297Y-52506D01*
X40269Y-52527D01*
X40244Y-52550D01*
X40221Y-52575D01*
X40200Y-52603D01*
X40181Y-52632D01*
X40165Y-52662D01*
X40152Y-52694D01*
X40142Y-52727D01*
X40134Y-52760D01*
X40130Y-52794D01*
X40128Y-52828D01*
X43672Y-52828D02*
X43670Y-52794D01*
X43666Y-52760D01*
X43658Y-52727D01*
X43648Y-52694D01*
X43635Y-52662D01*
X43619Y-52632D01*
X43600Y-52603D01*
X43579Y-52575D01*
X43556Y-52550D01*
X43531Y-52527D01*
X43503Y-52506D01*
X43475Y-52487D01*
X43444Y-52471D01*
X43412Y-52458D01*
X43379Y-52448D01*
X43346Y-52440D01*
X43312Y-52436D01*
X43278Y-52434D01*
X40522Y-48497D02*
X40488Y-48499D01*
X40454Y-48503D01*
X40421Y-48511D01*
X40388Y-48521D01*
X40356Y-48534D01*
X40326Y-48550D01*
X40297Y-48569D01*
X40269Y-48590D01*
X40244Y-48613D01*
X40221Y-48638D01*
X40200Y-48666D01*
X40181Y-48695D01*
X40165Y-48725D01*
X40152Y-48757D01*
X40142Y-48790D01*
X40134Y-48823D01*
X40130Y-48857D01*
X40128Y-48891D01*
X43672Y-48891D02*
X43670Y-48857D01*
X43666Y-48823D01*
X43658Y-48790D01*
X43648Y-48757D01*
X43635Y-48725D01*
X43619Y-48695D01*
X43600Y-48666D01*
X43579Y-48638D01*
X43556Y-48613D01*
X43531Y-48590D01*
X43503Y-48569D01*
X43475Y-48550D01*
X43444Y-48534D01*
X43412Y-48521D01*
X43379Y-48511D01*
X43346Y-48503D01*
X43312Y-48499D01*
X43278Y-48497D01*
X43278Y-53222D02*
X43312Y-53220D01*
X43346Y-53216D01*
X43379Y-53208D01*
X43412Y-53198D01*
X43444Y-53185D01*
X43475Y-53169D01*
X43503Y-53150D01*
X43531Y-53129D01*
X43556Y-53106D01*
X43579Y-53081D01*
X43600Y-53053D01*
X43619Y-53024D01*
X43635Y-52994D01*
X43648Y-52962D01*
X43658Y-52929D01*
X43666Y-52896D01*
X43670Y-52862D01*
X43672Y-52828D01*
X40129Y-52828D02*
X40131Y-52862D01*
X40135Y-52896D01*
X40143Y-52929D01*
X40153Y-52962D01*
X40166Y-52994D01*
X40182Y-53024D01*
X40201Y-53053D01*
X40221Y-53080D01*
X40245Y-53105D01*
X40270Y-53129D01*
X40297Y-53149D01*
X40326Y-53168D01*
X40356Y-53184D01*
X40388Y-53197D01*
X40421Y-53207D01*
X40454Y-53215D01*
X40488Y-53219D01*
X40522Y-53221D01*
G54D15*
X46500Y-51950D02*
X46500Y-52950D01*
X46500Y-52950D02*
X44500Y-52950D01*
X44500Y-52950D02*
X44500Y-51950D01*
X44500Y-51950D02*
X46500Y-51950D01*
G54D13*
X69162Y-38895D02*
X68762Y-38895D01*
X68762Y-38800D01*
X68781Y-38742D01*
X68819Y-38704D01*
X68857Y-38685D01*
X68933Y-38666D01*
X68990Y-38666D01*
X69067Y-38685D01*
X69105Y-38704D01*
X69143Y-38742D01*
X69162Y-38800D01*
X69162Y-38895D01*
X68762Y-38533D02*
X68762Y-38285D01*
X68914Y-38419D01*
X68914Y-38361D01*
X68933Y-38323D01*
X68952Y-38304D01*
X68990Y-38285D01*
X69086Y-38285D01*
X69124Y-38304D01*
X69143Y-38323D01*
X69162Y-38361D01*
X69162Y-38476D01*
X69143Y-38514D01*
X69124Y-38533D01*
X71312Y-38598D02*
X70912Y-38598D01*
X70912Y-38445D01*
X70931Y-38407D01*
X70950Y-38388D01*
X70988Y-38369D01*
X71045Y-38369D01*
X71083Y-38388D01*
X71102Y-38407D01*
X71121Y-38445D01*
X71121Y-38598D01*
X70912Y-38198D02*
X71236Y-38198D01*
X71274Y-38179D01*
X71293Y-38160D01*
X71312Y-38122D01*
X71312Y-38045D01*
X71293Y-38007D01*
X71274Y-37988D01*
X71236Y-37969D01*
X70912Y-37969D01*
X71312Y-37588D02*
X71312Y-37779D01*
X70912Y-37779D01*
X71293Y-37474D02*
X71312Y-37417D01*
X71312Y-37321D01*
X71293Y-37283D01*
X71274Y-37264D01*
X71236Y-37245D01*
X71198Y-37245D01*
X71160Y-37264D01*
X71140Y-37283D01*
X71121Y-37321D01*
X71102Y-37398D01*
X71083Y-37436D01*
X71064Y-37455D01*
X71026Y-37474D01*
X70988Y-37474D01*
X70950Y-37455D01*
X70931Y-37436D01*
X70912Y-37398D01*
X70912Y-37302D01*
X70931Y-37245D01*
X71102Y-37074D02*
X71102Y-36940D01*
X71312Y-36883D02*
X71312Y-37074D01*
X70912Y-37074D01*
X70912Y-36883D01*
X35555Y-46962D02*
X35555Y-46562D01*
X35650Y-46562D01*
X35708Y-46581D01*
X35746Y-46619D01*
X35765Y-46657D01*
X35784Y-46733D01*
X35784Y-46790D01*
X35765Y-46867D01*
X35746Y-46905D01*
X35708Y-46943D01*
X35650Y-46962D01*
X35555Y-46962D01*
X35936Y-46600D02*
X35955Y-46581D01*
X35993Y-46562D01*
X36089Y-46562D01*
X36127Y-46581D01*
X36146Y-46600D01*
X36165Y-46638D01*
X36165Y-46676D01*
X36146Y-46733D01*
X35917Y-46962D01*
X36165Y-46962D01*
X37512Y-48924D02*
X37112Y-48924D01*
X37112Y-48771D01*
X37131Y-48733D01*
X37150Y-48714D01*
X37188Y-48695D01*
X37245Y-48695D01*
X37283Y-48714D01*
X37302Y-48733D01*
X37321Y-48771D01*
X37321Y-48924D01*
X37112Y-48448D02*
X37112Y-48371D01*
X37131Y-48333D01*
X37169Y-48295D01*
X37245Y-48276D01*
X37379Y-48276D01*
X37455Y-48295D01*
X37493Y-48333D01*
X37512Y-48371D01*
X37512Y-48448D01*
X37493Y-48486D01*
X37455Y-48524D01*
X37379Y-48543D01*
X37245Y-48543D01*
X37169Y-48524D01*
X37131Y-48486D01*
X37112Y-48448D01*
X37112Y-48143D02*
X37512Y-48048D01*
X37226Y-47971D01*
X37512Y-47895D01*
X37112Y-47800D01*
X37302Y-47648D02*
X37302Y-47514D01*
X37512Y-47457D02*
X37512Y-47648D01*
X37112Y-47648D01*
X37112Y-47457D01*
X37512Y-47057D02*
X37321Y-47191D01*
X37512Y-47286D02*
X37112Y-47286D01*
X37112Y-47133D01*
X37131Y-47095D01*
X37150Y-47076D01*
X37188Y-47057D01*
X37245Y-47057D01*
X37283Y-47076D01*
X37302Y-47095D01*
X37321Y-47133D01*
X37321Y-47286D01*
X43874Y-46016D02*
X43893Y-46035D01*
X43912Y-46092D01*
X43912Y-46130D01*
X43893Y-46188D01*
X43855Y-46226D01*
X43817Y-46245D01*
X43740Y-46264D01*
X43683Y-46264D01*
X43607Y-46245D01*
X43569Y-46226D01*
X43531Y-46188D01*
X43512Y-46130D01*
X43512Y-46092D01*
X43531Y-46035D01*
X43550Y-46016D01*
X43550Y-45864D02*
X43531Y-45845D01*
X43512Y-45807D01*
X43512Y-45711D01*
X43531Y-45673D01*
X43550Y-45654D01*
X43588Y-45635D01*
X43626Y-45635D01*
X43683Y-45654D01*
X43912Y-45883D01*
X43912Y-45635D01*
X42327Y-45412D02*
X42098Y-45412D01*
X42212Y-45412D02*
X42212Y-45012D01*
X42174Y-45069D01*
X42136Y-45107D01*
X42098Y-45126D01*
X42498Y-45374D02*
X42517Y-45393D01*
X42498Y-45412D01*
X42479Y-45393D01*
X42498Y-45374D01*
X42498Y-45412D01*
X42879Y-45012D02*
X42688Y-45012D01*
X42669Y-45202D01*
X42688Y-45183D01*
X42726Y-45164D01*
X42822Y-45164D01*
X42860Y-45183D01*
X42879Y-45202D01*
X42898Y-45240D01*
X42898Y-45336D01*
X42879Y-45374D01*
X42860Y-45393D01*
X42822Y-45412D01*
X42726Y-45412D01*
X42688Y-45393D01*
X42669Y-45374D01*
X43069Y-45145D02*
X43069Y-45412D01*
X43069Y-45183D02*
X43088Y-45164D01*
X43126Y-45145D01*
X43184Y-45145D01*
X43222Y-45164D01*
X43241Y-45202D01*
X43241Y-45412D01*
X43565Y-45202D02*
X43431Y-45202D01*
X43431Y-45412D02*
X43431Y-45012D01*
X43622Y-45012D01*
X51084Y-51212D02*
X50950Y-51021D01*
X50855Y-51212D02*
X50855Y-50812D01*
X51008Y-50812D01*
X51046Y-50831D01*
X51065Y-50850D01*
X51084Y-50888D01*
X51084Y-50945D01*
X51065Y-50983D01*
X51046Y-51002D01*
X51008Y-51021D01*
X50855Y-51021D01*
X51217Y-50812D02*
X51465Y-50812D01*
X51331Y-50964D01*
X51389Y-50964D01*
X51427Y-50983D01*
X51446Y-51002D01*
X51465Y-51040D01*
X51465Y-51136D01*
X51446Y-51174D01*
X51427Y-51193D01*
X51389Y-51212D01*
X51274Y-51212D01*
X51236Y-51193D01*
X51217Y-51174D01*
X52884Y-51212D02*
X52655Y-51212D01*
X52769Y-51212D02*
X52769Y-50812D01*
X52731Y-50869D01*
X52693Y-50907D01*
X52655Y-50926D01*
X53112Y-50983D02*
X53074Y-50964D01*
X53055Y-50945D01*
X53036Y-50907D01*
X53036Y-50888D01*
X53055Y-50850D01*
X53074Y-50831D01*
X53112Y-50812D01*
X53189Y-50812D01*
X53227Y-50831D01*
X53246Y-50850D01*
X53265Y-50888D01*
X53265Y-50907D01*
X53246Y-50945D01*
X53227Y-50964D01*
X53189Y-50983D01*
X53112Y-50983D01*
X53074Y-51002D01*
X53055Y-51021D01*
X53036Y-51060D01*
X53036Y-51136D01*
X53055Y-51174D01*
X53074Y-51193D01*
X53112Y-51212D01*
X53189Y-51212D01*
X53227Y-51193D01*
X53246Y-51174D01*
X53265Y-51136D01*
X53265Y-51060D01*
X53246Y-51021D01*
X53227Y-51002D01*
X53189Y-50983D01*
X53512Y-50812D02*
X53551Y-50812D01*
X53589Y-50831D01*
X53608Y-50850D01*
X53627Y-50888D01*
X53646Y-50964D01*
X53646Y-51060D01*
X53627Y-51136D01*
X53608Y-51174D01*
X53589Y-51193D01*
X53551Y-51212D01*
X53512Y-51212D01*
X53474Y-51193D01*
X53455Y-51174D01*
X53436Y-51136D01*
X53417Y-51060D01*
X53417Y-50964D01*
X53436Y-50888D01*
X53455Y-50850D01*
X53474Y-50831D01*
X53512Y-50812D01*
X51084Y-49712D02*
X50950Y-49521D01*
X50855Y-49712D02*
X50855Y-49312D01*
X51008Y-49312D01*
X51046Y-49331D01*
X51065Y-49350D01*
X51084Y-49388D01*
X51084Y-49445D01*
X51065Y-49483D01*
X51046Y-49502D01*
X51008Y-49521D01*
X50855Y-49521D01*
X51427Y-49445D02*
X51427Y-49712D01*
X51331Y-49293D02*
X51236Y-49579D01*
X51484Y-49579D01*
X52626Y-49312D02*
X52874Y-49312D01*
X52740Y-49464D01*
X52798Y-49464D01*
X52836Y-49483D01*
X52855Y-49502D01*
X52874Y-49540D01*
X52874Y-49636D01*
X52855Y-49674D01*
X52836Y-49693D01*
X52798Y-49712D01*
X52683Y-49712D01*
X52645Y-49693D01*
X52626Y-49674D01*
X53007Y-49312D02*
X53255Y-49312D01*
X53121Y-49464D01*
X53179Y-49464D01*
X53217Y-49483D01*
X53236Y-49502D01*
X53255Y-49540D01*
X53255Y-49636D01*
X53236Y-49674D01*
X53217Y-49693D01*
X53179Y-49712D01*
X53064Y-49712D01*
X53026Y-49693D01*
X53007Y-49674D01*
X53426Y-49712D02*
X53426Y-49312D01*
X53655Y-49712D02*
X53483Y-49483D01*
X53655Y-49312D02*
X53426Y-49540D01*
X64984Y-38112D02*
X64850Y-37921D01*
X64755Y-38112D02*
X64755Y-37712D01*
X64908Y-37712D01*
X64946Y-37731D01*
X64965Y-37750D01*
X64984Y-37788D01*
X64984Y-37845D01*
X64965Y-37883D01*
X64946Y-37902D01*
X64908Y-37921D01*
X64755Y-37921D01*
X65327Y-37712D02*
X65250Y-37712D01*
X65212Y-37731D01*
X65193Y-37750D01*
X65155Y-37807D01*
X65136Y-37883D01*
X65136Y-38036D01*
X65155Y-38074D01*
X65174Y-38093D01*
X65212Y-38112D01*
X65289Y-38112D01*
X65327Y-38093D01*
X65346Y-38074D01*
X65365Y-38036D01*
X65365Y-37940D01*
X65346Y-37902D01*
X65327Y-37883D01*
X65289Y-37864D01*
X65212Y-37864D01*
X65174Y-37883D01*
X65155Y-37902D01*
X65136Y-37940D01*
X65936Y-37712D02*
X66184Y-37712D01*
X66050Y-37864D01*
X66108Y-37864D01*
X66146Y-37883D01*
X66165Y-37902D01*
X66184Y-37940D01*
X66184Y-38036D01*
X66165Y-38074D01*
X66146Y-38093D01*
X66108Y-38112D01*
X65993Y-38112D01*
X65955Y-38093D01*
X65936Y-38074D01*
X66431Y-37712D02*
X66470Y-37712D01*
X66508Y-37731D01*
X66527Y-37750D01*
X66546Y-37788D01*
X66565Y-37864D01*
X66565Y-37960D01*
X66546Y-38036D01*
X66527Y-38074D01*
X66508Y-38093D01*
X66470Y-38112D01*
X66431Y-38112D01*
X66393Y-38093D01*
X66374Y-38074D01*
X66355Y-38036D01*
X66336Y-37960D01*
X66336Y-37864D01*
X66355Y-37788D01*
X66374Y-37750D01*
X66393Y-37731D01*
X66431Y-37712D01*
X66812Y-37712D02*
X66851Y-37712D01*
X66889Y-37731D01*
X66908Y-37750D01*
X66927Y-37788D01*
X66946Y-37864D01*
X66946Y-37960D01*
X66927Y-38036D01*
X66908Y-38074D01*
X66889Y-38093D01*
X66851Y-38112D01*
X66812Y-38112D01*
X66774Y-38093D01*
X66755Y-38074D01*
X66736Y-38036D01*
X66717Y-37960D01*
X66717Y-37864D01*
X66736Y-37788D01*
X66755Y-37750D01*
X66774Y-37731D01*
X66812Y-37712D01*
X38384Y-49662D02*
X38250Y-49471D01*
X38155Y-49662D02*
X38155Y-49262D01*
X38308Y-49262D01*
X38346Y-49281D01*
X38365Y-49300D01*
X38384Y-49338D01*
X38384Y-49395D01*
X38365Y-49433D01*
X38346Y-49452D01*
X38308Y-49471D01*
X38155Y-49471D01*
X38746Y-49262D02*
X38555Y-49262D01*
X38536Y-49452D01*
X38555Y-49433D01*
X38593Y-49414D01*
X38689Y-49414D01*
X38727Y-49433D01*
X38746Y-49452D01*
X38765Y-49490D01*
X38765Y-49586D01*
X38746Y-49624D01*
X38727Y-49643D01*
X38689Y-49662D01*
X38593Y-49662D01*
X38555Y-49643D01*
X38536Y-49624D01*
X36736Y-49262D02*
X36984Y-49262D01*
X36850Y-49414D01*
X36908Y-49414D01*
X36946Y-49433D01*
X36965Y-49452D01*
X36984Y-49490D01*
X36984Y-49586D01*
X36965Y-49624D01*
X36946Y-49643D01*
X36908Y-49662D01*
X36793Y-49662D01*
X36755Y-49643D01*
X36736Y-49624D01*
X37231Y-49262D02*
X37270Y-49262D01*
X37308Y-49281D01*
X37327Y-49300D01*
X37346Y-49338D01*
X37365Y-49414D01*
X37365Y-49510D01*
X37346Y-49586D01*
X37327Y-49624D01*
X37308Y-49643D01*
X37270Y-49662D01*
X37231Y-49662D01*
X37193Y-49643D01*
X37174Y-49624D01*
X37155Y-49586D01*
X37136Y-49510D01*
X37136Y-49414D01*
X37155Y-49338D01*
X37174Y-49300D01*
X37193Y-49281D01*
X37231Y-49262D01*
X37612Y-49262D02*
X37651Y-49262D01*
X37689Y-49281D01*
X37708Y-49300D01*
X37727Y-49338D01*
X37746Y-49414D01*
X37746Y-49510D01*
X37727Y-49586D01*
X37708Y-49624D01*
X37689Y-49643D01*
X37651Y-49662D01*
X37612Y-49662D01*
X37574Y-49643D01*
X37555Y-49624D01*
X37536Y-49586D01*
X37517Y-49510D01*
X37517Y-49414D01*
X37536Y-49338D01*
X37555Y-49300D01*
X37574Y-49281D01*
X37612Y-49262D01*
X53845Y-38712D02*
X53845Y-39036D01*
X53864Y-39074D01*
X53883Y-39093D01*
X53921Y-39112D01*
X53998Y-39112D01*
X54036Y-39093D01*
X54055Y-39074D01*
X54074Y-39036D01*
X54074Y-38712D01*
X54436Y-38845D02*
X54436Y-39112D01*
X54340Y-38693D02*
X54245Y-38979D01*
X54493Y-38979D01*
X56521Y-39312D02*
X56521Y-39636D01*
X56540Y-39674D01*
X56559Y-39693D01*
X56597Y-39712D01*
X56674Y-39712D01*
X56712Y-39693D01*
X56731Y-39674D01*
X56750Y-39636D01*
X56750Y-39312D01*
X57131Y-39712D02*
X56940Y-39712D01*
X56940Y-39312D01*
X57264Y-39712D02*
X57264Y-39312D01*
X57493Y-39712D01*
X57493Y-39312D01*
X57664Y-39350D02*
X57683Y-39331D01*
X57721Y-39312D01*
X57817Y-39312D01*
X57855Y-39331D01*
X57874Y-39350D01*
X57893Y-39388D01*
X57893Y-39426D01*
X57874Y-39483D01*
X57645Y-39712D01*
X57893Y-39712D01*
X58121Y-39483D02*
X58083Y-39464D01*
X58064Y-39445D01*
X58045Y-39407D01*
X58045Y-39388D01*
X58064Y-39350D01*
X58083Y-39331D01*
X58121Y-39312D01*
X58198Y-39312D01*
X58236Y-39331D01*
X58255Y-39350D01*
X58274Y-39388D01*
X58274Y-39407D01*
X58255Y-39445D01*
X58236Y-39464D01*
X58198Y-39483D01*
X58121Y-39483D01*
X58083Y-39502D01*
X58064Y-39521D01*
X58045Y-39560D01*
X58045Y-39636D01*
X58064Y-39674D01*
X58083Y-39693D01*
X58121Y-39712D01*
X58198Y-39712D01*
X58236Y-39693D01*
X58255Y-39674D01*
X58274Y-39636D01*
X58274Y-39560D01*
X58255Y-39521D01*
X58236Y-39502D01*
X58198Y-39483D01*
X58521Y-39312D02*
X58560Y-39312D01*
X58598Y-39331D01*
X58617Y-39350D01*
X58636Y-39388D01*
X58655Y-39464D01*
X58655Y-39560D01*
X58636Y-39636D01*
X58617Y-39674D01*
X58598Y-39693D01*
X58560Y-39712D01*
X58521Y-39712D01*
X58483Y-39693D01*
X58464Y-39674D01*
X58445Y-39636D01*
X58426Y-39560D01*
X58426Y-39464D01*
X58445Y-39388D01*
X58464Y-39350D01*
X58483Y-39331D01*
X58521Y-39312D01*
X58788Y-39312D02*
X59036Y-39312D01*
X58902Y-39464D01*
X58960Y-39464D01*
X58998Y-39483D01*
X59017Y-39502D01*
X59036Y-39540D01*
X59036Y-39636D01*
X59017Y-39674D01*
X58998Y-39693D01*
X58960Y-39712D01*
X58845Y-39712D01*
X58807Y-39693D01*
X58788Y-39674D01*
X59188Y-39598D02*
X59379Y-39598D01*
X59150Y-39712D02*
X59283Y-39312D01*
X59417Y-39712D01*
X59550Y-39712D02*
X59550Y-39312D01*
X59779Y-39712D01*
X59779Y-39312D01*
X53945Y-43312D02*
X53945Y-43636D01*
X53964Y-43674D01*
X53983Y-43693D01*
X54021Y-43712D01*
X54098Y-43712D01*
X54136Y-43693D01*
X54155Y-43674D01*
X54174Y-43636D01*
X54174Y-43312D01*
X54345Y-43350D02*
X54364Y-43331D01*
X54402Y-43312D01*
X54498Y-43312D01*
X54536Y-43331D01*
X54555Y-43350D01*
X54574Y-43388D01*
X54574Y-43426D01*
X54555Y-43483D01*
X54326Y-43712D01*
X54574Y-43712D01*
X56621Y-43912D02*
X56621Y-44236D01*
X56640Y-44274D01*
X56659Y-44293D01*
X56697Y-44312D01*
X56774Y-44312D01*
X56812Y-44293D01*
X56831Y-44274D01*
X56850Y-44236D01*
X56850Y-43912D01*
X57231Y-44312D02*
X57040Y-44312D01*
X57040Y-43912D01*
X57364Y-44312D02*
X57364Y-43912D01*
X57593Y-44312D01*
X57593Y-43912D01*
X57764Y-43950D02*
X57783Y-43931D01*
X57821Y-43912D01*
X57917Y-43912D01*
X57955Y-43931D01*
X57974Y-43950D01*
X57993Y-43988D01*
X57993Y-44026D01*
X57974Y-44083D01*
X57745Y-44312D01*
X57993Y-44312D01*
X58221Y-44083D02*
X58183Y-44064D01*
X58164Y-44045D01*
X58145Y-44007D01*
X58145Y-43988D01*
X58164Y-43950D01*
X58183Y-43931D01*
X58221Y-43912D01*
X58298Y-43912D01*
X58336Y-43931D01*
X58355Y-43950D01*
X58374Y-43988D01*
X58374Y-44007D01*
X58355Y-44045D01*
X58336Y-44064D01*
X58298Y-44083D01*
X58221Y-44083D01*
X58183Y-44102D01*
X58164Y-44121D01*
X58145Y-44160D01*
X58145Y-44236D01*
X58164Y-44274D01*
X58183Y-44293D01*
X58221Y-44312D01*
X58298Y-44312D01*
X58336Y-44293D01*
X58355Y-44274D01*
X58374Y-44236D01*
X58374Y-44160D01*
X58355Y-44121D01*
X58336Y-44102D01*
X58298Y-44083D01*
X58621Y-43912D02*
X58660Y-43912D01*
X58698Y-43931D01*
X58717Y-43950D01*
X58736Y-43988D01*
X58755Y-44064D01*
X58755Y-44160D01*
X58736Y-44236D01*
X58717Y-44274D01*
X58698Y-44293D01*
X58660Y-44312D01*
X58621Y-44312D01*
X58583Y-44293D01*
X58564Y-44274D01*
X58545Y-44236D01*
X58526Y-44160D01*
X58526Y-44064D01*
X58545Y-43988D01*
X58564Y-43950D01*
X58583Y-43931D01*
X58621Y-43912D01*
X58888Y-43912D02*
X59136Y-43912D01*
X59002Y-44064D01*
X59060Y-44064D01*
X59098Y-44083D01*
X59117Y-44102D01*
X59136Y-44140D01*
X59136Y-44236D01*
X59117Y-44274D01*
X59098Y-44293D01*
X59060Y-44312D01*
X58945Y-44312D01*
X58907Y-44293D01*
X58888Y-44274D01*
X59288Y-44198D02*
X59479Y-44198D01*
X59250Y-44312D02*
X59383Y-43912D01*
X59517Y-44312D01*
X59650Y-44312D02*
X59650Y-43912D01*
X59879Y-44312D01*
X59879Y-43912D01*
X40745Y-38712D02*
X40745Y-39036D01*
X40764Y-39074D01*
X40783Y-39093D01*
X40821Y-39112D01*
X40898Y-39112D01*
X40936Y-39093D01*
X40955Y-39074D01*
X40974Y-39036D01*
X40974Y-38712D01*
X41126Y-38712D02*
X41374Y-38712D01*
X41240Y-38864D01*
X41298Y-38864D01*
X41336Y-38883D01*
X41355Y-38902D01*
X41374Y-38940D01*
X41374Y-39036D01*
X41355Y-39074D01*
X41336Y-39093D01*
X41298Y-39112D01*
X41183Y-39112D01*
X41145Y-39093D01*
X41126Y-39074D01*
X45812Y-41174D02*
X45793Y-41193D01*
X45736Y-41212D01*
X45698Y-41212D01*
X45640Y-41193D01*
X45602Y-41155D01*
X45583Y-41117D01*
X45564Y-41040D01*
X45564Y-40983D01*
X45583Y-40907D01*
X45602Y-40869D01*
X45640Y-40831D01*
X45698Y-40812D01*
X45736Y-40812D01*
X45793Y-40831D01*
X45812Y-40850D01*
X45983Y-41212D02*
X45983Y-40812D01*
X46078Y-40812D01*
X46136Y-40831D01*
X46174Y-40869D01*
X46193Y-40907D01*
X46212Y-40983D01*
X46212Y-41040D01*
X46193Y-41117D01*
X46174Y-41155D01*
X46136Y-41193D01*
X46078Y-41212D01*
X45983Y-41212D01*
X46555Y-40945D02*
X46555Y-41212D01*
X46459Y-40793D02*
X46364Y-41079D01*
X46612Y-41079D01*
X46840Y-40812D02*
X46879Y-40812D01*
X46917Y-40831D01*
X46936Y-40850D01*
X46955Y-40888D01*
X46974Y-40964D01*
X46974Y-41060D01*
X46955Y-41136D01*
X46936Y-41174D01*
X46917Y-41193D01*
X46879Y-41212D01*
X46840Y-41212D01*
X46802Y-41193D01*
X46783Y-41174D01*
X46764Y-41136D01*
X46745Y-41060D01*
X46745Y-40964D01*
X46764Y-40888D01*
X46783Y-40850D01*
X46802Y-40831D01*
X46840Y-40812D01*
X47317Y-40812D02*
X47240Y-40812D01*
X47202Y-40831D01*
X47183Y-40850D01*
X47145Y-40907D01*
X47126Y-40983D01*
X47126Y-41136D01*
X47145Y-41174D01*
X47164Y-41193D01*
X47202Y-41212D01*
X47279Y-41212D01*
X47317Y-41193D01*
X47336Y-41174D01*
X47355Y-41136D01*
X47355Y-41040D01*
X47336Y-41002D01*
X47317Y-40983D01*
X47279Y-40964D01*
X47202Y-40964D01*
X47164Y-40983D01*
X47145Y-41002D01*
X47126Y-41040D01*
X47488Y-40812D02*
X47755Y-40812D01*
X47583Y-41212D01*
X50955Y-48562D02*
X50955Y-48162D01*
X51050Y-48162D01*
X51108Y-48181D01*
X51146Y-48219D01*
X51165Y-48257D01*
X51184Y-48333D01*
X51184Y-48390D01*
X51165Y-48467D01*
X51146Y-48505D01*
X51108Y-48543D01*
X51050Y-48562D01*
X50955Y-48562D01*
X51565Y-48562D02*
X51336Y-48562D01*
X51450Y-48562D02*
X51450Y-48162D01*
X51412Y-48219D01*
X51374Y-48257D01*
X51336Y-48276D01*
X51393Y-47762D02*
X51164Y-47762D01*
X51278Y-47762D02*
X51278Y-47362D01*
X51240Y-47419D01*
X51202Y-47457D01*
X51164Y-47476D01*
X51564Y-47762D02*
X51564Y-47362D01*
X51793Y-47762D01*
X51793Y-47362D01*
X52174Y-47362D02*
X51983Y-47362D01*
X51964Y-47552D01*
X51983Y-47533D01*
X52021Y-47514D01*
X52117Y-47514D01*
X52155Y-47533D01*
X52174Y-47552D01*
X52193Y-47590D01*
X52193Y-47686D01*
X52174Y-47724D01*
X52155Y-47743D01*
X52117Y-47762D01*
X52021Y-47762D01*
X51983Y-47743D01*
X51964Y-47724D01*
X52421Y-47533D02*
X52383Y-47514D01*
X52364Y-47495D01*
X52345Y-47457D01*
X52345Y-47438D01*
X52364Y-47400D01*
X52383Y-47381D01*
X52421Y-47362D01*
X52498Y-47362D01*
X52536Y-47381D01*
X52555Y-47400D01*
X52574Y-47438D01*
X52574Y-47457D01*
X52555Y-47495D01*
X52536Y-47514D01*
X52498Y-47533D01*
X52421Y-47533D01*
X52383Y-47552D01*
X52364Y-47571D01*
X52345Y-47610D01*
X52345Y-47686D01*
X52364Y-47724D01*
X52383Y-47743D01*
X52421Y-47762D01*
X52498Y-47762D01*
X52536Y-47743D01*
X52555Y-47724D01*
X52574Y-47686D01*
X52574Y-47610D01*
X52555Y-47571D01*
X52536Y-47552D01*
X52498Y-47533D01*
X52955Y-47762D02*
X52726Y-47762D01*
X52840Y-47762D02*
X52840Y-47362D01*
X52802Y-47419D01*
X52764Y-47457D01*
X52726Y-47476D01*
X53145Y-47762D02*
X53221Y-47762D01*
X53260Y-47743D01*
X53279Y-47724D01*
X53317Y-47667D01*
X53336Y-47590D01*
X53336Y-47438D01*
X53317Y-47400D01*
X53298Y-47381D01*
X53260Y-47362D01*
X53183Y-47362D01*
X53145Y-47381D01*
X53126Y-47400D01*
X53107Y-47438D01*
X53107Y-47533D01*
X53126Y-47571D01*
X53145Y-47590D01*
X53183Y-47610D01*
X53260Y-47610D01*
X53298Y-47590D01*
X53317Y-47571D01*
X53336Y-47533D01*
X45495Y-47562D02*
X45495Y-47886D01*
X45514Y-47924D01*
X45533Y-47943D01*
X45571Y-47962D01*
X45648Y-47962D01*
X45686Y-47943D01*
X45705Y-47924D01*
X45724Y-47886D01*
X45724Y-47562D01*
X46124Y-47962D02*
X45895Y-47962D01*
X46009Y-47962D02*
X46009Y-47562D01*
X45971Y-47619D01*
X45933Y-47657D01*
X45895Y-47676D01*
X45843Y-48562D02*
X45843Y-48162D01*
X45977Y-48448D01*
X46110Y-48162D01*
X46110Y-48562D01*
X46529Y-48524D02*
X46510Y-48543D01*
X46453Y-48562D01*
X46415Y-48562D01*
X46357Y-48543D01*
X46319Y-48505D01*
X46300Y-48467D01*
X46281Y-48390D01*
X46281Y-48333D01*
X46300Y-48257D01*
X46319Y-48219D01*
X46357Y-48181D01*
X46415Y-48162D01*
X46453Y-48162D01*
X46510Y-48181D01*
X46529Y-48200D01*
X46662Y-48162D02*
X46910Y-48162D01*
X46776Y-48314D01*
X46834Y-48314D01*
X46872Y-48333D01*
X46891Y-48352D01*
X46910Y-48390D01*
X46910Y-48486D01*
X46891Y-48524D01*
X46872Y-48543D01*
X46834Y-48562D01*
X46719Y-48562D01*
X46681Y-48543D01*
X46662Y-48524D01*
X47253Y-48295D02*
X47253Y-48562D01*
X47157Y-48143D02*
X47062Y-48429D01*
X47310Y-48429D01*
X47538Y-48162D02*
X47577Y-48162D01*
X47615Y-48181D01*
X47634Y-48200D01*
X47653Y-48238D01*
X47672Y-48314D01*
X47672Y-48410D01*
X47653Y-48486D01*
X47634Y-48524D01*
X47615Y-48543D01*
X47577Y-48562D01*
X47538Y-48562D01*
X47500Y-48543D01*
X47481Y-48524D01*
X47462Y-48486D01*
X47443Y-48410D01*
X47443Y-48314D01*
X47462Y-48238D01*
X47481Y-48200D01*
X47500Y-48181D01*
X47538Y-48162D01*
X48015Y-48162D02*
X47938Y-48162D01*
X47900Y-48181D01*
X47881Y-48200D01*
X47843Y-48257D01*
X47824Y-48333D01*
X47824Y-48486D01*
X47843Y-48524D01*
X47862Y-48543D01*
X47900Y-48562D01*
X47977Y-48562D01*
X48015Y-48543D01*
X48034Y-48524D01*
X48053Y-48486D01*
X48053Y-48390D01*
X48034Y-48352D01*
X48015Y-48333D01*
X47977Y-48314D01*
X47900Y-48314D01*
X47862Y-48333D01*
X47843Y-48352D01*
X47824Y-48390D01*
X48186Y-48162D02*
X48434Y-48162D01*
X48300Y-48314D01*
X48358Y-48314D01*
X48396Y-48333D01*
X48415Y-48352D01*
X48434Y-48390D01*
X48434Y-48486D01*
X48415Y-48524D01*
X48396Y-48543D01*
X48358Y-48562D01*
X48243Y-48562D01*
X48205Y-48543D01*
X48186Y-48524D01*
X48586Y-48448D02*
X48777Y-48448D01*
X48548Y-48562D02*
X48681Y-48162D01*
X48815Y-48562D01*
X44512Y-49616D02*
X44321Y-49750D01*
X44512Y-49845D02*
X44112Y-49845D01*
X44112Y-49692D01*
X44131Y-49654D01*
X44150Y-49635D01*
X44188Y-49616D01*
X44245Y-49616D01*
X44283Y-49635D01*
X44302Y-49654D01*
X44321Y-49692D01*
X44321Y-49845D01*
X44150Y-49464D02*
X44131Y-49445D01*
X44112Y-49407D01*
X44112Y-49311D01*
X44131Y-49273D01*
X44150Y-49254D01*
X44188Y-49235D01*
X44226Y-49235D01*
X44283Y-49254D01*
X44512Y-49483D01*
X44512Y-49235D01*
X44150Y-48055D02*
X44131Y-48036D01*
X44112Y-47998D01*
X44112Y-47902D01*
X44131Y-47864D01*
X44150Y-47845D01*
X44188Y-47826D01*
X44226Y-47826D01*
X44283Y-47845D01*
X44512Y-48074D01*
X44512Y-47826D01*
X44512Y-47655D02*
X44112Y-47655D01*
X44512Y-47426D02*
X44283Y-47598D01*
X44112Y-47426D02*
X44340Y-47655D01*
X44150Y-47274D02*
X44131Y-47255D01*
X44112Y-47217D01*
X44112Y-47121D01*
X44131Y-47083D01*
X44150Y-47064D01*
X44188Y-47045D01*
X44226Y-47045D01*
X44283Y-47064D01*
X44512Y-47293D01*
X44512Y-47045D01*
X48384Y-51212D02*
X48250Y-51021D01*
X48155Y-51212D02*
X48155Y-50812D01*
X48308Y-50812D01*
X48346Y-50831D01*
X48365Y-50850D01*
X48384Y-50888D01*
X48384Y-50945D01*
X48365Y-50983D01*
X48346Y-51002D01*
X48308Y-51021D01*
X48155Y-51021D01*
X48765Y-51212D02*
X48536Y-51212D01*
X48650Y-51212D02*
X48650Y-50812D01*
X48612Y-50869D01*
X48574Y-50907D01*
X48536Y-50926D01*
X45855Y-50812D02*
X45894Y-50812D01*
X45932Y-50831D01*
X45951Y-50850D01*
X45970Y-50888D01*
X45989Y-50964D01*
X45989Y-51060D01*
X45970Y-51136D01*
X45951Y-51174D01*
X45932Y-51193D01*
X45894Y-51212D01*
X45855Y-51212D01*
X45817Y-51193D01*
X45798Y-51174D01*
X45779Y-51136D01*
X45760Y-51060D01*
X45760Y-50964D01*
X45779Y-50888D01*
X45798Y-50850D01*
X45817Y-50831D01*
X45855Y-50812D01*
X46160Y-51174D02*
X46179Y-51193D01*
X46160Y-51212D01*
X46141Y-51193D01*
X46160Y-51174D01*
X46160Y-51212D01*
X46331Y-50850D02*
X46350Y-50831D01*
X46388Y-50812D01*
X46484Y-50812D01*
X46522Y-50831D01*
X46541Y-50850D01*
X46560Y-50888D01*
X46560Y-50926D01*
X46541Y-50983D01*
X46312Y-51212D01*
X46560Y-51212D01*
X46712Y-50850D02*
X46731Y-50831D01*
X46769Y-50812D01*
X46865Y-50812D01*
X46903Y-50831D01*
X46922Y-50850D01*
X46941Y-50888D01*
X46941Y-50926D01*
X46922Y-50983D01*
X46693Y-51212D01*
X46941Y-51212D01*
X63584Y-49274D02*
X63565Y-49293D01*
X63508Y-49312D01*
X63470Y-49312D01*
X63412Y-49293D01*
X63374Y-49255D01*
X63355Y-49217D01*
X63336Y-49140D01*
X63336Y-49083D01*
X63355Y-49007D01*
X63374Y-48969D01*
X63412Y-48931D01*
X63470Y-48912D01*
X63508Y-48912D01*
X63565Y-48931D01*
X63584Y-48950D01*
X63717Y-48912D02*
X63965Y-48912D01*
X63831Y-49064D01*
X63889Y-49064D01*
X63927Y-49083D01*
X63946Y-49102D01*
X63965Y-49140D01*
X63965Y-49236D01*
X63946Y-49274D01*
X63927Y-49293D01*
X63889Y-49312D01*
X63774Y-49312D01*
X63736Y-49293D01*
X63717Y-49274D01*
X62783Y-50562D02*
X63031Y-50562D01*
X62897Y-50714D01*
X62955Y-50714D01*
X62993Y-50733D01*
X63012Y-50752D01*
X63031Y-50790D01*
X63031Y-50886D01*
X63012Y-50924D01*
X62993Y-50943D01*
X62955Y-50962D01*
X62840Y-50962D01*
X62802Y-50943D01*
X62783Y-50924D01*
X63164Y-50562D02*
X63412Y-50562D01*
X63278Y-50714D01*
X63336Y-50714D01*
X63374Y-50733D01*
X63393Y-50752D01*
X63412Y-50790D01*
X63412Y-50886D01*
X63393Y-50924D01*
X63374Y-50943D01*
X63336Y-50962D01*
X63221Y-50962D01*
X63183Y-50943D01*
X63164Y-50924D01*
X63659Y-50562D02*
X63698Y-50562D01*
X63736Y-50581D01*
X63755Y-50600D01*
X63774Y-50638D01*
X63793Y-50714D01*
X63793Y-50810D01*
X63774Y-50886D01*
X63755Y-50924D01*
X63736Y-50943D01*
X63698Y-50962D01*
X63659Y-50962D01*
X63621Y-50943D01*
X63602Y-50924D01*
X63583Y-50886D01*
X63564Y-50810D01*
X63564Y-50714D01*
X63583Y-50638D01*
X63602Y-50600D01*
X63621Y-50581D01*
X63659Y-50562D01*
X64136Y-50695D02*
X64136Y-50962D01*
X63964Y-50695D02*
X63964Y-50905D01*
X63983Y-50943D01*
X64021Y-50962D01*
X64079Y-50962D01*
X64117Y-50943D01*
X64136Y-50924D01*
X64460Y-50752D02*
X64326Y-50752D01*
X64326Y-50962D02*
X64326Y-50562D01*
X64517Y-50562D01*
X40784Y-47424D02*
X40765Y-47443D01*
X40708Y-47462D01*
X40670Y-47462D01*
X40612Y-47443D01*
X40574Y-47405D01*
X40555Y-47367D01*
X40536Y-47290D01*
X40536Y-47233D01*
X40555Y-47157D01*
X40574Y-47119D01*
X40612Y-47081D01*
X40670Y-47062D01*
X40708Y-47062D01*
X40765Y-47081D01*
X40784Y-47100D01*
X41165Y-47462D02*
X40936Y-47462D01*
X41050Y-47462D02*
X41050Y-47062D01*
X41012Y-47119D01*
X40974Y-47157D01*
X40936Y-47176D01*
X40231Y-46062D02*
X40002Y-46062D01*
X40116Y-46062D02*
X40116Y-45662D01*
X40078Y-45719D01*
X40040Y-45757D01*
X40002Y-45776D01*
X40478Y-45662D02*
X40517Y-45662D01*
X40555Y-45681D01*
X40574Y-45700D01*
X40593Y-45738D01*
X40612Y-45814D01*
X40612Y-45910D01*
X40593Y-45986D01*
X40574Y-46024D01*
X40555Y-46043D01*
X40517Y-46062D01*
X40478Y-46062D01*
X40440Y-46043D01*
X40421Y-46024D01*
X40402Y-45986D01*
X40383Y-45910D01*
X40383Y-45814D01*
X40402Y-45738D01*
X40421Y-45700D01*
X40440Y-45681D01*
X40478Y-45662D01*
X40859Y-45662D02*
X40898Y-45662D01*
X40936Y-45681D01*
X40955Y-45700D01*
X40974Y-45738D01*
X40993Y-45814D01*
X40993Y-45910D01*
X40974Y-45986D01*
X40955Y-46024D01*
X40936Y-46043D01*
X40898Y-46062D01*
X40859Y-46062D01*
X40821Y-46043D01*
X40802Y-46024D01*
X40783Y-45986D01*
X40764Y-45910D01*
X40764Y-45814D01*
X40783Y-45738D01*
X40802Y-45700D01*
X40821Y-45681D01*
X40859Y-45662D01*
X41336Y-45795D02*
X41336Y-46062D01*
X41164Y-45795D02*
X41164Y-46005D01*
X41183Y-46043D01*
X41221Y-46062D01*
X41279Y-46062D01*
X41317Y-46043D01*
X41336Y-46024D01*
X41660Y-45852D02*
X41526Y-45852D01*
X41526Y-46062D02*
X41526Y-45662D01*
X41717Y-45662D01*
X38662Y-53245D02*
X38262Y-53245D01*
X38262Y-53092D01*
X38281Y-53054D01*
X38300Y-53035D01*
X38338Y-53016D01*
X38395Y-53016D01*
X38433Y-53035D01*
X38452Y-53054D01*
X38471Y-53092D01*
X38471Y-53245D01*
X38662Y-52635D02*
X38662Y-52864D01*
X38662Y-52750D02*
X38262Y-52750D01*
X38319Y-52788D01*
X38357Y-52826D01*
X38376Y-52864D01*
X37024Y-39062D02*
X37024Y-38662D01*
X37174Y-39062D02*
X37174Y-38852D01*
X37158Y-38814D01*
X37124Y-38795D01*
X37074Y-38795D01*
X37041Y-38814D01*
X37024Y-38833D01*
X37491Y-39062D02*
X37491Y-38852D01*
X37475Y-38814D01*
X37441Y-38795D01*
X37375Y-38795D01*
X37341Y-38814D01*
X37491Y-39043D02*
X37458Y-39062D01*
X37375Y-39062D01*
X37341Y-39043D01*
X37325Y-39005D01*
X37325Y-38967D01*
X37341Y-38929D01*
X37375Y-38910D01*
X37458Y-38910D01*
X37491Y-38890D01*
X37658Y-39062D02*
X37658Y-38795D01*
X37658Y-38871D02*
X37675Y-38833D01*
X37692Y-38814D01*
X37725Y-38795D01*
X37758Y-38795D01*
X38025Y-39062D02*
X38025Y-38662D01*
X38025Y-39043D02*
X37992Y-39062D01*
X37925Y-39062D01*
X37892Y-39043D01*
X37875Y-39024D01*
X37859Y-38986D01*
X37859Y-38871D01*
X37875Y-38833D01*
X37892Y-38814D01*
X37925Y-38795D01*
X37992Y-38795D01*
X38025Y-38814D01*
X38159Y-38795D02*
X38226Y-39062D01*
X38292Y-38871D01*
X38359Y-39062D01*
X38426Y-38795D01*
X38709Y-39062D02*
X38709Y-38852D01*
X38693Y-38814D01*
X38659Y-38795D01*
X38593Y-38795D01*
X38559Y-38814D01*
X38709Y-39043D02*
X38676Y-39062D01*
X38593Y-39062D01*
X38559Y-39043D01*
X38543Y-39005D01*
X38543Y-38967D01*
X38559Y-38929D01*
X38593Y-38910D01*
X38676Y-38910D01*
X38709Y-38890D01*
X38876Y-39062D02*
X38876Y-38795D01*
X38876Y-38871D02*
X38893Y-38833D01*
X38910Y-38814D01*
X38943Y-38795D01*
X38976Y-38795D01*
X39227Y-39043D02*
X39193Y-39062D01*
X39127Y-39062D01*
X39093Y-39043D01*
X39077Y-39005D01*
X39077Y-38852D01*
X39093Y-38814D01*
X39127Y-38795D01*
X39193Y-38795D01*
X39227Y-38814D01*
X39243Y-38852D01*
X39243Y-38890D01*
X39077Y-38929D01*
G54D17*
X35633Y-39062D02*
X35600Y-39043D01*
X35583Y-39024D01*
X35567Y-38986D01*
X35567Y-38871D01*
X35583Y-38833D01*
X35600Y-38814D01*
X35633Y-38795D01*
X35683Y-38795D01*
X35717Y-38814D01*
X35733Y-38833D01*
X35750Y-38871D01*
X35750Y-38986D01*
X35733Y-39024D01*
X35717Y-39043D01*
X35683Y-39062D01*
X35633Y-39062D01*
X35900Y-38795D02*
X35900Y-39195D01*
X35900Y-38814D02*
X35934Y-38795D01*
X36000Y-38795D01*
X36034Y-38814D01*
X36050Y-38833D01*
X36067Y-38871D01*
X36067Y-38986D01*
X36050Y-39024D01*
X36034Y-39043D01*
X36000Y-39062D01*
X35934Y-39062D01*
X35900Y-39043D01*
X36351Y-39043D02*
X36317Y-39062D01*
X36251Y-39062D01*
X36217Y-39043D01*
X36201Y-39005D01*
X36201Y-38852D01*
X36217Y-38814D01*
X36251Y-38795D01*
X36317Y-38795D01*
X36351Y-38814D01*
X36367Y-38852D01*
X36367Y-38890D01*
X36201Y-38929D01*
X36517Y-38795D02*
X36517Y-39062D01*
X36517Y-38833D02*
X36534Y-38814D01*
X36567Y-38795D01*
X36617Y-38795D01*
X36651Y-38814D01*
X36667Y-38852D01*
X36667Y-39062D01*
G54D13*
X69462Y-36183D02*
X69748Y-36183D01*
X69805Y-36203D01*
X69843Y-36241D01*
X69862Y-36298D01*
X69862Y-36336D01*
X69862Y-35993D02*
X69462Y-35993D01*
X69462Y-35840D01*
X69481Y-35802D01*
X69500Y-35783D01*
X69538Y-35764D01*
X69595Y-35764D01*
X69633Y-35783D01*
X69652Y-35802D01*
X69671Y-35840D01*
X69671Y-35993D01*
X69633Y-35536D02*
X69614Y-35574D01*
X69595Y-35593D01*
X69557Y-35612D01*
X69538Y-35612D01*
X69500Y-35593D01*
X69481Y-35574D01*
X69462Y-35536D01*
X69462Y-35459D01*
X69481Y-35421D01*
X69500Y-35402D01*
X69538Y-35383D01*
X69557Y-35383D01*
X69595Y-35402D01*
X69614Y-35421D01*
X69633Y-35459D01*
X69633Y-35536D01*
X69652Y-35574D01*
X69671Y-35593D01*
X69710Y-35612D01*
X69786Y-35612D01*
X69824Y-35593D01*
X69843Y-35574D01*
X69862Y-35536D01*
X69862Y-35459D01*
X69843Y-35421D01*
X69824Y-35402D01*
X69786Y-35383D01*
X69710Y-35383D01*
X69671Y-35402D01*
X69652Y-35421D01*
X69633Y-35459D01*
X60862Y-36183D02*
X61148Y-36183D01*
X61205Y-36203D01*
X61243Y-36241D01*
X61262Y-36298D01*
X61262Y-36336D01*
X61262Y-35993D02*
X60862Y-35993D01*
X60862Y-35840D01*
X60881Y-35802D01*
X60900Y-35783D01*
X60938Y-35764D01*
X60995Y-35764D01*
X61033Y-35783D01*
X61052Y-35802D01*
X61071Y-35840D01*
X61071Y-35993D01*
X60862Y-35631D02*
X60862Y-35364D01*
X61262Y-35536D01*
X46262Y-35883D02*
X46548Y-35883D01*
X46605Y-35903D01*
X46643Y-35941D01*
X46662Y-35998D01*
X46662Y-36036D01*
X46662Y-35693D02*
X46262Y-35693D01*
X46262Y-35540D01*
X46281Y-35502D01*
X46300Y-35483D01*
X46338Y-35464D01*
X46395Y-35464D01*
X46433Y-35483D01*
X46452Y-35502D01*
X46471Y-35540D01*
X46471Y-35693D01*
X46262Y-35121D02*
X46262Y-35198D01*
X46281Y-35236D01*
X46300Y-35255D01*
X46357Y-35293D01*
X46433Y-35312D01*
X46586Y-35312D01*
X46624Y-35293D01*
X46643Y-35274D01*
X46662Y-35236D01*
X46662Y-35159D01*
X46643Y-35121D01*
X46624Y-35102D01*
X46586Y-35083D01*
X46490Y-35083D01*
X46452Y-35102D01*
X46433Y-35121D01*
X46414Y-35159D01*
X46414Y-35236D01*
X46433Y-35274D01*
X46452Y-35293D01*
X46490Y-35312D01*
X51862Y-35883D02*
X52148Y-35883D01*
X52205Y-35903D01*
X52243Y-35941D01*
X52262Y-35998D01*
X52262Y-36036D01*
X52262Y-35693D02*
X51862Y-35693D01*
X51862Y-35540D01*
X51881Y-35502D01*
X51900Y-35483D01*
X51938Y-35464D01*
X51995Y-35464D01*
X52033Y-35483D01*
X52052Y-35502D01*
X52071Y-35540D01*
X52071Y-35693D01*
X51862Y-35102D02*
X51862Y-35293D01*
X52052Y-35312D01*
X52033Y-35293D01*
X52014Y-35255D01*
X52014Y-35159D01*
X52033Y-35121D01*
X52052Y-35102D01*
X52090Y-35083D01*
X52186Y-35083D01*
X52224Y-35102D01*
X52243Y-35121D01*
X52262Y-35159D01*
X52262Y-35255D01*
X52243Y-35293D01*
X52224Y-35312D01*
X36417Y-34443D02*
X36474Y-34462D01*
X36570Y-34462D01*
X36608Y-34443D01*
X36627Y-34424D01*
X36646Y-34386D01*
X36646Y-34348D01*
X36627Y-34310D01*
X36608Y-34290D01*
X36570Y-34271D01*
X36493Y-34252D01*
X36455Y-34233D01*
X36436Y-34214D01*
X36417Y-34176D01*
X36417Y-34138D01*
X36436Y-34100D01*
X36455Y-34081D01*
X36493Y-34062D01*
X36589Y-34062D01*
X36646Y-34081D01*
X36779Y-34062D02*
X36874Y-34462D01*
X36951Y-34176D01*
X37027Y-34462D01*
X37122Y-34062D01*
X37484Y-34462D02*
X37255Y-34462D01*
X37369Y-34462D02*
X37369Y-34062D01*
X37331Y-34119D01*
X37293Y-34157D01*
X37255Y-34176D01*
X36319Y-36062D02*
X36185Y-35871D01*
X36090Y-36062D02*
X36090Y-35662D01*
X36243Y-35662D01*
X36281Y-35681D01*
X36300Y-35700D01*
X36319Y-35738D01*
X36319Y-35795D01*
X36300Y-35833D01*
X36281Y-35852D01*
X36243Y-35871D01*
X36090Y-35871D01*
X36490Y-35852D02*
X36624Y-35852D01*
X36681Y-36062D02*
X36490Y-36062D01*
X36490Y-35662D01*
X36681Y-35662D01*
X36833Y-36043D02*
X36890Y-36062D01*
X36986Y-36062D01*
X37024Y-36043D01*
X37043Y-36024D01*
X37062Y-35986D01*
X37062Y-35948D01*
X37043Y-35910D01*
X37024Y-35890D01*
X36986Y-35871D01*
X36909Y-35852D01*
X36871Y-35833D01*
X36852Y-35814D01*
X36833Y-35776D01*
X36833Y-35738D01*
X36852Y-35700D01*
X36871Y-35681D01*
X36909Y-35662D01*
X37005Y-35662D01*
X37062Y-35681D01*
X37233Y-35852D02*
X37367Y-35852D01*
X37424Y-36062D02*
X37233Y-36062D01*
X37233Y-35662D01*
X37424Y-35662D01*
X37538Y-35662D02*
X37767Y-35662D01*
X37652Y-36062D02*
X37652Y-35662D01*
X35662Y-53095D02*
X35262Y-53095D01*
X35262Y-52942D01*
X35281Y-52904D01*
X35300Y-52885D01*
X35338Y-52866D01*
X35395Y-52866D01*
X35433Y-52885D01*
X35452Y-52904D01*
X35471Y-52942D01*
X35471Y-53095D01*
X35300Y-52714D02*
X35281Y-52695D01*
X35262Y-52657D01*
X35262Y-52561D01*
X35281Y-52523D01*
X35300Y-52504D01*
X35338Y-52485D01*
X35376Y-52485D01*
X35433Y-52504D01*
X35662Y-52733D01*
X35662Y-52485D01*
X36455Y-45962D02*
X36455Y-45562D01*
X36608Y-45562D01*
X36646Y-45581D01*
X36665Y-45600D01*
X36684Y-45638D01*
X36684Y-45695D01*
X36665Y-45733D01*
X36646Y-45752D01*
X36608Y-45771D01*
X36455Y-45771D01*
X36817Y-45562D02*
X37065Y-45562D01*
X36931Y-45714D01*
X36989Y-45714D01*
X37027Y-45733D01*
X37046Y-45752D01*
X37065Y-45790D01*
X37065Y-45886D01*
X37046Y-45924D01*
X37027Y-45943D01*
X36989Y-45962D01*
X36874Y-45962D01*
X36836Y-45943D01*
X36817Y-45924D01*
X36498Y-41148D02*
X36689Y-41148D01*
X36460Y-41262D02*
X36593Y-40862D01*
X36727Y-41262D01*
X36860Y-40862D02*
X36860Y-41186D01*
X36879Y-41224D01*
X36898Y-41243D01*
X36936Y-41262D01*
X37013Y-41262D01*
X37051Y-41243D01*
X37070Y-41224D01*
X37089Y-41186D01*
X37089Y-40862D01*
X37241Y-40862D02*
X37508Y-41262D01*
X37508Y-40862D02*
X37241Y-41262D01*
X37565Y-41300D02*
X37870Y-41300D01*
X37965Y-41262D02*
X37965Y-40862D01*
X38155Y-41262D02*
X38155Y-40862D01*
X38384Y-41262D01*
X38384Y-40862D01*
X64855Y-48112D02*
X64855Y-47712D01*
X65008Y-47712D01*
X65046Y-47731D01*
X65065Y-47750D01*
X65084Y-47788D01*
X65084Y-47845D01*
X65065Y-47883D01*
X65046Y-47902D01*
X65008Y-47921D01*
X64855Y-47921D01*
X65427Y-47845D02*
X65427Y-48112D01*
X65331Y-47693D02*
X65236Y-47979D01*
X65484Y-47979D01*
G54D11*
X64036Y-43914D02*
X64036Y-43771D01*
X64121Y-43942D02*
X63821Y-43842D01*
X64121Y-43742D01*
X63821Y-43643D02*
X64064Y-43643D01*
X64093Y-43628D01*
X64107Y-43614D01*
X64121Y-43585D01*
X64121Y-43528D01*
X64107Y-43500D01*
X64093Y-43485D01*
X64064Y-43471D01*
X63821Y-43471D01*
X63821Y-43357D02*
X64121Y-43157D01*
X63821Y-43157D02*
X64121Y-43357D01*
X64150Y-43114D02*
X64150Y-42885D01*
X63821Y-42756D02*
X63821Y-42699D01*
X63836Y-42671D01*
X63864Y-42642D01*
X63921Y-42628D01*
X64021Y-42628D01*
X64079Y-42642D01*
X64107Y-42671D01*
X64121Y-42699D01*
X64121Y-42756D01*
X64107Y-42785D01*
X64079Y-42814D01*
X64021Y-42828D01*
X63921Y-42828D01*
X63864Y-42814D01*
X63836Y-42785D01*
X63821Y-42756D01*
X63821Y-42500D02*
X64064Y-42500D01*
X64093Y-42485D01*
X64107Y-42471D01*
X64121Y-42442D01*
X64121Y-42385D01*
X64107Y-42357D01*
X64093Y-42342D01*
X64064Y-42328D01*
X63821Y-42328D01*
X63821Y-42228D02*
X63821Y-42057D01*
X64121Y-42143D02*
X63821Y-42143D01*
G54D13*
X67705Y-48412D02*
X67705Y-48012D01*
X67858Y-48012D01*
X67896Y-48031D01*
X67915Y-48050D01*
X67934Y-48088D01*
X67934Y-48145D01*
X67915Y-48183D01*
X67896Y-48202D01*
X67858Y-48221D01*
X67705Y-48221D01*
X68296Y-48012D02*
X68105Y-48012D01*
X68086Y-48202D01*
X68105Y-48183D01*
X68143Y-48164D01*
X68239Y-48164D01*
X68277Y-48183D01*
X68296Y-48202D01*
X68315Y-48240D01*
X68315Y-48336D01*
X68296Y-48374D01*
X68277Y-48393D01*
X68239Y-48412D01*
X68143Y-48412D01*
X68105Y-48393D01*
X68086Y-48374D01*
X70912Y-46005D02*
X70512Y-46005D01*
X70702Y-46005D02*
X70702Y-45776D01*
X70912Y-45776D02*
X70512Y-45776D01*
X70912Y-45586D02*
X70512Y-45586D01*
X70512Y-45433D01*
X70531Y-45395D01*
X70550Y-45376D01*
X70588Y-45357D01*
X70645Y-45357D01*
X70683Y-45376D01*
X70702Y-45395D01*
X70721Y-45433D01*
X70721Y-45586D01*
X70950Y-45281D02*
X70950Y-44976D01*
X70950Y-44614D02*
X70931Y-44652D01*
X70893Y-44690D01*
X70836Y-44747D01*
X70817Y-44786D01*
X70817Y-44824D01*
X70912Y-44805D02*
X70893Y-44843D01*
X70855Y-44881D01*
X70779Y-44900D01*
X70645Y-44900D01*
X70569Y-44881D01*
X70531Y-44843D01*
X70512Y-44805D01*
X70512Y-44728D01*
X70531Y-44690D01*
X70569Y-44652D01*
X70645Y-44633D01*
X70779Y-44633D01*
X70855Y-44652D01*
X70893Y-44690D01*
X70912Y-44728D01*
X70912Y-44805D01*
X70550Y-44481D02*
X70531Y-44462D01*
X70512Y-44424D01*
X70512Y-44328D01*
X70531Y-44290D01*
X70550Y-44271D01*
X70588Y-44252D01*
X70626Y-44252D01*
X70683Y-44271D01*
X70912Y-44500D01*
X70912Y-44252D01*
X70512Y-44119D02*
X70512Y-43871D01*
X70664Y-44005D01*
X70664Y-43947D01*
X70683Y-43909D01*
X70702Y-43890D01*
X70740Y-43871D01*
X70836Y-43871D01*
X70874Y-43890D01*
X70893Y-43909D01*
X70912Y-43947D01*
X70912Y-44062D01*
X70893Y-44100D01*
X70874Y-44119D01*
X70645Y-43528D02*
X70912Y-43528D01*
X70493Y-43624D02*
X70779Y-43719D01*
X70779Y-43471D01*
X70512Y-43357D02*
X70512Y-43090D01*
X70912Y-43262D01*
X70798Y-42957D02*
X70798Y-42766D01*
X70912Y-42995D02*
X70512Y-42862D01*
X70912Y-42728D01*
X70950Y-42690D02*
X70950Y-42385D01*
X70702Y-42156D02*
X70702Y-42290D01*
X70912Y-42290D02*
X70512Y-42290D01*
X70512Y-42099D01*
X70702Y-41813D02*
X70702Y-41947D01*
X70912Y-41947D02*
X70512Y-41947D01*
X70512Y-41756D01*
X70874Y-41375D02*
X70893Y-41394D01*
X70912Y-41451D01*
X70912Y-41489D01*
X70893Y-41547D01*
X70855Y-41585D01*
X70817Y-41604D01*
X70740Y-41623D01*
X70683Y-41623D01*
X70607Y-41604D01*
X70569Y-41585D01*
X70531Y-41547D01*
X70512Y-41489D01*
X70512Y-41451D01*
X70531Y-41394D01*
X70550Y-41375D01*
X39812Y-37045D02*
X39412Y-37045D01*
X39412Y-36892D01*
X39431Y-36854D01*
X39450Y-36835D01*
X39488Y-36816D01*
X39545Y-36816D01*
X39583Y-36835D01*
X39602Y-36854D01*
X39621Y-36892D01*
X39621Y-37045D01*
X39412Y-36473D02*
X39412Y-36550D01*
X39431Y-36588D01*
X39450Y-36607D01*
X39507Y-36645D01*
X39583Y-36664D01*
X39736Y-36664D01*
X39774Y-36645D01*
X39793Y-36626D01*
X39812Y-36588D01*
X39812Y-36511D01*
X39793Y-36473D01*
X39774Y-36454D01*
X39736Y-36435D01*
X39640Y-36435D01*
X39602Y-36454D01*
X39583Y-36473D01*
X39564Y-36511D01*
X39564Y-36588D01*
X39583Y-36626D01*
X39602Y-36645D01*
X39640Y-36664D01*
X43462Y-36640D02*
X43062Y-36640D01*
X43424Y-36221D02*
X43443Y-36240D01*
X43462Y-36297D01*
X43462Y-36335D01*
X43443Y-36393D01*
X43405Y-36431D01*
X43367Y-36450D01*
X43290Y-36469D01*
X43233Y-36469D01*
X43157Y-36450D01*
X43119Y-36431D01*
X43081Y-36393D01*
X43062Y-36335D01*
X43062Y-36297D01*
X43081Y-36240D01*
X43100Y-36221D01*
X43443Y-36069D02*
X43462Y-36012D01*
X43462Y-35916D01*
X43443Y-35878D01*
X43424Y-35859D01*
X43386Y-35840D01*
X43348Y-35840D01*
X43310Y-35859D01*
X43290Y-35878D01*
X43271Y-35916D01*
X43252Y-35993D01*
X43233Y-36031D01*
X43214Y-36050D01*
X43176Y-36069D01*
X43138Y-36069D01*
X43100Y-36050D01*
X43081Y-36031D01*
X43062Y-35993D01*
X43062Y-35897D01*
X43081Y-35840D01*
X43462Y-35669D02*
X43062Y-35669D01*
X43062Y-35516D01*
X43081Y-35478D01*
X43100Y-35459D01*
X43138Y-35440D01*
X43195Y-35440D01*
X43233Y-35459D01*
X43252Y-35478D01*
X43271Y-35516D01*
X43271Y-35669D01*
X41834Y-49862D02*
X41643Y-49862D01*
X41643Y-49462D01*
X42177Y-49862D02*
X41948Y-49862D01*
X42062Y-49862D02*
X42062Y-49462D01*
X42024Y-49519D01*
X41986Y-49557D01*
X41948Y-49576D01*
X41243Y-49249D02*
X41014Y-49249D01*
X41128Y-49249D02*
X41128Y-48849D01*
X41090Y-48906D01*
X41052Y-48944D01*
X41014Y-48963D01*
X41471Y-49020D02*
X41433Y-49001D01*
X41414Y-48982D01*
X41395Y-48944D01*
X41395Y-48925D01*
X41414Y-48887D01*
X41433Y-48868D01*
X41471Y-48849D01*
X41548Y-48849D01*
X41586Y-48868D01*
X41605Y-48887D01*
X41624Y-48925D01*
X41624Y-48944D01*
X41605Y-48982D01*
X41586Y-49001D01*
X41548Y-49020D01*
X41471Y-49020D01*
X41433Y-49039D01*
X41414Y-49058D01*
X41395Y-49097D01*
X41395Y-49173D01*
X41414Y-49211D01*
X41433Y-49230D01*
X41471Y-49249D01*
X41548Y-49249D01*
X41586Y-49230D01*
X41605Y-49211D01*
X41624Y-49173D01*
X41624Y-49097D01*
X41605Y-49058D01*
X41586Y-49039D01*
X41548Y-49020D01*
X41871Y-48849D02*
X41910Y-48849D01*
X41948Y-48868D01*
X41967Y-48887D01*
X41986Y-48925D01*
X42005Y-49001D01*
X42005Y-49097D01*
X41986Y-49173D01*
X41967Y-49211D01*
X41948Y-49230D01*
X41910Y-49249D01*
X41871Y-49249D01*
X41833Y-49230D01*
X41814Y-49211D01*
X41795Y-49173D01*
X41776Y-49097D01*
X41776Y-49001D01*
X41795Y-48925D01*
X41814Y-48887D01*
X41833Y-48868D01*
X41871Y-48849D01*
X42348Y-48982D02*
X42348Y-49249D01*
X42176Y-48982D02*
X42176Y-49192D01*
X42195Y-49230D01*
X42233Y-49249D01*
X42291Y-49249D01*
X42329Y-49230D01*
X42348Y-49211D01*
X42538Y-49249D02*
X42538Y-48849D01*
X42538Y-49039D02*
X42767Y-49039D01*
X42767Y-49249D02*
X42767Y-48849D01*
G54D11*
X36021Y-39643D02*
X36007Y-39657D01*
X35964Y-39671D01*
X35935Y-39671D01*
X35892Y-39657D01*
X35864Y-39629D01*
X35849Y-39600D01*
X35835Y-39543D01*
X35835Y-39500D01*
X35849Y-39443D01*
X35864Y-39414D01*
X35892Y-39386D01*
X35935Y-39371D01*
X35964Y-39371D01*
X36007Y-39386D01*
X36021Y-39400D01*
X36321Y-39643D02*
X36307Y-39657D01*
X36264Y-39671D01*
X36235Y-39671D01*
X36192Y-39657D01*
X36164Y-39629D01*
X36149Y-39600D01*
X36135Y-39543D01*
X36135Y-39500D01*
X36149Y-39443D01*
X36164Y-39414D01*
X36192Y-39386D01*
X36235Y-39371D01*
X36264Y-39371D01*
X36307Y-39386D01*
X36321Y-39400D01*
X36778Y-39514D02*
X36821Y-39529D01*
X36836Y-39543D01*
X36850Y-39571D01*
X36850Y-39614D01*
X36836Y-39643D01*
X36821Y-39657D01*
X36793Y-39671D01*
X36678Y-39671D01*
X36678Y-39371D01*
X36778Y-39371D01*
X36807Y-39386D01*
X36821Y-39400D01*
X36836Y-39429D01*
X36836Y-39457D01*
X36821Y-39486D01*
X36807Y-39500D01*
X36778Y-39514D01*
X36678Y-39514D01*
X37036Y-39529D02*
X37036Y-39671D01*
X36936Y-39371D02*
X37036Y-39529D01*
X37136Y-39371D01*
X37235Y-39557D02*
X37464Y-39557D01*
X37592Y-39657D02*
X37635Y-39671D01*
X37706Y-39671D01*
X37735Y-39657D01*
X37749Y-39643D01*
X37764Y-39614D01*
X37764Y-39586D01*
X37749Y-39557D01*
X37735Y-39543D01*
X37706Y-39529D01*
X37649Y-39514D01*
X37621Y-39500D01*
X37606Y-39486D01*
X37592Y-39457D01*
X37592Y-39429D01*
X37606Y-39400D01*
X37621Y-39386D01*
X37649Y-39371D01*
X37721Y-39371D01*
X37764Y-39386D01*
X37878Y-39586D02*
X38021Y-39586D01*
X37850Y-39671D02*
X37950Y-39371D01*
X38050Y-39671D01*
X38350Y-39371D02*
X38536Y-39371D01*
X38436Y-39486D01*
X38478Y-39486D01*
X38507Y-39500D01*
X38521Y-39514D01*
X38536Y-39543D01*
X38536Y-39614D01*
X38521Y-39643D01*
X38507Y-39657D01*
X38478Y-39671D01*
X38393Y-39671D01*
X38364Y-39657D01*
X38350Y-39643D01*
X38664Y-39643D02*
X38679Y-39657D01*
X38664Y-39671D01*
X38650Y-39657D01*
X38664Y-39643D01*
X38664Y-39671D01*
X38865Y-39371D02*
X38893Y-39371D01*
X38922Y-39386D01*
X38936Y-39400D01*
X38950Y-39429D01*
X38965Y-39486D01*
X38965Y-39557D01*
X38950Y-39614D01*
X38936Y-39643D01*
X38922Y-39657D01*
X38893Y-39671D01*
X38865Y-39671D01*
X38836Y-39657D01*
X38822Y-39643D01*
X38807Y-39614D01*
X38793Y-39557D01*
X38793Y-39486D01*
X38807Y-39429D01*
X38822Y-39400D01*
X38836Y-39386D01*
X38865Y-39371D01*
G54D13*
X46612Y-52783D02*
X46898Y-52783D01*
X46955Y-52803D01*
X46993Y-52841D01*
X47012Y-52898D01*
X47012Y-52936D01*
X47012Y-52593D02*
X46612Y-52593D01*
X46612Y-52440D01*
X46631Y-52402D01*
X46650Y-52383D01*
X46688Y-52364D01*
X46745Y-52364D01*
X46783Y-52383D01*
X46802Y-52402D01*
X46821Y-52440D01*
X46821Y-52593D01*
X47012Y-52174D02*
X47012Y-52098D01*
X46993Y-52059D01*
X46974Y-52040D01*
X46917Y-52002D01*
X46840Y-51983D01*
X46688Y-51983D01*
X46650Y-52002D01*
X46631Y-52021D01*
X46612Y-52059D01*
X46612Y-52136D01*
X46631Y-52174D01*
X46650Y-52193D01*
X46688Y-52212D01*
X46783Y-52212D01*
X46821Y-52193D01*
X46840Y-52174D01*
X46860Y-52136D01*
X46860Y-52059D01*
X46840Y-52021D01*
X46821Y-52002D01*
X46783Y-51983D01*
X43962Y-52859D02*
X44362Y-52726D01*
X43962Y-52592D01*
X44362Y-52459D02*
X44095Y-52459D01*
X43962Y-52459D02*
X43981Y-52478D01*
X44000Y-52459D01*
X43981Y-52440D01*
X43962Y-52459D01*
X44000Y-52459D01*
X44095Y-52269D02*
X44362Y-52269D01*
X44133Y-52269D02*
X44114Y-52250D01*
X44095Y-52212D01*
X44095Y-52154D01*
X44114Y-52116D01*
X44152Y-52097D01*
X44362Y-52097D01*
%LPC*%
G54D18*
X70000Y-37250D03*
X70000Y-38250D03*
X36250Y-47500D03*
X36250Y-48500D03*
G54D19*
X42850Y-46100D03*
X42850Y-47100D03*
G54D20*
X54250Y-51050D03*
X50250Y-51050D03*
X50250Y-49550D03*
X54250Y-49550D03*
G54D21*
X57850Y-51250D03*
G54D20*
X57850Y-50250D03*
X57850Y-49250D03*
G54D21*
X56850Y-51250D03*
G54D20*
X56850Y-50250D03*
X56850Y-49250D03*
G54D21*
X55850Y-51250D03*
G54D20*
X55850Y-50250D03*
X55850Y-49250D03*
G54D21*
X58850Y-51250D03*
G54D20*
X58850Y-50250D03*
X58850Y-49250D03*
G54D22*
X61850Y-33450D03*
X62850Y-33450D03*
X63850Y-33450D03*
X64850Y-33450D03*
X65850Y-33450D03*
X66850Y-33450D03*
X67850Y-33450D03*
X68850Y-33450D03*
X70850Y-52450D03*
X69850Y-52450D03*
X68850Y-52450D03*
X67850Y-52450D03*
X63850Y-52450D03*
X61850Y-52450D03*
X60850Y-52450D03*
X64850Y-52450D03*
X65850Y-52450D03*
X66850Y-52450D03*
X59850Y-52450D03*
X58850Y-52450D03*
X57850Y-52450D03*
X54850Y-52450D03*
X55850Y-52450D03*
X56850Y-52450D03*
X52850Y-52450D03*
X51850Y-52450D03*
X50850Y-52450D03*
X48850Y-52450D03*
X47850Y-52450D03*
X59850Y-33450D03*
X58850Y-33450D03*
X57850Y-33450D03*
X56850Y-33450D03*
X55850Y-33450D03*
X54850Y-33450D03*
X53850Y-33450D03*
X52850Y-33450D03*
X51250Y-33450D03*
X50250Y-33450D03*
X49250Y-33450D03*
X48250Y-33450D03*
X47250Y-33450D03*
X46250Y-33450D03*
X45250Y-33450D03*
X44250Y-33450D03*
X49850Y-52450D03*
G54D20*
X71850Y-34450D03*
X72850Y-34450D03*
X71850Y-35450D03*
X72850Y-35450D03*
X71850Y-36450D03*
X72850Y-36450D03*
X71850Y-37450D03*
X72850Y-37450D03*
X71850Y-33450D03*
X72850Y-33450D03*
X72850Y-38450D03*
X71850Y-38450D03*
X71850Y-39450D03*
X72850Y-39450D03*
X71850Y-40450D03*
X72850Y-40450D03*
X71850Y-41450D03*
X72850Y-41450D03*
X71850Y-42450D03*
X72850Y-42450D03*
X71850Y-43450D03*
X72850Y-43450D03*
X71850Y-44450D03*
X72850Y-44450D03*
X71850Y-45450D03*
X72850Y-45450D03*
X71850Y-46450D03*
X72850Y-46450D03*
X71850Y-47450D03*
X72850Y-47450D03*
X71850Y-48450D03*
X72850Y-48450D03*
X71850Y-49450D03*
X72850Y-49450D03*
X71850Y-50450D03*
X72850Y-50450D03*
G54D19*
X67350Y-37950D03*
X64350Y-37950D03*
X36250Y-49500D03*
X39250Y-49500D03*
G54D23*
X62250Y-38050D03*
G54D24*
X61250Y-38050D03*
X60250Y-38050D03*
X59250Y-38050D03*
X58250Y-38050D03*
X57250Y-38050D03*
X56250Y-38050D03*
X55250Y-38050D03*
X54250Y-38050D03*
X54250Y-41050D03*
X55250Y-41050D03*
X56250Y-41050D03*
X57250Y-41050D03*
X58250Y-41050D03*
X59250Y-41050D03*
X60250Y-41050D03*
X61250Y-41050D03*
X62250Y-41050D03*
G54D23*
X54250Y-45650D03*
G54D24*
X55250Y-45650D03*
X56250Y-45650D03*
X57250Y-45650D03*
X58250Y-45650D03*
X59250Y-45650D03*
X60250Y-45650D03*
X61250Y-45650D03*
X62250Y-45650D03*
X62250Y-42650D03*
X61250Y-42650D03*
X60250Y-42650D03*
X59250Y-42650D03*
X58250Y-42650D03*
X57250Y-42650D03*
X56250Y-42650D03*
X55250Y-42650D03*
X54250Y-42650D03*
G54D23*
X41150Y-44050D03*
G54D24*
X42150Y-44050D03*
X43150Y-44050D03*
X44150Y-44050D03*
X45150Y-44050D03*
X46150Y-44050D03*
X47150Y-44050D03*
X48150Y-44050D03*
X49150Y-44050D03*
X50150Y-44050D03*
X51150Y-44050D03*
X52150Y-44050D03*
X52150Y-38050D03*
X51150Y-38050D03*
X50150Y-38050D03*
X49150Y-38050D03*
X48150Y-38050D03*
X47150Y-38050D03*
X46150Y-38050D03*
X45150Y-38050D03*
X44150Y-38050D03*
X43150Y-38050D03*
X42150Y-38050D03*
X41150Y-38050D03*
G54D25*
X50250Y-48400D03*
G54D26*
X54250Y-48400D03*
G54D23*
X48800Y-46900D03*
G54D24*
X47800Y-46900D03*
X46800Y-46900D03*
X45800Y-46900D03*
X45800Y-49900D03*
X46800Y-49900D03*
X47800Y-49900D03*
X48800Y-49900D03*
G54D20*
X44350Y-46450D03*
X44350Y-50450D03*
X45000Y-51050D03*
X49500Y-51050D03*
G54D21*
X64650Y-50050D03*
G54D20*
X62650Y-50000D03*
G54D21*
X40350Y-46550D03*
G54D20*
X41350Y-46550D03*
G54D27*
X37300Y-51706D03*
G54D28*
X37300Y-52494D03*
G54D21*
X65850Y-35850D03*
G54D20*
X65850Y-34850D03*
X66850Y-35850D03*
X66850Y-34850D03*
X67850Y-35850D03*
X67850Y-34850D03*
X68850Y-35850D03*
X68850Y-34850D03*
G54D21*
X64850Y-34850D03*
G54D20*
X64850Y-35850D03*
X63850Y-34850D03*
X63850Y-35850D03*
X62850Y-34850D03*
X62850Y-35850D03*
X61850Y-34850D03*
X61850Y-35850D03*
G54D21*
X51250Y-34550D03*
G54D20*
X51250Y-35550D03*
X50250Y-34550D03*
X50250Y-35550D03*
X49250Y-34550D03*
X49250Y-35550D03*
X48250Y-34550D03*
X48250Y-35550D03*
X47250Y-34550D03*
X47250Y-35550D03*
G54D21*
X57850Y-34550D03*
G54D20*
X57850Y-35550D03*
X56850Y-34550D03*
X56850Y-35550D03*
X55850Y-34550D03*
X55850Y-35550D03*
X54850Y-34550D03*
X54850Y-35550D03*
X53850Y-34550D03*
X53850Y-35550D03*
X52850Y-34550D03*
X52850Y-35550D03*
G54D29*
X38230Y-33364D03*
X38230Y-35136D03*
X35670Y-33364D03*
X35670Y-35136D03*
G54D21*
X36300Y-51600D03*
G54D20*
X36300Y-52600D03*
G54D21*
X37950Y-44900D03*
G54D20*
X36950Y-44900D03*
X37950Y-43900D03*
X36950Y-43900D03*
X37950Y-42900D03*
X36950Y-42900D03*
X37950Y-41900D03*
X36950Y-41900D03*
X66350Y-39050D03*
X65350Y-39050D03*
X65350Y-40050D03*
X66350Y-40050D03*
G54D21*
X66350Y-47050D03*
G54D20*
X65350Y-47050D03*
X66350Y-46050D03*
X65350Y-46050D03*
X66350Y-45050D03*
X65350Y-45050D03*
X66350Y-44050D03*
X65350Y-44050D03*
X66350Y-43050D03*
X65350Y-43050D03*
X66350Y-42050D03*
X65350Y-42050D03*
X66350Y-41050D03*
X65350Y-41050D03*
G54D28*
X68744Y-46606D03*
X67957Y-46212D03*
X68744Y-45819D03*
X67957Y-45425D03*
X68744Y-45031D03*
X67957Y-44638D03*
X68744Y-44244D03*
X67957Y-43850D03*
X68744Y-43457D03*
X67957Y-43063D03*
X68744Y-42669D03*
X67957Y-42275D03*
X68744Y-41882D03*
X67957Y-41488D03*
X68744Y-41094D03*
X67957Y-40701D03*
G54D21*
X42450Y-35550D03*
G54D20*
X42450Y-36550D03*
X41450Y-35550D03*
X41450Y-36550D03*
X40450Y-35550D03*
X40450Y-36550D03*
G54D28*
X42884Y-48300D03*
X40916Y-48300D03*
G54D21*
X46000Y-52450D03*
G54D20*
X45000Y-52450D03*
M02*
